<?xml version="1.0" encoding="utf-8"?>
<!-- Generator: Adobe Illustrator 27.8.0, SVG Export Plug-In . SVG Version: 6.00 Build 0)  -->
<svg version="1.1" id="Layer_2_00000084504740356734100470000014177122249993219732_"
	 xmlns="http://www.w3.org/2000/svg" xmlns:xlink="http://www.w3.org/1999/xlink" x="0px" y="0px" viewBox="0 0 332.1 67.4"
	 style="enable-background:new 0 0 332.1 67.4;" xml:space="preserve">
<style type="text/css">
	.st0{fill:#F8E5C1;}
	.st1{fill:#F18A66;}
	.st2{fill:#FCF6E3;}
</style>
<g id="Layer_2-2">
	<path class="st0" d="M6.9,7.5c-6.2,3.2-2.5,53.6,0,56c2.5,2.4,320.8,0,320.8,0s5.6-60,0-60S10.1,5.9,6.9,7.5z"/>
	<path class="st1" d="M0.5,3.9c-0.3,2.5-1,8.2,0,8.9c1,0.6,331.6-4.5,331.6-4.5V0L0.5,3.9z"/>
	<path class="st1" d="M331.6,63.5c0.3-2.5,1-8.2,0-8.9c-1-0.6-328,4.5-328,4.5v8.3L331.6,63.5z"/>
	<path class="st2" d="M7.6,29.8c0,0,314.8-6.7,315.1-5C323.2,26.5,7.6,29.8,7.6,29.8L7.6,29.8z"/>
	<path class="st2" d="M9.3,36.7c0,0,314.8-6.7,315.1-5C324.9,33.4,9.3,36.7,9.3,36.7z"/>
	<path class="st2" d="M7.6,42.6c10.7,0.4,316-5.2,315.1-2C322,43.9,7.6,42.6,7.6,42.6L7.6,42.6z"/>
	<path class="st2" d="M322.8,15c-10.7-0.4-316,5.2-315.1,2C8.4,13.8,322.8,15,322.8,15z"/>
</g>
</svg>
