<?xml version="1.0" encoding="utf-8"?>
<!-- Generator: Adobe Illustrator 27.8.0, SVG Export Plug-In . SVG Version: 6.00 Build 0)  -->
<svg version="1.1" id="Layer_2_00000078045723646139696980000007287057978352618175_"
	 xmlns="http://www.w3.org/2000/svg" xmlns:xlink="http://www.w3.org/1999/xlink" x="0px" y="0px" viewBox="0 0 325.8 60"
	 style="enable-background:new 0 0 325.8 60;" xml:space="preserve">
<style type="text/css">
	.st0{fill:#F1D784;}
	.st1{fill:#F18A66;}
	.st2{fill:#E25C2A;}
</style>
<g id="Layer_2-2">
	<path class="st0" d="M5,4c-6.2,3.2-2.5,53.6,0,56c2.5,2.4,320.8,0,320.8,0s5.6-60,0-60C320.2,0,8.1,2.4,5,4z"/>
	<path class="st1" d="M84.1,27.4V30c0,0,176.8-0.3,177-0.5c0.2-0.2,0-2.5,0-2.5L84.1,27.4L84.1,27.4z"/>
	<path class="st2" d="M47.7,14.8c0,0-1.1,32,0,32s10.7,1.2,10.7,0s1.2-32.9,0-32S47.7,14.8,47.7,14.8z"/>
	<path class="st2" d="M282.3,1.6c0,0-0.9,56.7,0.9,57.3s5.7,0.2,5.7,0.2l-0.2-57.2L282.3,1.6z"/>
	<path class="st1" d="M305.1,2.3c0,0-0.9,56.7,0.9,57.3s5.7,0.2,5.7,0.2l-0.2-57.2L305.1,2.3z"/>
	<path class="st2" d="M272.7,1.5c0,0-0.9,56.7,0.9,57.3s5.7,0.2,5.7,0.2l-0.2-57.2L272.7,1.5z"/>
	<path class="st1" d="M12.5,31.1c0-10.8,15.1-19.2,22.1-12.9s6.7,20.5-4.1,24.5C23.3,45.3,12.5,40.6,12.5,31.1L12.5,31.1z"/>
</g>
</svg>
