<?xml version="1.0" encoding="utf-8"?>
<!-- Generator: Adobe Illustrator 27.8.0, SVG Export Plug-In . SVG Version: 6.00 Build 0)  -->
<svg version="1.1" id="Layer_2_00000152249435195685492720000008050872028776498077_"
	 xmlns="http://www.w3.org/2000/svg" xmlns:xlink="http://www.w3.org/1999/xlink" x="0px" y="0px" viewBox="0 0 610.3 274.5"
	 style="enable-background:new 0 0 610.3 274.5;" xml:space="preserve">
<style type="text/css">
	.st0{fill:#FFFFFF;}
</style>
<g>
	<g>
		<path class="st0" d="M67.9,83.5c-4.8,1.7-14.2,4.5-25.2,4.5C30.2,88.1,20,85,12.1,77.3C5,70.5,0.8,59.5,0.8,47
			c0-24.6,17-42.5,44.2-42.5c9.3,0,17,2,20.4,3.7l-2.5,8.5c-4.2-2-9.9-3.4-18.1-3.4c-19.8,0-32.9,12.5-32.9,32.9
			C11.8,66.8,24.3,79,43.3,79c6.8,0,11.6-0.8,14.2-2.3V52.4H40.7v-8.5h26.9v39.7H67.9z"/>
	</g>
	<g>
		<path class="st0" d="M137.3,57.5c0,21.8-15,31.2-29.2,31.2c-15.9,0-28-11.6-28-30.3c0-19.5,12.7-31.2,29.2-31.2
			C126,27.2,137.3,39.3,137.3,57.5z M90.9,58c0,12.7,7.4,22.7,17.8,22.7c10.2,0,17.8-9.6,17.8-22.7c0-9.9-5.1-22.7-17.6-22.7
			S90.9,46.7,90.9,58z"/>
	</g>
	<g>
		<path class="st0" d="M203.9,57.5c0,21.8-15,31.2-29.2,31.2c-15.9,0-28-11.6-28-30.3c0-19.5,12.7-31.2,29.2-31.2
			C192.6,27.2,203.9,39.3,203.9,57.5z M157.4,58c0,12.7,7.4,22.7,17.8,22.7c10.2,0,17.8-9.6,17.8-22.7c0-9.9-5.1-22.7-17.6-22.7
			C163.1,35.4,157.4,46.7,157.4,58z"/>
	</g>
	<g>
		<path class="st0" d="M268.2,1.1v70.8c0,5.1,0,11,0.6,15.3h-9.6L258.6,77h-0.3c-3.4,6.5-10.5,11.6-20.1,11.6
			C224,88.6,213,76.7,213,58.9c0-19.5,11.9-31.4,26.3-31.4c9.1,0,15,4.2,17.8,9.1h0.3V1.1H268.2z M257.4,52.4c0-1.4,0-3.1-0.6-4.5
			c-1.7-6.8-7.4-12.5-15.3-12.5c-11,0-17.6,9.6-17.6,22.7c0,11.9,5.9,21.8,17.3,21.8c7.1,0,13.6-4.8,15.6-12.7
			c0.3-1.4,0.6-2.8,0.6-4.5V52.4z"/>
	</g>
	<g>
		<path class="st0" d="M311.8,6.5c5.4-1.1,13-1.7,20.1-1.7c11.3,0,18.7,2,23.5,6.8c4.2,3.7,6.5,9.3,6.5,15.6
			c0,10.8-6.8,17.8-15.3,21v0.3c6.2,2.3,10.2,7.9,11.9,16.4c2.5,11.3,4.5,19.3,6.2,22.4h-11c-1.4-2.3-3.1-9.3-5.4-19.5
			c-2.5-11.3-6.8-15.6-16.4-15.9H322v35.4h-10.5V6.5H311.8z M322.3,43.9h10.8c11.3,0,18.4-6.2,18.4-15.6c0-10.5-7.6-15.3-18.7-15.3
			c-5.1,0-8.8,0.6-10.5,0.8C322.3,13.8,322.3,43.9,322.3,43.9z"/>
	</g>
	<g>
		<path class="st0" d="M383.2,59.7c0.3,14.4,9.3,20.4,20.1,20.4c7.6,0,12.2-1.4,16.1-3.1l1.7,7.6c-3.7,1.7-10.2,3.7-19.5,3.7
			c-18.1,0-28.9-11.9-28.9-29.5s10.5-31.7,27.5-31.7c19.3,0,24.4,17,24.4,27.8c0,2.3-0.3,4-0.3,5.1h-41.1V59.7z M414.4,52.1
			c0-6.8-2.8-17.3-14.7-17.3c-10.8,0-15.6,9.9-16.4,17.3H414.4z"/>
	</g>
	<g>
		<path class="st0" d="M470.5,87.2l-0.8-7.4h-0.3c-3.4,4.5-9.6,8.8-17.8,8.8c-11.9,0-17.8-8.5-17.8-17c0-14.2,12.7-21.8,35.4-21.8
			v-1.1c0-4.8-1.4-13.6-13.3-13.6c-5.4,0-11,1.7-15.3,4.2l-2.5-7.1c4.8-3.1,11.9-5.1,19.3-5.1c17.8,0,22.4,12.2,22.4,24.1v21.8
			c0,5.1,0.3,10.2,0.8,14.2H470.5z M468.8,57.2c-11.6-0.3-24.9,1.7-24.9,13.3c0,6.8,4.5,10.2,10.2,10.2c7.6,0,12.5-4.8,14.2-9.9
			c0.3-1.1,0.6-2.3,0.6-3.4V57.2z"/>
	</g>
	<g>
		<path class="st0" d="M547.3,1.1v70.8c0,5.1,0,11,0.6,15.3h-9.6L537.6,77h-0.3c-3.4,6.5-10.5,11.6-20.1,11.6
			c-14.2,0-25.2-11.9-25.2-29.7c0-19.5,11.9-31.4,26.3-31.4c9.1,0,15,4.2,17.8,9.1h0.3V1.1H547.3z M536.5,52.4c0-1.4,0-3.1-0.6-4.5
			c-1.7-6.8-7.4-12.5-15.3-12.5c-11,0-17.6,9.6-17.6,22.7c0,11.9,5.9,21.8,17.3,21.8c7.1,0,13.6-4.8,15.6-12.7
			c0.3-1.4,0.6-2.8,0.6-4.5V52.4L536.5,52.4z"/>
	</g>
	<g>
		<path class="st0" d="M563.4,76.2c3.1,2,8.8,4.2,14.2,4.2c7.6,0,11.3-4,11.3-8.8c0-5.1-3.1-7.9-11-10.8
			c-10.5-3.7-15.6-9.6-15.6-16.7c0-9.3,7.6-17.3,20.1-17.3c5.9,0,11,1.7,14.4,3.7l-2.5,7.6c-2.3-1.4-6.5-3.4-11.9-3.4
			c-6.2,0-9.9,3.7-9.9,7.9c0,4.8,3.4,7.1,11,9.9c10.2,4,15.3,9.1,15.3,17.8c0,10.2-7.9,17.6-21.8,17.6c-6.5,0-12.5-1.7-16.4-4
			L563.4,76.2z"/>
	</g>
	<g>
		<path class="st0" d="M41.5,143.3c-0.3-6.2-0.8-13.7-0.6-19.3h-0.3c-1.5,5.2-3.4,10.8-5.6,17l-7.9,21.6h-4.3l-7.2-21.1
			c-2.2-6.3-3.9-12-5.1-17.3h-0.2c-0.2,5.6-0.5,13-0.9,19.7l-1.2,19H2.7l3.1-44.6h7.4l7.6,21.6c1.9,5.6,3.4,10.3,4.5,15h0.2
			c1.1-4.5,2.8-9.4,4.6-15l7.9-21.6h7.4l2.8,44.6h-5.6L41.5,143.3z"/>
	</g>
	<g>
		<path class="st0" d="M75,162.9l-0.5-4h-0.2c-1.9,2.5-5.2,4.8-9.7,4.8c-6.5,0-9.7-4.6-9.7-9.3c0-7.7,6.9-11.9,19.3-11.9v-0.6
			c0-2.6-0.8-7.4-7.2-7.4c-2.9,0-6,0.9-8.3,2.3l-1.4-3.9c2.6-1.7,6.5-2.8,10.5-2.8c9.7,0,12.2,6.6,12.2,13.1v11.9
			c0,2.8,0.2,5.6,0.5,7.7H75z M74,146.5c-6.3-0.2-13.6,0.9-13.6,7.2c0,3.7,2.5,5.6,5.6,5.6c4.2,0,6.8-2.6,7.7-5.4
			c0.2-0.6,0.3-1.2,0.3-1.9L74,146.5L74,146.5z"/>
	</g>
	<g>
		<path class="st0" d="M94.9,145.6L94.9,145.6c0.9-1.1,2-2.5,2.9-3.7l9.4-10.9h6.9L101.8,144l14,18.8h-7.1l-10.9-15.3l-2.9,3.2v12
			h-5.7V116h5.7V145.6z"/>
	</g>
	<g>
		<path class="st0" d="M123.2,147.9c0.2,7.9,5.1,11.1,10.9,11.1c4.2,0,6.6-0.8,8.8-1.7l0.9,4.2c-2,0.9-5.6,2-10.6,2
			c-9.9,0-15.7-6.5-15.7-16c0-9.6,5.7-17.3,15-17.3c10.5,0,13.3,9.3,13.3,15.1c0,1.2-0.2,2.2-0.2,2.8h-22.4V147.9z M140.4,143.7
			c0-3.7-1.5-9.4-8-9.4c-5.9,0-8.5,5.4-8.9,9.4H140.4z"/>
	</g>
	<g>
		<g>
			<path class="st0" d="M174.5,120.9v8.9h7.9v4.2h-7.9v16.5c0,3.9,1.1,6,4.2,6c1.5,0,2.6-0.2,3.2-0.3l0.3,4.2
				c-1.1,0.5-2.8,0.8-5,0.8c-2.6,0-4.7-0.8-6-2.4c-1.6-1.6-2.1-4.4-2.1-7.9V134h-4.9v-4.2h4.7v-7.5L174.5,120.9z"/>
		</g>
		<g>
			<path class="st0" d="M189,115.4h5.7v19.1h0.2c0.8-1.6,2.3-2.9,4.1-3.9c1.6-1,3.6-1.6,5.7-1.6c4.1,0,10.7,2.6,10.7,13.1v18.3h-5.7
				v-17.7c0-5-1.8-9.1-7.1-9.1c-3.6,0-6.5,2.6-7.5,5.7c-0.3,0.8-0.3,1.6-0.3,2.6v18.6H189V115.4z"/>
		</g>
		<g>
			<path class="st0" d="M227.4,146.2c0.2,7.6,5,10.7,10.5,10.7c4.1,0,6.5-0.6,8.6-1.6l1,4.1c-1.9,0.8-5.3,1.9-10.2,1.9
				c-9.4,0-15.1-6.2-15.1-15.6c0-9.4,5.5-16.5,14.4-16.5c10,0,12.6,8.9,12.6,14.4c0,1.1-0.2,2.1-0.2,2.6
				C249.1,146.2,227.4,146.2,227.4,146.2z M243.7,142.2c0-3.6-1.5-9.1-7.8-9.1c-5.7,0-8.1,5.2-8.6,9.1H243.7z"/>
		</g>
		<g>
			<path class="st0" d="M269.7,118.3c3.4-0.5,7.5-0.8,11.8-0.8c7.9,0,13.6,1.8,17.3,5.3c3.9,3.6,6,8.4,6,15.4s-2.1,12.6-6.2,16.7
				c-4.1,4.1-10.7,6.2-19,6.2c-3.9,0-7.3-0.2-10-0.5V118.3z M275.2,156.1c1.5,0.3,3.4,0.3,5.7,0.3c11.8,0,18.3-6.6,18.3-18.2
				c0-10-5.7-16.5-17.3-16.5c-2.9,0-5,0.3-6.5,0.6v33.7H275.2z"/>
		</g>
		<g>
			<path class="st0" d="M311.8,139.4c0-3.6,0-6.8-0.3-9.6h4.9l0.2,6h0.5c1.5-4.1,4.7-6.8,8.6-6.8c0.6,0,1.1,0,1.6,0.2v5.3
				c-0.6-0.2-1.1-0.2-1.9-0.2c-3.9,0-6.8,2.9-7.5,7.1c-0.2,0.8-0.3,1.6-0.3,2.6v16.4H312v-21.1H311.8z"/>
		</g>
		<g>
			<path class="st0" d="M335.1,146.2c0.2,7.6,5,10.7,10.5,10.7c4.1,0,6.5-0.6,8.6-1.6l1,4.1c-1.9,0.8-5.3,1.9-10.2,1.9
				c-9.4,0-15.1-6.2-15.1-15.6c0-9.4,5.5-16.5,14.4-16.5c10,0,12.6,8.9,12.6,14.4c0,1.1-0.2,2.1-0.2,2.6
				C356.8,146.2,335.1,146.2,335.1,146.2z M351.5,142.2c0-3.6-1.5-9.1-7.8-9.1c-5.7,0-8.1,5.2-8.6,9.1H351.5z"/>
		</g>
		<g>
			<path class="st0" d="M380.8,160.6l-0.5-3.9h-0.2c-1.8,2.4-5,4.5-9.4,4.5c-6.2,0-9.4-4.4-9.4-8.9c0-7.5,6.6-11.5,18.5-11.5v-0.6
				c0-2.6-0.6-7.1-7-7.1c-2.9,0-5.8,0.8-7.9,2.3l-1.3-3.7c2.6-1.6,6.2-2.8,10-2.8c9.4,0,11.7,6.5,11.7,12.6V153
				c0,2.6,0.2,5.3,0.5,7.5h-5V160.6z M380,144.9c-6.2-0.2-13,1-13,7c0,3.6,2.4,5.3,5.3,5.3c4.1,0,6.5-2.6,7.5-5.2
				c0.2-0.6,0.3-1.1,0.3-1.8v-5.3H380z"/>
		</g>
		<g>
			<path class="st0" d="M394.4,138.1c0-3.2,0-5.8-0.3-8.3h4.9l0.3,5h0.2c1.8-2.9,4.5-5.7,9.7-5.7c4.2,0,7.5,2.6,8.8,6.2h0.2
				c1-1.8,2.1-3.1,3.4-4.1c1.8-1.5,3.9-2.1,6.8-2.1c4.1,0,10,2.6,10,13.3v18.2h-5.5v-17.5c0-5.8-2.1-9.4-6.6-9.4
				c-3.2,0-5.7,2.4-6.6,5c-0.3,0.8-0.5,1.8-0.5,2.8v19h-5.5v-18.3c0-4.9-2.1-8.4-6.5-8.4c-3.6,0-6,2.8-7,5.7
				c-0.3,0.8-0.5,1.8-0.5,2.8v18.6h-5.5v-22.7H394.4z"/>
		</g>
		<g>
			<path class="st0" d="M446.8,154.8c1.6,1.1,4.5,2.3,7.5,2.3c4.1,0,6-2.1,6-4.5c0-2.6-1.6-4.1-5.7-5.7c-5.5-1.9-8.1-5-8.1-8.8
				c0-5,4.1-9.1,10.7-9.1c3.1,0,5.8,0.8,7.6,1.9l-1.5,4.1c-1.1-0.8-3.4-1.8-6.3-1.8c-3.2,0-5.2,1.9-5.2,4.2c0,2.6,1.8,3.7,5.8,5.2
				c5.3,2.1,8.1,4.7,8.1,9.2c0,5.3-4.2,9.2-11.5,9.2c-3.4,0-6.5-0.8-8.6-2.1L446.8,154.8z"/>
		</g>
	</g>
	<g>
		<g>
			<path class="st0" d="M73.4,264.2c-4.3,2.3-12.9,4.3-24,4.3c-25.9,0-45.1-16.3-45.1-46.3c-0.2-28.4,19.3-47.9,47.6-47.9
				c11.3,0,18.6,2.5,21.8,4.1l-2.9,9.5c-4.5-2.3-10.9-3.9-18.4-3.9c-21.3,0-35.6,13.6-35.6,37.7c0,22.5,12.9,36.8,35.2,36.8
				c7.3,0,14.5-1.6,19.3-3.9L73.4,264.2z"/>
		</g>
		<g>
			<path class="st0" d="M145.7,234.1c0,24.3-16.8,34.9-32.7,34.9c-17.7,0-31.5-12.9-31.5-33.8c0-22,14.3-34.9,32.4-34.9
				C132.8,200.3,145.7,213.9,145.7,234.1z M93.6,234.7c0,14.3,8.2,25.2,20,25.2c11.3,0,20-10.7,20-25.4c0-11.1-5.7-25.2-19.7-25.2
				S93.6,222.3,93.6,234.7z"/>
		</g>
		<g>
			<path class="st0" d="M160.7,219.5c0-6.8-0.2-12.3-0.5-17.7h10.4l0.5,10.7h0.5c3.6-6.1,9.8-12,20.6-12c8.8,0,15.7,5.4,18.6,13.2
				h0.2c2-3.6,4.5-6.6,7.3-8.6c3.9-2.9,8.2-4.5,14.5-4.5c8.6,0,21.6,5.7,21.6,28.6v38.6h-11.6v-37.2c0-12.7-4.5-20.2-14.3-20.2
				c-6.8,0-12,5-14.1,10.9c-0.5,1.6-0.9,3.9-0.9,5.9v40.4H202v-39.3c0-10.4-4.5-18.2-13.6-18.2c-7.5,0-12.9,5.9-14.7,12
				c-0.7,1.8-0.9,3.9-0.9,5.9v39.5h-11.6v-47.9H160.7z"/>
		</g>
		<g>
			<path class="st0" d="M280.5,236.8c0.2,16.1,10.7,22.7,22.5,22.7c8.6,0,13.6-1.6,18.2-3.4l2,8.6c-4.3,1.8-11.3,4.1-21.8,4.1
				c-20.2,0-32.2-13.4-32.2-33.1s11.6-35.4,30.9-35.4c21.3,0,27.2,18.8,27.2,30.9c0,2.5-0.2,4.3-0.5,5.7
				C326.8,236.8,280.5,236.8,280.5,236.8z M315.4,228.2c0.2-7.5-3.2-19.3-16.6-19.3c-12,0-17.5,11.1-18.4,19.3H315.4z"/>
		</g>
		<g>
			<path class="st0" d="M382.8,186h-27.9v-10h67.6v10h-27.9v81.4h-12V186H382.8z"/>
		</g>
		<g>
			<path class="st0" d="M426.2,222.3c0-7.7-0.2-14.3-0.5-20.4h10.4l0.5,12.9h0.5c2.9-8.8,10.2-14.3,18.2-14.3c1.4,0,2.3,0.2,3.4,0.5
				v11.3c-1.1-0.2-2.5-0.5-4.1-0.5c-8.4,0-14.3,6.4-16.1,15.4c-0.2,1.6-0.5,3.6-0.5,5.7v34.5h-11.8V222.3z"/>
		</g>
		<g>
			<path class="st0" d="M525.5,249.5c0,6.8,0.2,12.7,0.5,17.9h-10.7l-0.7-10.7h-0.2c-3.2,5.2-10,12.3-21.8,12.3
				c-10.2,0-22.7-5.7-22.7-28.8v-38.6h12v36.3c0,12.5,3.9,20.9,14.7,20.9c7.9,0,13.6-5.7,15.7-10.9c0.7-1.8,1.1-3.9,1.1-6.1v-40.2
				h12L525.5,249.5L525.5,249.5z"/>
		</g>
		<g>
			<path class="st0" d="M552.1,236.8c0.2,16.1,10.7,22.7,22.5,22.7c8.6,0,13.6-1.6,18.2-3.4l2,8.6c-4.3,1.8-11.3,4.1-21.8,4.1
				c-20.2,0-32.2-13.4-32.2-33.1s11.6-35.4,30.9-35.4c21.3,0,27.2,18.8,27.2,30.9c0,2.5-0.2,4.3-0.5,5.7
				C598.4,236.8,552.1,236.8,552.1,236.8z M587,228.2c0.2-7.5-3.2-19.3-16.6-19.3c-12,0-17.5,11.1-18.4,19.3H587z"/>
		</g>
	</g>
	<g>
		<path class="st0" d="M109.8,83.5c-0.3,0-16.4-7.4-16.4-24.9s16.1-24.6,16.4-24.9l0.6,1.4c-0.3,0-15.3,7.1-15.3,23.5
			s15.3,23.2,15.3,23.5L109.8,83.5z"/>
	</g>
	<g>
		<path class="st0" d="M115.2,83c-0.3,0-17.3-6.8-17.3-24.1s17.8-24.6,17.8-24.9l0.6,1.4c-0.3,0-17,7.1-17,23.5s15.9,22.7,16.1,22.7
			L115.2,83z"/>
	</g>
	<g>
		<path class="st0" d="M522.3,83.5c-0.3,0-16.4-7.4-16.4-24.9S522,34,522.3,33.7l0.6,1.4c-0.3,0-15.3,7.1-15.3,23.5
			s15.3,23.2,15.3,23.5L522.3,83.5z"/>
	</g>
	<g>
		<path class="st0" d="M527.7,83c-0.3,0-17.3-6.8-17.3-24.1s17.8-24.6,17.8-24.9l0.6,1.4c-0.3,0-17,7.1-17,23.5s15.9,22.7,16.1,22.7
			L527.7,83z"/>
	</g>
	<g>
		<path class="st0" d="M133.6,160.8c-0.2,0-8.9-4-8.9-13.6c0-9.6,8.8-13.4,8.9-13.6l0.3,0.8c-0.2,0-8.3,3.9-8.3,12.8
			c0,8.9,8.3,12.6,8.3,12.8L133.6,160.8z"/>
	</g>
	<g>
		<path class="st0" d="M136.5,160.5c-0.2,0-9.4-3.7-9.4-13.1s9.7-13.4,9.7-13.6l0.3,0.8c-0.2,0-9.3,3.9-9.3,12.8
			c0,8.9,8.6,12.3,8.8,12.3L136.5,160.5z"/>
	</g>
	<g>
		<path class="st0" d="M176.4,83.5c-0.3,0-16.4-7.4-16.4-24.9s16.1-24.6,16.4-24.9l0.6,1.4c-0.3,0-15.3,7.1-15.3,23.5
			S177,81.8,177,82.1L176.4,83.5z"/>
	</g>
	<g>
		<path class="st0" d="M181.8,83c-0.3,0-17.3-6.8-17.3-24.1s17.8-24.6,17.8-24.9l0.6,1.4c-0.3,0-17,7.1-17,23.5s15.9,22.7,16.1,22.7
			L181.8,83z"/>
	</g>
	<g>
		<path class="st0" d="M115.6,264.5c-0.2,0-18.8-8.6-18.8-28.8s18.8-28.6,18.8-28.8l0.7,1.6c-0.2,0-17.9,8.2-17.9,27
			s17.7,27,17.9,27L115.6,264.5z"/>
	</g>
	<g>
		<path class="st0" d="M121.7,263.6c-0.2,0-20-7.7-20-27.9s20.4-28.6,20.6-28.8l0.7,1.6c-0.2,0-19.5,8.2-19.5,27
			s18.6,26.1,18.6,26.1L121.7,263.6z"/>
	</g>
	<g>
		<path class="st0" d="M575,264.5c-0.2,0-18.8-8.6-18.8-28.8s18.8-28.6,18.8-28.8l0.7,1.6c-0.2,0-17.9,8.2-17.9,27s17.7,27,17.9,27
			L575,264.5z"/>
	</g>
	<g>
		<path class="st0" d="M581.1,263.6c-0.2,0-20-7.7-20-27.9s20.4-28.6,20.6-28.8l0.7,1.6c-0.2,0-19.5,8.2-19.5,27
			s18.6,26.1,18.6,26.1L581.1,263.6z"/>
	</g>
	<g>
		<path class="st0" d="M242.1,83.5c-0.3,0-16.4-7.4-16.4-24.9s16.1-24.6,16.4-24.9l0.6,1.4c-0.3,0-15.3,7.1-15.3,23.5
			s15.3,23.2,15.3,23.5L242.1,83.5z"/>
	</g>
	<g>
		<path class="st0" d="M247.2,83C247,83,230,76.2,230,58.9s17.8-24.6,17.8-24.9l0.6,1.4c-0.3,0-17,7.1-17,23.5s15.9,22.7,16.1,22.7
			L247.2,83z"/>
	</g>
	<g>
		<path class="st0" d="M458.9,84.7c0,0-11.6-4.5-11.6-14.7s11.3-14.7,11.6-14.7l0.3,0.8c0,0-10.8,4.2-10.8,13.9s10.8,13.6,10.8,13.9
			L458.9,84.7z"/>
	</g>
	<g>
		<path class="st0" d="M462.5,84.1c0,0-12.2-4-12.2-14.2s12.5-14.7,12.7-14.7l0.3,0.8c0,0-11.9,4.2-11.9,13.6
			c0,9.6,11.3,13.3,11.3,13.3L462.5,84.1z"/>
	</g>
	<g>
		<rect x="69" y="44.7" class="st0" width="1.7" height="38"/>
	</g>
	<g>
		<rect x="175.7" y="121.2" class="st0" width="1" height="37.1"/>
	</g>
	<g>
		<rect x="195.4" y="116.5" class="st0" width="1" height="44.1"/>
	</g>
	<g>
		<rect x="277.1" y="120.1" class="st0" width="0.8" height="40.5"/>
	</g>
	<g>
		<rect x="279.2" y="120.1" class="st0" width="0.8" height="40.5"/>
	</g>
	<g>
		<rect x="175.2" y="210.7" class="st0" width="1.1" height="56.7"/>
	</g>
	<g>
		<rect x="178.2" y="210.7" class="st0" width="1.1" height="56.7"/>
	</g>
	<g>
		<rect x="215.6" y="210.7" class="st0" width="1.1" height="56.7"/>
	</g>
	<g>
		<rect x="218.6" y="210.7" class="st0" width="1.1" height="56.7"/>
	</g>
	<g>
		<rect x="484.9" y="201.4" class="st0" width="1.4" height="61.3"/>
	</g>
	<g>
		<rect x="487.9" y="201.4" class="st0" width="1.4" height="61.3"/>
	</g>
	<g>
		<rect x="527.6" y="201.4" class="st0" width="1.4" height="61.3"/>
	</g>
	<g>
		<rect x="530.8" y="201.4" class="st0" width="1.4" height="61.3"/>
	</g>
	<g>
		<rect x="401.1" y="132.8" class="st0" width="0.6" height="27.9"/>
	</g>
	<g>
		<rect x="403.2" y="132.8" class="st0" width="0.6" height="27.9"/>
	</g>
	<g>
		<rect x="420.5" y="132.8" class="st0" width="0.6" height="27.9"/>
	</g>
	<g>
		<rect x="422.6" y="132.8" class="st0" width="0.6" height="27.9"/>
	</g>
	<g>
		<rect x="216" y="139.9" class="st0" width="1" height="20.7"/>
	</g>
</g>
</svg>
