<?xml version="1.0" encoding="UTF-8"?><svg id="Layer_2" xmlns="http://www.w3.org/2000/svg" viewBox="0 0 933.01 274.47"><defs><style>.cls-1{fill:#fff;}</style></defs><g id="Layer_1-2"><path class="cls-1" d="m434.34,149.07v123.98h-10.4v-6.55h-97.76v6.55h-10.11v-123.98h118.29-.01Zm-10.4,107.87v-98.19h-97.76v98.18h97.76Zm-35.92-21.09c9.98,3.56,21.38,8.41,27.93,12.82l-8.55,3.99c-5.84-3.99-16.1-9.12-26.08-12.69l6.13-4.14h-26.94l7.7,2.42c-7.13,5.41-18.39,10.97-27.79,14.25-1.42-1.56-4.56-4.56-6.41-5.99,9.4-2.85,19.53-6.55,25.79-10.69h-18.81v-43.75h67.98v43.75h-20.95.01Zm15.25-49.02h-56.16v-20.09h56.16v20.09Zm-53.16,17.81h49.46v-6.55h-49.46v6.55Zm0,12.4h49.46v-6.55h-49.46v6.55Zm0,12.69h49.46v-6.84h-49.46v6.84Zm43.89-57h-38.05v8.12h38.05v-8.12Z"/><path class="cls-1" d="m507.45,145.93c-3.14,9.4-6.99,18.81-11.4,27.65v99.18h-10.11v-80.94c-4.41,6.99-8.98,13.4-13.83,18.81-.85-2.28-3.7-8.12-5.56-10.69,12.69-13.82,24.08-35.2,31.21-56.71l9.69,2.71h0Zm87.65,5.27v120.13h-10.12v-7.26h-62.71v8.41h-9.84v-121.27h82.66Zm-10.12,103.45v-94.19h-62.71v94.19h62.71Zm-26.79-65.4v15.67h16.39v37.9h-40.62v-37.9h15.54v-15.67h-21.38v-8.12h21.38v-16.1h8.69v16.1h21.95v8.12h-21.95Zm7.98,23.65h-24.08v22.09h24.08v-22.09Z"/><path class="cls-1" d="m680.89,182.56c-.43,15.96-2.56,35.2-11.98,54.01,7.13,6.27,13.68,12.25,17.95,17.24l-6.99,8.84c-3.99-4.85-9.84-10.69-16.39-16.81-6.27,9.55-14.96,18.81-26.5,27.21-1.56-2.28-5.27-5.7-7.41-7.26,11.69-8.26,20.09-17.53,26.08-26.94-7.55-6.7-15.68-13.25-22.94-18.81,2.85-9.26,5.84-21.95,8.69-35.2l-11.26.57-1.14-10.11c4.14-.14,8.98-.43,14.25-.57,2-10.83,3.56-22.09,4.56-31.78l10.4.57c-1.14,9.55-2.85,20.24-4.7,30.78l17.39-1v-10.4h9.98v9.84l8.26-.43-.14,9.69-8.12.57h0Zm-29.22,1.71c-2.28,11.54-4.99,22.94-7.41,32.2,5.41,4.14,11.11,8.55,16.53,13.25,7.84-16.25,9.69-32.78,9.97-46.6l-19.09,1.14h0Zm107.74,28.5h-31.35v47.31c0,6.27-1.56,9.26-5.99,10.97-4.41,1.56-11.26,1.85-22.38,1.71-.57-2.99-2.28-7.13-3.85-10.11,8.41.29,16.25.29,18.39.14,2.28,0,3.14-.71,3.14-2.71v-47.31h-32.92v-10.11h32.92v-16.25c7.26-5.99,14.97-15.25,20.8-23.51h-47.46v-9.84h54.72l2.42-.57,7.26,5.27c-6.99,10.55-17.1,22.51-27.08,31.21v13.68h31.35v10.11h.01Z"/><path class="cls-1" d="m832.81,161.03h-41.04v-9.26h41.04v-9.11h10.4v25.94h-10.4v-7.55h0Zm-39.9,47.16h122.56v23.65h-10.4v-15.1h-102.19v15.1h-9.98v-23.65Zm94.63,16.39l6.55,4.28c-16.68,26.94-56.43,38.76-94.06,43.04-.71-2.56-2.85-6.99-4.56-9.26,16.82-1.42,34.34-4.7,49.59-9.97-5.27-4.56-12.69-10.11-19.53-14.11-3.7,1.85-7.84,3.56-12.4,4.99-1.43-2.28-4.27-5.84-6.41-7.26,16.53-4.85,27.93-11.97,33.92-19.38l10.55,2.28c-1.71,2.14-3.42,3.99-5.27,5.84h39.62l2-.43h.01Zm-82.8-53.01h100.9v29.64h-100.9v-29.64Zm9.55,22.09h20.53v-14.68h-20.53v14.68Zm19.24,40.61c7.55,4.27,15.82,10.11,20.8,14.82,9.69-4.41,18.1-9.69,24.23-16.25h-42.75l-2.28,1.42Zm10.4-40.61h21.24v-14.68h-21.24v14.68Zm72.11-41.9v9.12h-40.48v7.7h-10.4v-25.93h10.4v9.12h40.48v-.02Zm-41.75,41.9h21.38v-14.68h-21.38v14.68Z"/><rect class="cls-1" x="449.79" y="150.81" width="1" height="122.23"/><rect class="cls-1" x="443.36" y="150.81" width="2" height="122.23"/><rect class="cls-1" x="436.92" y="150.81" width="3" height="122.23"/><rect class="cls-1" x="610.77" y="150.81" width="1" height="122.23"/><rect class="cls-1" x="604.33" y="150.81" width="2" height="122.23"/><rect class="cls-1" x="597.89" y="150.81" width="3" height="122.23"/><rect class="cls-1" x="931.08" y="207.56" width="1" height="24.29"/><rect class="cls-1" x="924.65" y="207.56" width="2" height="24.29"/><rect class="cls-1" x="918.21" y="207.56" width="3" height="24.29"/><rect class="cls-1" x="922.14" y="171.58" width="1" height="29.64"/><rect class="cls-1" x="915.71" y="171.58" width="2" height="29.64"/><rect class="cls-1" x="909.27" y="171.58" width="3" height="29.64"/><rect class="cls-1" x="932.01" y="151.28" width="1" height="9.56"/><rect class="cls-1" x="925.57" y="151.28" width="2" height="9.56"/><rect class="cls-1" x="919.14" y="151.28" width="3" height="9.56"/><rect class="cls-1" x="890.84" y="142.66" width="1" height="25.94"/><rect class="cls-1" x="884.4" y="142.66" width="2" height="25.94"/><rect class="cls-1" x="877.96" y="142.66" width="3" height="25.94"/><rect class="cls-1" x="858.52" y="142.66" width="1" height="25.94"/><rect class="cls-1" x="852.08" y="142.66" width="2" height="25.94"/><rect class="cls-1" x="845.64" y="142.66" width="3" height="25.94"/><rect class="cls-1" x="828.87" y="173.43" width="1" height="25.94"/><rect class="cls-1" x="822.43" y="173.43" width="2" height="25.94"/><rect class="cls-1" x="815.99" y="173.43" width="3" height="25.94"/><rect class="cls-1" x="818.65" y="210.4" width="1" height="21.45"/><rect class="cls-1" x="812.21" y="210.4" width="2" height="21.45"/><rect class="cls-1" x="805.78" y="210.4" width="3" height="21.45"/><polygon class="cls-1" points="513.27 273.04 512.27 273.04 512.27 175.33 523.86 148.87 524.77 149.27 513.27 175.54 513.27 273.04"/><polygon class="cls-1" points="507.84 273.04 505.84 273.04 505.84 175.22 517.46 148.67 519.29 149.47 507.84 175.64 507.84 273.04"/><polygon class="cls-1" points="502.4 273.04 499.4 273.04 499.4 175.12 511.06 148.47 513.81 149.67 502.4 175.75 502.4 273.04"/><rect class="cls-1" x="342.91" y="150.81" width="1" height="122.23"/><rect class="cls-1" x="336.47" y="150.81" width="2" height="122.23"/><rect class="cls-1" x="330.03" y="150.81" width="3" height="122.23"/><path class="cls-1" d="m736.25,273.51l-.3-.96c2.83-.88,6.63-5.17,6.63-8.33v-74l.15-.15c.18-.18,18.52-18.18,26.48-29.52l.82.57c-7.63,10.87-24.67,27.75-26.45,29.51v73.58c0,3.6-4.13,8.29-7.34,9.29Z"/><path class="cls-1" d="m730.46,273.99l-.6-1.91c2.63-.82,6.29-4.93,6.29-7.85v-74.21l.3-.29c.18-.18,18.49-18.15,26.42-29.45l1.64,1.15c-7.48,10.65-23.93,27.03-26.36,29.43v73.38c0,3.9-4.3,8.71-7.69,9.76Z"/><path class="cls-1" d="m724.67,274.47l-.89-2.86c2.45-.76,5.93-4.71,5.93-7.38v-74.42l.45-.44c.18-.18,18.45-18.12,26.37-29.38l2.46,1.72c-7.46,10.63-23.33,26.45-26.27,29.35v73.17c0,4.16-4.42,9.11-8.04,10.24Z"/><path class="cls-1" d="m49.03,71.39c-5.84,1.85-11.69,3.7-17.39,5.41v41.33c0,5.7-1.43,8.69-4.99,10.4-3.7,1.42-9.4,1.71-18.81,1.71-.43-2.56-1.71-6.84-3.14-9.55,6.41.14,12.25.14,14.11.14,2,0,2.56-.71,2.56-2.71v-38.19c-6.7,2.14-12.96,4.14-18.67,5.84l-2.71-10.4c5.99-1.56,13.4-3.56,21.38-5.84v-31.06H1.71v-9.69h19.67V.29h10.26v28.5h15.82v9.69h-15.82v28.07l15.96-4.7,1.43,9.55h0Zm51.88,11.83c7.98,12.25,20.95,24.09,33.07,30.06-2.28,1.85-5.56,5.56-7.26,8.26-12.25-7.41-25.37-20.8-33.78-34.77v43.32h-9.98v-42.75c-9.55,14.39-23.94,27.5-37.77,34.34-1.71-2.42-4.7-5.99-6.99-7.84,13.54-5.99,27.93-17.95,36.92-30.64h-23.65v-45.89h31.49v-12.69h-35.63v-9.26h35.63V.29h9.98v15.1h36.34v9.26h-36.34v12.69h32.92v45.89h-24.94Zm-40.62-8.69h23.23v-28.79h-23.23v28.79Zm11.11-24.65c2.99,5.99,5.99,13.68,7.26,18.1l-6.27,2.99c-1.29-4.99-4.28-12.82-6.99-18.95l5.99-2.14h.01Zm45.47-4.14h-24.51v28.79h24.51v-28.79Zm-19.95,22.94c2.71-5.27,6.41-13.82,8.13-19.38l7.13,2.71c-3.28,6.55-6.84,13.96-9.84,19.1l-5.41-2.42h0Z"/><path class="cls-1" d="m243.99,40.61c10.26,24.09,28.21,46.6,47.88,57.71-2.71,2.28-6.41,6.13-8.12,8.98-21.09-13.25-39.48-38.9-50.17-66.69h-2v52.58h33.06v10.55h-33.06v26.5h-10.98v-26.5h-33.07v-10.55h33.07v-52.58h-2.28c-10.98,27.79-29.35,53.15-49.88,67.11-1.71-2.56-5.13-6.41-7.55-8.41,18.81-11.54,36.34-34.63,46.74-58.71h-43.04v-10.55h56.01V.29h10.98v29.79h56.43v10.55h-44.04.02Z"/><path class="cls-1" d="m372.25,40.19c-.43,15.96-2.56,35.2-11.98,54.01,7.13,6.27,13.68,12.25,17.95,17.24l-6.99,8.84c-3.99-4.85-9.84-10.69-16.39-16.81-6.27,9.55-14.97,18.81-26.51,27.21-1.56-2.28-5.27-5.7-7.41-7.26,11.69-8.26,20.09-17.53,26.08-26.94-7.55-6.7-15.68-13.25-22.94-18.81,2.85-9.26,5.84-21.95,8.69-35.2l-11.26.57-1.14-10.11c4.14-.14,8.98-.43,14.25-.57,2-10.83,3.56-22.09,4.56-31.78l10.4.57c-1.14,9.55-2.85,20.24-4.7,30.78l17.39-1v-10.4h9.98v9.84l8.26-.43-.14,9.69-8.13.57h.01Zm-29.22,1.71c-2.28,11.54-4.99,22.94-7.41,32.2,5.41,4.14,11.11,8.55,16.53,13.25,7.84-16.25,9.69-32.78,9.98-46.6l-19.09,1.14h0Zm107.74,28.5h-31.35v47.31c0,6.27-1.56,9.26-5.99,10.97-4.41,1.56-11.26,1.85-22.38,1.71-.57-2.99-2.28-7.13-3.85-10.11,8.41.29,16.25.29,18.39.14,2.28,0,3.14-.71,3.14-2.71v-47.31h-32.92v-10.11h32.92v-16.25c7.26-5.99,14.96-15.25,20.8-23.51h-47.46v-9.84h54.72l2.42-.57,7.26,5.27c-6.99,10.55-17.1,22.51-27.08,31.21v13.68h31.35v10.11h.01Z"/><path class="cls-1" d="m608.39,71.81v7.98h-125.98v-7.98h57.29v-8.41h-47.74v-7.13h47.74v-7.98h-43.61v-6.99h43.61v-8.26h-57.14v-7.98h57.14v-8.12h-42.18v-7.13h42.18V0h10.4v9.84h40.76v15.25h17.39v7.98h-17.39v15.25h-40.76v7.98h48.59v7.13h-48.59v8.41h58.28Zm-108.31,14.68h91.92v43.75h-10.4v-4.27h-71.26v4.56h-10.26v-44.04Zm10.26,7.41v8.69h63.42v6.99h-63.42v8.98h71.26v-24.65h-71.26Zm39.76-68.83h30.35v-8.12h-30.35v8.12Zm0,16.25h30.35v-8.26h-30.35v8.26Z"/><rect class="cls-1" x="140.86" y="37.43" width="1" height="45.56"/><rect class="cls-1" x="134.42" y="37.43" width="2" height="45.56"/><rect class="cls-1" x="127.98" y="37.43" width="3" height="45.56"/><rect class="cls-1" x="143.94" y="15.49" width="1" height="9.21"/><rect class="cls-1" x="137.5" y="15.49" width="2" height="9.21"/><rect class="cls-1" x="131.06" y="15.49" width="3" height="9.21"/><rect class="cls-1" x="303.25" y="29.98" width="1" height="10.77"/><rect class="cls-1" x="296.81" y="29.98" width="2" height="10.77"/><rect class="cls-1" x="290.37" y="29.98" width="3" height="10.77"/><rect class="cls-1" x="466.44" y="59.81" width="1" height="10.77"/><rect class="cls-1" x="460" y="59.81" width="2" height="10.77"/><rect class="cls-1" x="453.56" y="59.81" width="3" height="10.77"/><rect class="cls-1" x="107.48" y=".29" width="1" height="38.91"/><rect class="cls-1" x="101.04" y=".29" width="2" height="38.91"/><rect class="cls-1" x="94.6" y=".29" width="3" height="38.91"/><rect class="cls-1" x="247.47" y=".29" width="1" height="129.81"/><rect class="cls-1" x="241.03" y=".29" width="2" height="129.81"/><rect class="cls-1" x="234.59" y=".29" width="3" height="129.81"/><rect class="cls-1" x="606.09" y="11.57" width="1" height="13.51"/><rect class="cls-1" x="599.65" y="11.57" width="2" height="13.51"/><rect class="cls-1" x="593.22" y="11.57" width="3" height="13.51"/><rect class="cls-1" x="606.09" y="33.14" width="1" height="13.52"/><rect class="cls-1" x="599.65" y="33.14" width="2" height="13.52"/><rect class="cls-1" x="593.22" y="33.14" width="3" height="13.52"/><rect class="cls-1" x="608.14" y="86.5" width="1" height="44.03"/><rect class="cls-1" x="601.7" y="86.5" width="2" height="44.03"/><rect class="cls-1" x="595.26" y="86.5" width="3" height="44.03"/><rect class="cls-1" x="526.57" y="86.5" width="1" height="44.03"/><rect class="cls-1" x="520.13" y="86.5" width="2" height="44.03"/><rect class="cls-1" x="513.69" y="86.5" width="3" height="44.03"/><rect class="cls-1" x="565.85" y="11.04" width="1" height="62.91"/><rect class="cls-1" x="559.41" y="11.04" width="2" height="62.91"/><rect class="cls-1" x="552.97" y="11.04" width="3" height="62.91"/><rect class="cls-1" x="622.86" y="25.08" width="1" height="7.99"/><rect class="cls-1" x="616.42" y="25.08" width="2" height="7.99"/><rect class="cls-1" x="609.98" y="25.08" width="3" height="7.99"/><rect class="cls-1" x="614.65" y="55.71" width="1" height="7.99"/><rect class="cls-1" x="608.21" y="55.71" width="2" height="7.99"/><rect class="cls-1" x="601.78" y="55.71" width="3" height="7.99"/><rect class="cls-1" x="623.79" y="71.81" width="1" height="7.99"/><rect class="cls-1" x="617.35" y="71.81" width="2" height="7.99"/><rect class="cls-1" x="610.91" y="71.81" width="3" height="7.99"/><path class="cls-1" d="m427.99,131.14l-.3-.96c2.84-.88,6.64-5.17,6.64-8.33V47.85l.15-.15c.18-.18,18.52-18.18,26.48-29.52l.82.58c-7.63,10.86-24.67,27.75-26.45,29.51v73.58c0,3.6-4.13,8.29-7.34,9.29Z"/><path class="cls-1" d="m422.2,131.62l-.6-1.91c2.63-.82,6.29-4.93,6.29-7.85V47.64l.3-.29c.18-.18,18.48-18.15,26.42-29.45l1.64,1.15c-7.48,10.65-23.93,27.03-26.36,29.43v73.37c0,3.9-4.3,8.71-7.69,9.76Z"/><path class="cls-1" d="m416.41,132.1l-.89-2.86c2.45-.76,5.93-4.71,5.93-7.38V47.43l.45-.44c.18-.18,18.45-18.12,26.37-29.38l2.46,1.72c-7.46,10.63-23.33,26.45-26.27,29.35v73.16c0,4.16-4.42,9.11-8.04,10.24Z"/><rect class="cls-1" x="107.48" y="82.99" width="1" height="47.25"/><rect class="cls-1" x="101.04" y="82.99" width="2" height="47.25"/><rect class="cls-1" x="94.6" y="82.99" width="3" height="47.25"/></g></svg>