<?xml version="1.0" encoding="utf-8"?>
<!-- Generator: Adobe Illustrator 27.8.0, SVG Export Plug-In . SVG Version: 6.00 Build 0)  -->
<svg version="1.1" id="Layer_2_00000152249435195685492720000008050872028776498077_"
	 xmlns="http://www.w3.org/2000/svg" xmlns:xlink="http://www.w3.org/1999/xlink" x="0px" y="0px" viewBox="0 0 610.3 274.5"
	 style="enable-background:new 0 0 610.3 274.5;" xml:space="preserve">
<style type="text/css">
	.st0{fill:#FFFFFF;}
</style>
<g id="Layer_1-2">
	<path class="st0" d="M258.2,149.1v124h-10.4v-6.5h-97.8v6.5H140v-124H258.2L258.2,149.1L258.2,149.1z M247.8,256.9v-98.2h-97.8
		v98.2L247.8,256.9L247.8,256.9z M211.9,235.9c10,3.6,21.4,8.4,27.9,12.8l-8.5,4c-5.8-4-16.1-9.1-26.1-12.7l6.1-4.1h-26.9l7.7,2.4
		c-7.1,5.4-18.4,11-27.8,14.2c-1.4-1.6-4.6-4.6-6.4-6c9.4-2.9,19.5-6.6,25.8-10.7h-18.8v-43.8h68v43.8L211.9,235.9L211.9,235.9
		L211.9,235.9z M227.2,186.8H171v-20.1h56.2V186.8z M174,204.6h49.5v-6.6H174V204.6z M174,217h49.5v-6.6H174V217z M174,229.7h49.5
		v-6.8H174V229.7z M217.9,172.7h-38v8.1h38V172.7z"/>
	<path class="st0" d="M358.2,182.6c-0.4,16-2.6,35.2-12,54c7.1,6.3,13.7,12.2,18,17.2l-7,8.8c-4-4.9-9.8-10.7-16.4-16.8
		c-6.3,9.6-15,18.8-26.5,27.2c-1.6-2.3-5.3-5.7-7.4-7.3c11.7-8.3,20.1-17.5,26.1-26.9c-7.5-6.7-15.7-13.2-22.9-18.8
		c2.8-9.3,5.8-21.9,8.7-35.2l-11.3,0.6l-1.1-10.1c4.1-0.1,9-0.4,14.2-0.6c2-10.8,3.6-22.1,4.6-31.8l10.4,0.6
		c-1.1,9.6-2.8,20.2-4.7,30.8l17.4-1v-10.4h10v9.8l8.3-0.4l-0.1,9.7L358.2,182.6L358.2,182.6L358.2,182.6z M329,184.3
		c-2.3,11.5-5,22.9-7.4,32.2c5.4,4.1,11.1,8.6,16.5,13.2c7.8-16.2,9.7-32.8,10-46.6L329,184.3L329,184.3L329,184.3z M436.7,212.8
		h-31.3v47.3c0,6.3-1.6,9.3-6,11c-4.4,1.6-11.3,1.9-22.4,1.7c-0.6-3-2.3-7.1-3.8-10.1c8.4,0.3,16.2,0.3,18.4,0.1
		c2.3,0,3.1-0.7,3.1-2.7v-47.3h-32.9v-10.1h32.9v-16.2c7.3-6,15-15.2,20.8-23.5H368v-9.8h54.7l2.4-0.6l7.3,5.3
		c-7,10.6-17.1,22.5-27.1,31.2v13.7h31.3L436.7,212.8L436.7,212.8L436.7,212.8z"/>
	<path class="st0" d="M510.1,161h-41v-9.3h41v-9.1h10.4v25.9h-10.4V161L510.1,161L510.1,161z M470.2,208.2h122.6v23.6h-10.4v-15.1
		H480.2v15.1h-10L470.2,208.2L470.2,208.2z M564.8,224.6l6.5,4.3c-16.7,26.9-56.4,38.8-94.1,43c-0.7-2.6-2.8-7-4.6-9.3
		c16.8-1.4,34.3-4.7,49.6-10c-5.3-4.6-12.7-10.1-19.5-14.1c-3.7,1.9-7.8,3.6-12.4,5c-1.4-2.3-4.3-5.8-6.4-7.3
		c16.5-4.9,27.9-12,33.9-19.4l10.5,2.3c-1.7,2.1-3.4,4-5.3,5.8h39.6L564.8,224.6L564.8,224.6L564.8,224.6z M482,171.6h100.9v29.6
		H482V171.6z M491.6,193.7h20.5V179h-20.5V193.7z M510.8,234.3c7.5,4.3,15.8,10.1,20.8,14.8c9.7-4.4,18.1-9.7,24.2-16.2h-42.8
		L510.8,234.3L510.8,234.3z M521.2,193.7h21.2V179h-21.2V193.7z M593.3,151.8v9.1h-40.5v7.7h-10.4v-25.9h10.4v9.1L593.3,151.8
		L593.3,151.8L593.3,151.8z M551.6,193.7H573V179h-21.4V193.7z"/>
	<rect x="273.7" y="150.8" class="st0" width="1" height="122.2"/>
	<rect x="267.2" y="150.8" class="st0" width="2" height="122.2"/>
	<rect x="260.8" y="150.8" class="st0" width="3" height="122.2"/>
	<rect x="608.4" y="207.6" class="st0" width="1" height="24.3"/>
	<rect x="601.9" y="207.6" class="st0" width="2" height="24.3"/>
	<rect x="595.5" y="207.6" class="st0" width="3" height="24.3"/>
	<rect x="599.4" y="171.6" class="st0" width="1" height="29.6"/>
	<rect x="593" y="171.6" class="st0" width="2" height="29.6"/>
	<rect x="586.6" y="171.6" class="st0" width="3" height="29.6"/>
	<rect x="609.3" y="151.3" class="st0" width="1" height="9.6"/>
	<rect x="602.9" y="151.3" class="st0" width="2" height="9.6"/>
	<rect x="596.4" y="151.3" class="st0" width="3" height="9.6"/>
	<rect x="568.1" y="142.7" class="st0" width="1" height="25.9"/>
	<rect x="561.7" y="142.7" class="st0" width="2" height="25.9"/>
	<rect x="555.3" y="142.7" class="st0" width="3" height="25.9"/>
	<rect x="535.8" y="142.7" class="st0" width="1" height="25.9"/>
	<rect x="529.4" y="142.7" class="st0" width="2" height="25.9"/>
	<rect x="522.9" y="142.7" class="st0" width="3" height="25.9"/>
	<rect x="506.2" y="173.4" class="st0" width="1" height="25.9"/>
	<rect x="499.7" y="173.4" class="st0" width="2" height="25.9"/>
	<rect x="493.3" y="173.4" class="st0" width="3" height="25.9"/>
	<rect x="495.9" y="210.4" class="st0" width="1" height="21.4"/>
	<rect x="489.5" y="210.4" class="st0" width="2" height="21.4"/>
	<rect x="483.1" y="210.4" class="st0" width="3" height="21.4"/>
	<rect x="166.8" y="150.8" class="st0" width="1" height="122.2"/>
	<rect x="160.4" y="150.8" class="st0" width="2" height="122.2"/>
	<rect x="153.9" y="150.8" class="st0" width="3" height="122.2"/>
	<path class="st0" d="M413.5,273.5l-0.3-1c2.8-0.9,6.6-5.2,6.6-8.3v-74l0.2-0.1c0.2-0.2,18.5-18.2,26.5-29.5l0.8,0.6
		c-7.6,10.9-24.7,27.8-26.5,29.5v73.6C420.9,267.8,416.7,272.5,413.5,273.5L413.5,273.5z"/>
	<path class="st0" d="M407.8,274l-0.6-1.9c2.6-0.8,6.3-4.9,6.3-7.9V190l0.3-0.3c0.2-0.2,18.5-18.1,26.4-29.4l1.6,1.1
		c-7.5,10.6-23.9,27-26.4,29.4v73.4C415.4,268.1,411.1,272.9,407.8,274L407.8,274z"/>
	<path class="st0" d="M402,274.5l-0.9-2.9c2.5-0.8,5.9-4.7,5.9-7.4v-74.4l0.5-0.4c0.2-0.2,18.5-18.1,26.4-29.4l2.5,1.7
		c-7.5,10.6-23.3,26.4-26.3,29.4v73.2C410,268.4,405.6,273.3,402,274.5L402,274.5z"/>
	<path class="st0" d="M196.1,40.2c-0.4,16-2.6,35.2-12,54c7.1,6.3,13.7,12.2,18,17.2l-7,8.8c-4-4.8-9.8-10.7-16.4-16.8
		c-6.3,9.6-15,18.8-26.5,27.2c-1.6-2.3-5.3-5.7-7.4-7.3c11.7-8.3,20.1-17.5,26.1-26.9c-7.5-6.7-15.7-13.2-22.9-18.8
		c2.9-9.3,5.8-22,8.7-35.2L145.4,43l-1.1-10.1c4.1-0.1,9-0.4,14.2-0.6c2-10.8,3.6-22.1,4.6-31.8l10.4,0.6
		c-1.1,9.6-2.9,20.2-4.7,30.8l17.4-1V20.5h10v9.8l8.3-0.4l-0.1,9.7L196.1,40.2L196.1,40.2L196.1,40.2z M166.9,41.9
		c-2.3,11.5-5,22.9-7.4,32.2c5.4,4.1,11.1,8.6,16.5,13.2c7.8-16.2,9.7-32.8,10-46.6L166.9,41.9L166.9,41.9L166.9,41.9z M274.7,70.4
		h-31.4v47.3c0,6.3-1.6,9.3-6,11c-4.4,1.6-11.3,1.9-22.4,1.7c-0.6-3-2.3-7.1-3.9-10.1c8.4,0.3,16.2,0.3,18.4,0.1
		c2.3,0,3.1-0.7,3.1-2.7V70.4h-32.9V60.3h32.9V44c7.3-6,15-15.2,20.8-23.5H206v-9.8h54.7l2.4-0.6l7.3,5.3
		c-7,10.6-17.1,22.5-27.1,31.2v13.7h31.4L274.7,70.4L274.7,70.4L274.7,70.4z"/>
	<path class="st0" d="M432.3,71.8v8h-126v-8h57.3v-8.4h-47.7v-7.1h47.7v-8H320v-7h43.6V33h-57.1v-8h57.1v-8.1h-42.2V9.8h42.2V0H374
		v9.8h40.8v15.2h17.4v8h-17.4v15.2H374v8h48.6v7.1H374v8.4L432.3,71.8L432.3,71.8z M324,86.5h91.9v43.7h-10.4V126h-71.3v4.6H324
		L324,86.5L324,86.5z M334.2,93.9v8.7h63.4v7h-63.4v9h71.3V93.9L334.2,93.9L334.2,93.9z M374,25.1h30.3v-8.1H374V25.1z M374,41.3
		h30.3v-8.3H374V41.3z"/>
	<rect x="133.1" y="1.4" class="st0" width="1" height="126"/>
	<rect x="126.7" y="1.4" class="st0" width="2" height="126"/>
	<rect x="120.2" y="1.4" class="st0" width="3" height="126"/>
	<rect x="54.1" y="78.1" class="st0" width="1" height="12.8"/>
	<rect x="47.6" y="78.1" class="st0" width="2" height="12.8"/>
	<rect x="41.2" y="78.1" class="st0" width="3" height="12.8"/>
	<rect x="88.1" y="7" class="st0" width="1" height="33.8"/>
	<rect x="81.7" y="7" class="st0" width="2" height="33.8"/>
	<rect x="75.2" y="7" class="st0" width="3" height="33.8"/>
	<rect x="24" y="7" class="st0" width="1" height="122"/>
	<rect x="17.6" y="7" class="st0" width="2" height="122"/>
	<rect x="11.1" y="7" class="st0" width="3" height="122"/>
	<rect x="290.3" y="59.8" class="st0" width="1" height="10.8"/>
	<rect x="283.9" y="59.8" class="st0" width="2" height="10.8"/>
	<rect x="277.4" y="59.8" class="st0" width="3" height="10.8"/>
	<rect x="430" y="11.6" class="st0" width="1" height="13.5"/>
	<rect x="423.5" y="11.6" class="st0" width="2" height="13.5"/>
	<rect x="417.1" y="11.6" class="st0" width="3" height="13.5"/>
	<rect x="430" y="33.1" class="st0" width="1" height="13.5"/>
	<rect x="423.5" y="33.1" class="st0" width="2" height="13.5"/>
	<rect x="417.1" y="33.1" class="st0" width="3" height="13.5"/>
	<rect x="432" y="86.5" class="st0" width="1" height="44"/>
	<rect x="425.6" y="86.5" class="st0" width="2" height="44"/>
	<rect x="419.1" y="86.5" class="st0" width="3" height="44"/>
	<rect x="350.5" y="86.5" class="st0" width="1" height="44"/>
	<rect x="344" y="86.5" class="st0" width="2" height="44"/>
	<rect x="337.6" y="86.5" class="st0" width="3" height="44"/>
	<rect x="389.7" y="11" class="st0" width="1" height="62.9"/>
	<rect x="383.3" y="11" class="st0" width="2" height="62.9"/>
	<rect x="376.9" y="11" class="st0" width="3" height="62.9"/>
	<rect x="446.7" y="25.1" class="st0" width="1" height="8"/>
	<rect x="440.3" y="25.1" class="st0" width="2" height="8"/>
	<rect x="433.9" y="25.1" class="st0" width="3" height="8"/>
	<rect x="438.5" y="55.7" class="st0" width="1" height="8"/>
	<rect x="432.1" y="55.7" class="st0" width="2" height="8"/>
	<rect x="425.7" y="55.7" class="st0" width="3" height="8"/>
	<rect x="447.7" y="71.8" class="st0" width="1" height="8"/>
	<rect x="441.2" y="71.8" class="st0" width="2" height="8"/>
	<rect x="434.8" y="71.8" class="st0" width="3" height="8"/>
	<path class="st0" d="M251.9,131.1l-0.3-1c2.8-0.9,6.6-5.2,6.6-8.3v-74l0.1-0.2c0.2-0.2,18.5-18.2,26.5-29.5l0.8,0.6
		C278,29.6,261,46.5,259.2,48.3v73.6C259.2,125.4,255.1,130.1,251.9,131.1L251.9,131.1z"/>
	<path class="st0" d="M246.1,131.6l-0.6-1.9c2.6-0.8,6.3-4.9,6.3-7.8V47.6l0.3-0.3c0.2-0.2,18.5-18.1,26.4-29.5l1.6,1.1
		c-7.5,10.6-23.9,27-26.4,29.4v73.4C253.8,125.8,249.5,130.6,246.1,131.6L246.1,131.6z"/>
	<path class="st0" d="M240.3,132.1l-0.9-2.9c2.5-0.8,5.9-4.7,5.9-7.4V47.4l0.5-0.4c0.2-0.2,18.5-18.1,26.4-29.4l2.5,1.7
		c-7.5,10.6-23.3,26.5-26.3,29.3v73.2C248.3,126,243.9,130.9,240.3,132.1L240.3,132.1z"/>
</g>
<g>
	<path class="st0" d="M50.5,46H8.8v82.9h-9.6V1.4h51.3V46z M41.2,8.8H8.8V20h32.4V8.8z M8.8,38.8h32.4V27H8.8V38.8z M52.1,99.3
		c-0.1,0.9-1,1.5-2.5,1.7c-2.6,11.8-9.1,20.2-28.6,25c-0.9-1.9-3.3-5.4-5.1-6.8c17.4-3.5,23.7-9.6,25.6-21.1L52.1,99.3z M71.1,114.4
		c0,2.8,0.4,3,3.5,3h9.9c2.6,0,3.2-1,3.5-10c1.7,1.3,5.1,2.5,7.4,2.9c-0.9,11.8-3.2,14.7-9.7,14.7H73.4c-8.7,0-10.7-2.2-10.7-10.5
		v-17h-32V76.5c-2.5,2.2-5.2,4.2-8,6c-1.5-1.6-4.1-4.1-5.8-5.4c8.7-4.9,16.6-13.7,19.9-21.8l10.3,2.5c-0.3,0.9-1.2,1.5-2.8,1.5
		c-1.9,3.8-4.9,8.1-8.6,12.2h43.7c-3.3-3.3-6.1-7.1-8.1-11.2H48.7v-7.4h27.9c3.8,9.7,13.1,18.3,22.1,22.5c-2,1.5-5.1,4.2-6.5,6.1
		c-2.5-1.5-4.8-3.1-7.1-4.9v21.1H71.8l-0.7,0.1V114.4z M38.9,78.1v12.8h37.8V78.1H38.9z M117.2,1.4v115.3c0,11-4.5,12.1-19.6,12.1
		c-0.3-2.6-1.6-7.3-2.9-10c2.5,0,4.8,0.1,6.7,0.1c5.5,0,6.1,0,6.1-2.3V46H64.3V1.4H117.2z M107.4,8.8H73.7V20h33.7V8.8z M73.7,38.8
		h33.7V27H73.7V38.8z"/>
</g>
</svg>
