<?xml version="1.0" encoding="utf-8"?>
<!-- Generator: Adobe Illustrator 27.8.0, SVG Export Plug-In . SVG Version: 6.00 Build 0)  -->
<svg version="1.1" id="Layer_2_00000002363726256886573940000015741861240782096517_"
	 xmlns="http://www.w3.org/2000/svg" xmlns:xlink="http://www.w3.org/1999/xlink" x="0px" y="0px" viewBox="0 0 317.3 142.9"
	 style="enable-background:new 0 0 317.3 142.9;" xml:space="preserve">
<style type="text/css">
	.st0{fill:#8D288F;}
</style>
<g>
	<g>
		<path class="st0" d="M23.7,33.1c-1.7,0.6-5,1.6-8.9,1.6c-4.4,0-8-1.1-10.8-3.8c-2.5-2.4-4-6.3-4-10.7C0,11.5,6,5.2,15.6,5.2
			c3.3,0,6,0.7,7.2,1.3l-0.9,3c-1.5-0.7-3.5-1.2-6.4-1.2c-7,0-11.6,4.4-11.6,11.6c0,7.3,4.4,11.6,11.1,11.6c2.4,0,4.1-0.3,5-0.8
			v-8.6h-5.9v-3h9.5V33.1z"/>
	</g>
	<g>
		<path class="st0" d="M48.2,23.9c0,7.7-5.3,11-10.3,11c-5.6,0-9.9-4.1-9.9-10.7c0-6.9,4.5-11,10.3-11
			C44.2,13.2,48.2,17.5,48.2,23.9z M31.8,24.1c0,4.5,2.6,8,6.3,8c3.6,0,6.3-3.4,6.3-8c0-3.5-1.8-8-6.2-8S31.8,20.1,31.8,24.1z"/>
	</g>
	<g>
		<path class="st0" d="M71.7,23.9c0,7.7-5.3,11-10.3,11c-5.6,0-9.9-4.1-9.9-10.7c0-6.9,4.5-11,10.3-11
			C67.7,13.2,71.7,17.5,71.7,23.9z M55.3,24.1c0,4.5,2.6,8,6.3,8c3.6,0,6.3-3.4,6.3-8c0-3.5-1.8-8-6.2-8S55.3,20.1,55.3,24.1z"/>
	</g>
	<g>
		<path class="st0" d="M94.4,4v25c0,1.8,0,3.9,0.2,5.4h-3.4L91,30.8h-0.1c-1.2,2.3-3.7,4.1-7.1,4.1c-5,0-8.9-4.2-8.9-10.5
			c0-6.9,4.2-11.1,9.3-11.1c3.2,0,5.3,1.5,6.3,3.2h0.1V4H94.4z M90.6,22.1c0-0.5,0-1.1-0.2-1.6c-0.6-2.4-2.6-4.4-5.4-4.4
			c-3.9,0-6.2,3.4-6.2,8c0,4.2,2.1,7.7,6.1,7.7c2.5,0,4.8-1.7,5.5-4.5c0.1-0.5,0.2-1,0.2-1.6V22.1z"/>
	</g>
	<g>
		<path class="st0" d="M109.8,5.9c1.9-0.4,4.6-0.6,7.1-0.6c4,0,6.6,0.7,8.3,2.4c1.5,1.3,2.3,3.3,2.3,5.5c0,3.8-2.4,6.3-5.4,7.4v0.1
			c2.2,0.8,3.6,2.8,4.2,5.8c0.9,4,1.6,6.8,2.2,7.9h-3.9c-0.5-0.8-1.1-3.3-1.9-6.9c-0.9-4-2.4-5.5-5.8-5.6h-3.5v12.5h-3.7V5.9z
			 M113.5,19.1h3.8c4,0,6.5-2.2,6.5-5.5c0-3.7-2.7-5.4-6.6-5.4c-1.8,0-3.1,0.2-3.7,0.3V19.1z"/>
	</g>
	<g>
		<path class="st0" d="M135,24.7c0.1,5.1,3.3,7.2,7.1,7.2c2.7,0,4.3-0.5,5.7-1.1l0.6,2.7c-1.3,0.6-3.6,1.3-6.9,1.3
			c-6.4,0-10.2-4.2-10.2-10.4s3.7-11.2,9.7-11.2c6.8,0,8.6,6,8.6,9.8c0,0.8-0.1,1.4-0.1,1.8H135z M146,22c0-2.4-1-6.1-5.2-6.1
			c-3.8,0-5.5,3.5-5.8,6.1H146z"/>
	</g>
	<g>
		<path class="st0" d="M165.8,34.4l-0.3-2.6h-0.1c-1.2,1.6-3.4,3.1-6.3,3.1c-4.2,0-6.3-3-6.3-6c0-5,4.5-7.7,12.5-7.7v-0.4
			c0-1.7-0.5-4.8-4.7-4.8c-1.9,0-3.9,0.6-5.4,1.5l-0.9-2.5c1.7-1.1,4.2-1.8,6.8-1.8c6.3,0,7.9,4.3,7.9,8.5v7.7c0,1.8,0.1,3.6,0.3,5
			H165.8z M165.2,23.8c-4.1-0.1-8.8,0.6-8.8,4.7c0,2.4,1.6,3.6,3.6,3.6c2.7,0,4.4-1.7,5-3.5c0.1-0.4,0.2-0.8,0.2-1.2V23.8z"/>
	</g>
	<g>
		<path class="st0" d="M192.9,4v25c0,1.8,0,3.9,0.2,5.4h-3.4l-0.2-3.6h-0.1c-1.2,2.3-3.7,4.1-7.1,4.1c-5,0-8.9-4.2-8.9-10.5
			c0-6.9,4.2-11.1,9.3-11.1c3.2,0,5.3,1.5,6.3,3.2h0.1V4H192.9z M189.1,22.1c0-0.5,0-1.1-0.2-1.6c-0.6-2.4-2.6-4.4-5.4-4.4
			c-3.9,0-6.2,3.4-6.2,8c0,4.2,2.1,7.7,6.1,7.7c2.5,0,4.8-1.7,5.5-4.5c0.1-0.5,0.2-1,0.2-1.6V22.1z"/>
	</g>
	<g>
		<path class="st0" d="M198.6,30.5c1.1,0.7,3.1,1.5,5,1.5c2.7,0,4-1.4,4-3.1c0-1.8-1.1-2.8-3.9-3.8c-3.7-1.3-5.5-3.4-5.5-5.9
			c0-3.3,2.7-6.1,7.1-6.1c2.1,0,3.9,0.6,5.1,1.3l-0.9,2.7c-0.8-0.5-2.3-1.2-4.2-1.2c-2.2,0-3.5,1.3-3.5,2.8c0,1.7,1.2,2.5,3.9,3.5
			c3.6,1.4,5.4,3.2,5.4,6.3c0,3.6-2.8,6.2-7.7,6.2c-2.3,0-4.4-0.6-5.8-1.4L198.6,30.5z"/>
	</g>
	<g>
		<path class="st0" d="M249.6,21.7c-0.2-4-0.5-8.9-0.4-12.5H249c-1,3.4-2.2,7-3.6,11l-5.1,14h-2.8l-4.7-13.7
			c-1.4-4.1-2.5-7.8-3.3-11.2h-0.1c-0.1,3.6-0.3,8.4-0.6,12.8L228,34.4h-3.6l2-28.9h4.8l4.9,14c1.2,3.6,2.2,6.7,2.9,9.7h0.1
			c0.7-2.9,1.8-6.1,3-9.7l5.1-14h4.8l1.8,28.9h-3.6L249.6,21.7z"/>
	</g>
	<g>
		<path class="st0" d="M271.3,34.4l-0.3-2.6h-0.1c-1.2,1.6-3.4,3.1-6.3,3.1c-4.2,0-6.3-3-6.3-6c0-5,4.5-7.7,12.5-7.7v-0.4
			c0-1.7-0.5-4.8-4.7-4.8c-1.9,0-3.9,0.6-5.4,1.5l-0.9-2.5c1.7-1.1,4.2-1.8,6.8-1.8c6.3,0,7.9,4.3,7.9,8.5v7.7c0,1.8,0.1,3.6,0.3,5
			H271.3z M270.7,23.8c-4.1-0.1-8.8,0.6-8.8,4.7c0,2.4,1.6,3.6,3.6,3.6c2.7,0,4.4-1.7,5-3.5c0.1-0.4,0.2-0.8,0.2-1.2V23.8z"/>
	</g>
	<g>
		<path class="st0" d="M284.2,23.2L284.2,23.2c0.6-0.7,1.3-1.6,1.9-2.4l6.1-7.1h4.5l-8,8.5l9.1,12.2h-4.6l-7.1-9.9l-1.9,2.1v7.8
			h-3.7V4h3.7V23.2z"/>
	</g>
	<g>
		<path class="st0" d="M302.6,24.7c0.1,5.1,3.3,7.2,7.1,7.2c2.7,0,4.3-0.5,5.7-1.1l0.6,2.7c-1.3,0.6-3.6,1.3-6.9,1.3
			c-6.4,0-10.2-4.2-10.2-10.4s3.7-11.2,9.7-11.2c6.8,0,8.6,6,8.6,9.8c0,0.8-0.1,1.4-0.1,1.8H302.6z M313.7,22c0-2.4-1-6.1-5.2-6.1
			c-3.8,0-5.5,3.5-5.8,6.1H313.7z"/>
	</g>
</g>
<g>
	<g>
		<path class="st0" d="M7.1,47.7v5.5h4.9v2.6H7.1V66c0,2.4,0.7,3.7,2.6,3.7c0.9,0,1.6-0.1,2-0.2l0.2,2.6c-0.7,0.3-1.7,0.5-3.1,0.5
			c-1.6,0-2.9-0.5-3.7-1.5c-1-1-1.3-2.7-1.3-4.9V55.8H0.8v-2.6h2.9v-4.6L7.1,47.7z"/>
	</g>
	<g>
		<path class="st0" d="M16,44.3h3.5v11.8h0.1c0.5-1,1.4-1.8,2.5-2.4c1-0.6,2.2-1,3.5-1c2.5,0,6.6,1.6,6.6,8.1v11.3h-3.5V61.2
			c0-3.1-1.1-5.6-4.4-5.6c-2.2,0-4,1.6-4.6,3.5c-0.2,0.5-0.2,1-0.2,1.6v11.5H16V44.3z"/>
	</g>
	<g>
		<path class="st0" d="M39.7,63.3c0.1,4.7,3.1,6.6,6.5,6.6c2.5,0,4-0.4,5.3-1l0.6,2.5c-1.2,0.5-3.3,1.2-6.3,1.2
			c-5.8,0-9.3-3.8-9.3-9.6s3.4-10.2,8.9-10.2c6.2,0,7.8,5.5,7.8,8.9c0,0.7-0.1,1.3-0.1,1.6H39.7z M49.8,60.8c0-2.2-0.9-5.6-4.8-5.6
			c-3.5,0-5,3.2-5.3,5.6H49.8z"/>
	</g>
	<g>
		<path class="st0" d="M65.8,46.1c2.1-0.3,4.6-0.5,7.3-0.5c4.9,0,8.4,1.1,10.7,3.3c2.4,2.2,3.7,5.2,3.7,9.5c0,4.3-1.3,7.8-3.8,10.3
			c-2.5,2.5-6.6,3.8-11.7,3.8c-2.4,0-4.5-0.1-6.2-0.3V46.1z M69.2,69.4c0.9,0.2,2.1,0.2,3.5,0.2c7.3,0,11.3-4.1,11.3-11.2
			c0-6.2-3.5-10.2-10.7-10.2c-1.8,0-3.1,0.2-4,0.4V69.4z"/>
	</g>
	<g>
		<path class="st0" d="M91.8,59.1c0-2.2,0-4.2-0.2-5.9h3l0.1,3.7H95c0.9-2.5,2.9-4.2,5.3-4.2c0.4,0,0.7,0,1,0.1v3.3
			c-0.4-0.1-0.7-0.1-1.2-0.1c-2.4,0-4.2,1.8-4.6,4.4c-0.1,0.5-0.2,1-0.2,1.6v10.1h-3.4V59.1z"/>
	</g>
	<g>
		<path class="st0" d="M106.2,63.3c0.1,4.7,3.1,6.6,6.5,6.6c2.5,0,4-0.4,5.3-1l0.6,2.5c-1.2,0.5-3.3,1.2-6.3,1.2
			c-5.8,0-9.3-3.8-9.3-9.6s3.4-10.2,8.9-10.2c6.2,0,7.8,5.5,7.8,8.9c0,0.7-0.1,1.3-0.1,1.6H106.2z M116.3,60.8
			c0-2.2-0.9-5.6-4.8-5.6c-3.5,0-5,3.2-5.3,5.6H116.3z"/>
	</g>
	<g>
		<path class="st0" d="M134.4,72.2l-0.3-2.4H134c-1.1,1.5-3.1,2.8-5.8,2.8c-3.8,0-5.8-2.7-5.8-5.5c0-4.6,4.1-7.1,11.4-7.1v-0.4
			c0-1.6-0.4-4.4-4.3-4.4c-1.8,0-3.6,0.5-4.9,1.4l-0.8-2.3c1.6-1,3.8-1.7,6.2-1.7c5.8,0,7.2,4,7.2,7.8v7.1c0,1.6,0.1,3.3,0.3,4.6
			H134.4z M133.9,62.5c-3.8-0.1-8,0.6-8,4.3c0,2.2,1.5,3.3,3.3,3.3c2.5,0,4-1.6,4.6-3.2c0.1-0.4,0.2-0.7,0.2-1.1V62.5z"/>
	</g>
	<g>
		<path class="st0" d="M142.8,58.3c0-2,0-3.6-0.2-5.1h3l0.2,3.1h0.1c1.1-1.8,2.8-3.5,6-3.5c2.6,0,4.6,1.6,5.4,3.8h0.1
			c0.6-1.1,1.3-1.9,2.1-2.5c1.1-0.9,2.4-1.3,4.2-1.3c2.5,0,6.2,1.6,6.2,8.2v11.2h-3.4V61.4c0-3.6-1.3-5.8-4.1-5.8
			c-2,0-3.5,1.5-4.1,3.1c-0.2,0.5-0.3,1.1-0.3,1.7v11.7h-3.4V60.8c0-3-1.3-5.2-4-5.2c-2.2,0-3.7,1.7-4.3,3.5
			c-0.2,0.5-0.3,1.1-0.3,1.7v11.5h-3.4V58.3z"/>
	</g>
	<g>
		<path class="st0" d="M175.1,68.6c1,0.7,2.8,1.4,4.6,1.4c2.5,0,3.7-1.3,3.7-2.8c0-1.6-1-2.5-3.5-3.5c-3.4-1.2-5-3.1-5-5.4
			c0-3.1,2.5-5.6,6.6-5.6c1.9,0,3.6,0.5,4.7,1.2l-0.9,2.5c-0.7-0.5-2.1-1.1-3.9-1.1c-2,0-3.2,1.2-3.2,2.6c0,1.6,1.1,2.3,3.6,3.2
			c3.3,1.3,5,2.9,5,5.7c0,3.3-2.6,5.7-7.1,5.7c-2.1,0-4-0.5-5.3-1.3L175.1,68.6z"/>
	</g>
</g>
<g>
	<g>
		<path class="st0" d="M32,120.6c-1.9,1-5.7,1.9-10.6,1.9c-11.4,0-19.9-7.2-19.9-20.4C1.4,89.6,10,81,22.5,81c5,0,8.2,1.1,9.6,1.8
			l-1.3,4.2c-2-1-4.8-1.7-8.1-1.7c-9.4,0-15.7,6-15.7,16.6c0,9.9,5.7,16.2,15.5,16.2c3.2,0,6.4-0.7,8.5-1.7L32,120.6z"/>
	</g>
	<g>
		<path class="st0" d="M63.9,107.3c0,10.7-7.4,15.4-14.4,15.4c-7.8,0-13.9-5.7-13.9-14.9c0-9.7,6.3-15.4,14.3-15.4
			C58.2,92.4,63.9,98.4,63.9,107.3z M40.9,107.6c0,6.3,3.6,11.1,8.8,11.1c5,0,8.8-4.7,8.8-11.2c0-4.9-2.5-11.1-8.7-11.1
			S40.9,102.1,40.9,107.6z"/>
	</g>
	<g>
		<path class="st0" d="M70.5,100.9c0-3-0.1-5.4-0.2-7.8h4.6l0.2,4.7h0.2c1.6-2.7,4.3-5.3,9.1-5.3c3.9,0,6.9,2.4,8.2,5.8h0.1
			c0.9-1.6,2-2.9,3.2-3.8c1.7-1.3,3.6-2,6.4-2c3.8,0,9.5,2.5,9.5,12.6v17h-5.1v-16.4c0-5.6-2-8.9-6.3-8.9c-3,0-5.3,2.2-6.2,4.8
			c-0.2,0.7-0.4,1.7-0.4,2.6V122h-5.1v-17.3c0-4.6-2-8-6-8c-3.3,0-5.7,2.6-6.5,5.3c-0.3,0.8-0.4,1.7-0.4,2.6V122h-5.1V100.9z"/>
	</g>
	<g>
		<path class="st0" d="M123.3,108.5c0.1,7.1,4.7,10,9.9,10c3.8,0,6-0.7,8-1.5l0.9,3.8c-1.9,0.8-5,1.8-9.6,1.8
			c-8.9,0-14.2-5.9-14.2-14.6c0-8.7,5.1-15.6,13.6-15.6c9.4,0,12,8.3,12,13.6c0,1.1-0.1,1.9-0.2,2.5H123.3z M138.7,104.7
			c0.1-3.3-1.4-8.5-7.3-8.5c-5.3,0-7.7,4.9-8.1,8.5H138.7z"/>
	</g>
	<g>
		<path class="st0" d="M168.4,86.1h-12.3v-4.4h29.8v4.4h-12.3V122h-5.3V86.1z"/>
	</g>
	<g>
		<path class="st0" d="M187.5,102.1c0-3.4-0.1-6.3-0.2-9h4.6l0.2,5.7h0.2c1.3-3.9,4.5-6.3,8-6.3c0.6,0,1,0.1,1.5,0.2v5
			c-0.5-0.1-1.1-0.2-1.8-0.2c-3.7,0-6.3,2.8-7.1,6.8c-0.1,0.7-0.2,1.6-0.2,2.5V122h-5.2V102.1z"/>
	</g>
	<g>
		<path class="st0" d="M231.3,114.1c0,3,0.1,5.6,0.2,7.9h-4.7l-0.3-4.7h-0.1c-1.4,2.3-4.4,5.4-9.6,5.4c-4.5,0-10-2.5-10-12.7V93h5.3
			v16c0,5.5,1.7,9.2,6.5,9.2c3.5,0,6-2.5,6.9-4.8c0.3-0.8,0.5-1.7,0.5-2.7V93h5.3V114.1z"/>
	</g>
	<g>
		<path class="st0" d="M243,108.5c0.1,7.1,4.7,10,9.9,10c3.8,0,6-0.7,8-1.5l0.9,3.8c-1.9,0.8-5,1.8-9.6,1.8
			c-8.9,0-14.2-5.9-14.2-14.6c0-8.7,5.1-15.6,13.6-15.6c9.4,0,12,8.3,12,13.6c0,1.1-0.1,1.9-0.2,2.5H243z M258.4,104.7
			c0.1-3.3-1.4-8.5-7.3-8.5c-5.3,0-7.7,4.9-8.1,8.5H258.4z"/>
	</g>
</g>
<g>
	<path class="st0" d="M38.5,33.1c-0.1,0-5.8-2.6-5.8-8.8s5.7-8.7,5.8-8.8l0.2,0.5c-0.1,0-5.4,2.5-5.4,8.3s5.4,8.2,5.4,8.3L38.5,33.1
		z"/>
</g>
<g>
	<path class="st0" d="M40.4,32.9c-0.1,0-6.1-2.4-6.1-8.5c0-6.1,6.3-8.7,6.3-8.8l0.2,0.5c-0.1,0-6,2.5-6,8.3c0,5.8,5.6,8,5.7,8
		L40.4,32.9z"/>
</g>
<g>
	<path class="st0" d="M184.1,33.1c-0.1,0-5.8-2.6-5.8-8.8s5.7-8.7,5.8-8.8l0.2,0.5c-0.1,0-5.4,2.5-5.4,8.3s5.4,8.2,5.4,8.3
		L184.1,33.1z"/>
</g>
<g>
	<path class="st0" d="M186,32.9c-0.1,0-6.1-2.4-6.1-8.5c0-6.1,6.3-8.7,6.3-8.8l0.2,0.5c-0.1,0-6,2.5-6,8.3c0,5.8,5.6,8,5.7,8
		L186,32.9z"/>
</g>
<g>
	<path class="st0" d="M309.3,33.1c-0.1,0-5.8-2.6-5.8-8.8s5.7-8.7,5.8-8.8l0.2,0.5c-0.1,0-5.4,2.5-5.4,8.3s5.4,8.2,5.4,8.3
		L309.3,33.1z"/>
</g>
<g>
	<path class="st0" d="M311.2,32.9c-0.1,0-6.1-2.4-6.1-8.5c0-6.1,6.3-8.7,6.3-8.8l0.2,0.5c-0.1,0-6,2.5-6,8.3c0,5.8,5.6,8,5.7,8
		L311.2,32.9z"/>
</g>
<g>
	<path class="st0" d="M62,33.1c-0.1,0-5.8-2.6-5.8-8.8s5.7-8.7,5.8-8.8l0.2,0.5c-0.1,0-5.4,2.5-5.4,8.3s5.4,8.2,5.4,8.3L62,33.1z"/>
</g>
<g>
	<path class="st0" d="M63.9,32.9c-0.1,0-6.1-2.4-6.1-8.5c0-6.1,6.3-8.7,6.3-8.8l0.2,0.5c-0.1,0-6,2.5-6,8.3c0,5.8,5.6,8,5.7,8
		L63.9,32.9z"/>
</g>
<g>
	<path class="st0" d="M50.6,120.7c-0.1,0-8.3-3.8-8.3-12.7s8.3-12.6,8.3-12.7l0.3,0.7c-0.1,0-7.9,3.6-7.9,11.9
		c0,8.3,7.8,11.9,7.9,11.9L50.6,120.7z"/>
</g>
<g>
	<path class="st0" d="M53.3,120.3c-0.1,0-8.8-3.4-8.8-12.3c0-8.9,9-12.6,9.1-12.7l0.3,0.7c-0.1,0-8.6,3.6-8.6,11.9
		c0,8.3,8.2,11.5,8.2,11.5L53.3,120.3z"/>
</g>
<g>
	<path class="st0" d="M253.1,120.7c-0.1,0-8.3-3.8-8.3-12.7s8.3-12.6,8.3-12.7l0.3,0.7c-0.1,0-7.9,3.6-7.9,11.9s7.8,11.9,7.9,11.9
		L253.1,120.7z"/>
</g>
<g>
	<path class="st0" d="M255.8,120.3c-0.1,0-8.8-3.4-8.8-12.3c0-8.9,9-12.6,9.1-12.7l0.3,0.7c-0.1,0-8.6,3.6-8.6,11.9
		c0,8.3,8.2,11.5,8.2,11.5L255.8,120.3z"/>
</g>
<g>
	<path class="st0" d="M85.2,33.1c-0.1,0-5.8-2.6-5.8-8.8s5.7-8.7,5.8-8.8l0.2,0.5c-0.1,0-5.4,2.5-5.4,8.3c0,5.8,5.4,8.2,5.4,8.3
		L85.2,33.1z"/>
</g>
<g>
	<path class="st0" d="M87,32.9c-0.1,0-6.1-2.4-6.1-8.5c0-6.1,6.3-8.7,6.3-8.8l0.2,0.5c-0.1,0-6,2.5-6,8.3c0,5.8,5.6,8,5.7,8L87,32.9
		z"/>
</g>
<g>
	<path class="st0" d="M161.7,33.5c0,0-4.1-1.6-4.1-5.2s4-5.2,4.1-5.2l0.1,0.3c0,0-3.8,1.5-3.8,4.9s3.8,4.8,3.8,4.9L161.7,33.5z"/>
</g>
<g>
	<path class="st0" d="M163,33.3c0,0-4.3-1.4-4.3-5c0-3.6,4.4-5.2,4.5-5.2l0.1,0.3c0,0-4.2,1.5-4.2,4.8c0,3.4,4,4.7,4,4.7L163,33.3z"
		/>
</g>
<g>
	<rect x="24.1" y="19.4" class="st0" width="0.6" height="13.4"/>
</g>
<g>
	<rect x="7.8" y="47.9" class="st0" width="0.6" height="22.9"/>
</g>
<g>
	<rect x="20" y="45" class="st0" width="0.6" height="27.2"/>
</g>
<g>
	<rect x="70.4" y="47.2" class="st0" width="0.5" height="25"/>
</g>
<g>
	<rect x="71.7" y="47.2" class="st0" width="0.5" height="25"/>
</g>
<g>
	<rect x="76.9" y="97" class="st0" width="0.5" height="25"/>
</g>
<g>
	<rect x="78.2" y="97" class="st0" width="0.5" height="25"/>
</g>
<g>
	<rect x="94.7" y="97" class="st0" width="0.5" height="25"/>
</g>
<g>
	<rect x="96" y="97" class="st0" width="0.5" height="25"/>
</g>
<g>
	<rect x="213.4" y="92.9" class="st0" width="0.6" height="27"/>
</g>
<g>
	<rect x="214.7" y="92.9" class="st0" width="0.6" height="27"/>
</g>
<g>
	<rect x="232.2" y="92.9" class="st0" width="0.6" height="27"/>
</g>
<g>
	<rect x="233.6" y="92.9" class="st0" width="0.6" height="27"/>
</g>
<g>
	<rect x="146.9" y="55" class="st0" width="0.4" height="17.2"/>
</g>
<g>
	<rect x="148.2" y="55" class="st0" width="0.4" height="17.2"/>
</g>
<g>
	<rect x="158.9" y="55" class="st0" width="0.4" height="17.2"/>
</g>
<g>
	<rect x="160.2" y="55" class="st0" width="0.4" height="17.2"/>
</g>
<g>
	<rect x="32.7" y="59.4" class="st0" width="0.6" height="12.8"/>
</g>
</svg>
