<?xml version="1.0" encoding="UTF-8"?><svg id="Layer_2" xmlns="http://www.w3.org/2000/svg" width="485.88" height="142.93" viewBox="0 0 485.88 142.93"><g id="Layer_1-2"><path d="m226.19,77.63v64.56h-5.42v-3.41h-50.91v3.41h-5.27v-64.56h61.6,0Zm-5.42,56.18v-51.13h-50.91v51.13h50.91Zm-18.7-10.98c5.2,1.86,11.13,4.38,14.54,6.68l-4.45,2.08c-3.04-2.08-8.39-4.75-13.58-6.61l3.19-2.15h-14.03l4.01,1.26c-3.71,2.82-9.58,5.72-14.47,7.42-.74-.81-2.38-2.38-3.34-3.12,4.9-1.48,10.17-3.41,13.43-5.57h-9.8v-22.78h35.4v22.78h-10.91,0Zm7.94-25.53h-29.24v-10.46h29.24v10.46Zm-27.68,9.28h25.75v-3.41h-25.75v3.41Zm0,6.46h25.75v-3.41h-25.75v3.41Zm0,6.61h25.75v-3.56h-25.75v3.56Zm22.86-29.68h-19.82v4.23h19.82v-4.23Z" style="fill:#8d288f;"/><path d="m264.26,76c-1.63,4.9-3.64,9.8-5.94,14.4v51.65h-5.27v-42.15c-2.3,3.64-4.68,6.98-7.2,9.8-.44-1.19-1.93-4.23-2.9-5.57,6.61-7.2,12.54-18.33,16.26-29.53l5.05,1.41h0Zm45.64,2.75v62.56h-5.27v-3.78h-32.66v4.38h-5.12v-63.16h43.05Zm-5.27,53.87v-49.05h-32.66v49.05h32.66Zm-13.95-34.06v8.16h8.54v19.74h-21.15v-19.74h8.09v-8.16h-11.13v-4.23h11.13v-8.38h4.52v8.38h11.43v4.23h-11.43Zm4.15,12.32h-12.54v11.5h12.54v-11.5Z" style="fill:#8d288f;"/><path d="m354.59,95.07c-.22,8.31-1.33,18.33-6.24,28.13,3.71,3.27,7.12,6.38,9.35,8.98l-3.64,4.6c-2.08-2.53-5.12-5.57-8.54-8.76-3.27,4.97-7.79,9.8-13.8,14.17-.81-1.19-2.75-2.97-3.86-3.78,6.09-4.3,10.46-9.13,13.58-14.03-3.93-3.49-8.16-6.9-11.95-9.8,1.48-4.82,3.04-11.43,4.53-18.33l-5.87.3-.59-5.27c2.15-.07,4.68-.22,7.42-.3,1.04-5.64,1.86-11.5,2.38-16.55l5.42.3c-.59,4.97-1.48,10.54-2.45,16.03l9.06-.52v-5.42h5.2v5.12l4.3-.22-.07,5.05-4.23.3h0Zm-15.21.89c-1.19,6.01-2.6,11.95-3.86,16.77,2.82,2.15,5.79,4.45,8.61,6.9,4.08-8.46,5.05-17.07,5.19-24.27l-9.94.59h0Zm56.11,14.84h-16.33v24.64c0,3.27-.81,4.82-3.12,5.72-2.3.81-5.87.96-11.65.89-.3-1.56-1.19-3.71-2-5.27,4.38.15,8.46.15,9.58.07,1.19,0,1.63-.37,1.63-1.41v-24.64h-17.14v-5.27h17.14v-8.46c3.78-3.12,7.79-7.94,10.83-12.24h-24.71v-5.12h28.5l1.26-.3,3.78,2.75c-3.64,5.49-8.91,11.72-14.1,16.25v7.12h16.33v5.27h0Z" style="fill:#8d288f;"/><path d="m433.7,83.86h-21.37v-4.82h21.37v-4.75h5.42v13.51h-5.42v-3.93h0Zm-20.78,24.56h63.83v12.32h-5.42v-7.86h-53.21v7.86h-5.2v-12.32Zm49.28,8.53l3.41,2.23c-8.68,14.03-29.39,20.19-48.98,22.41-.37-1.33-1.48-3.64-2.38-4.82,8.76-.74,17.89-2.45,25.83-5.19-2.75-2.38-6.61-5.27-10.17-7.35-1.93.96-4.08,1.86-6.46,2.6-.74-1.19-2.23-3.04-3.34-3.78,8.61-2.53,14.54-6.24,17.66-10.09l5.49,1.19c-.89,1.11-1.78,2.08-2.75,3.04h20.63l1.04-.22h0Zm-43.12-27.61h52.55v15.43h-52.55v-15.43Zm4.97,11.5h10.69v-7.64h-10.69v7.64Zm10.02,21.15c3.93,2.23,8.24,5.27,10.83,7.72,5.05-2.3,9.43-5.05,12.62-8.46h-22.26l-1.19.74Zm5.42-21.15h11.06v-7.64h-11.06v7.64Zm37.55-21.82v4.75h-21.08v4.01h-5.42v-13.5h5.42v4.75h21.08Zm-21.74,21.82h11.13v-7.64h-11.13v7.64Z" style="fill:#8d288f;"/><rect x="234.24" y="78.54" width=".52" height="63.66" style="fill:#8d288f;"/><rect x="230.89" y="78.54" width="1.04" height="63.66" style="fill:#8d288f;"/><rect x="227.53" y="78.54" width="1.56" height="63.66" style="fill:#8d288f;"/><rect x="318.07" y="78.54" width=".52" height="63.66" style="fill:#8d288f;"/><rect x="314.72" y="78.54" width="1.04" height="63.66" style="fill:#8d288f;"/><rect x="311.36" y="78.54" width="1.56" height="63.66" style="fill:#8d288f;"/><rect x="484.88" y="108.09" width=".52" height="12.65" style="fill:#8d288f;"/><rect x="481.53" y="108.09" width="1.04" height="12.65" style="fill:#8d288f;"/><rect x="478.17" y="108.09" width="1.56" height="12.65" style="fill:#8d288f;"/><rect x="480.23" y="89.35" width=".52" height="15.43" style="fill:#8d288f;"/><rect x="476.87" y="89.35" width="1.04" height="15.43" style="fill:#8d288f;"/><rect x="473.52" y="89.35" width="1.56" height="15.43" style="fill:#8d288f;"/><rect x="485.36" y="78.78" width=".52" height="4.98" style="fill:#8d288f;"/><rect x="482.01" y="78.78" width="1.04" height="4.98" style="fill:#8d288f;"/><rect x="478.66" y="78.78" width="1.56" height="4.98" style="fill:#8d288f;"/><rect x="463.92" y="74.29" width=".52" height="13.51" style="fill:#8d288f;"/><rect x="460.57" y="74.29" width="1.04" height="13.51" style="fill:#8d288f;"/><rect x="457.22" y="74.29" width="1.56" height="13.51" style="fill:#8d288f;"/><rect x="447.09" y="74.29" width=".52" height="13.51" style="fill:#8d288f;"/><rect x="443.74" y="74.29" width="1.04" height="13.51" style="fill:#8d288f;"/><rect x="440.38" y="74.29" width="1.56" height="13.51" style="fill:#8d288f;"/><rect x="431.65" y="90.32" width=".52" height="13.51" style="fill:#8d288f;"/><rect x="428.3" y="90.32" width="1.04" height="13.51" style="fill:#8d288f;"/><rect x="424.94" y="90.32" width="1.56" height="13.51" style="fill:#8d288f;"/><rect x="426.33" y="109.57" width=".52" height="11.17" style="fill:#8d288f;"/><rect x="422.98" y="109.57" width="1.04" height="11.17" style="fill:#8d288f;"/><rect x="419.62" y="109.57" width="1.56" height="11.17" style="fill:#8d288f;"/><polygon points="267.3 142.19 266.78 142.19 266.78 91.31 272.81 77.53 273.29 77.73 267.3 91.41 267.3 142.19" style="fill:#8d288f;"/><polygon points="264.47 142.19 263.42 142.19 263.42 91.25 269.48 77.42 270.43 77.84 264.47 91.47 264.47 142.19" style="fill:#8d288f;"/><polygon points="261.63 142.19 260.07 142.19 260.07 91.2 266.15 77.32 267.58 77.94 261.63 91.52 261.63 142.19" style="fill:#8d288f;"/><rect x="178.58" y="78.54" width=".52" height="63.66" style="fill:#8d288f;"/><rect x="175.22" y="78.54" width="1.04" height="63.66" style="fill:#8d288f;"/><rect x="171.87" y="78.54" width="1.56" height="63.66" style="fill:#8d288f;"/><path d="m383.42,142.44l-.15-.5c1.48-.46,3.46-2.69,3.46-4.34v-38.54l.08-.08c.1-.09,9.64-9.47,13.79-15.37l.43.3c-3.98,5.66-12.85,14.45-13.78,15.37v38.32c0,1.88-2.15,4.31-3.82,4.84Z" style="fill:#8d288f;"/><path d="m380.4,142.69l-.31-.99c1.37-.43,3.27-2.57,3.27-4.09v-38.65l.16-.15c.1-.09,9.63-9.45,13.76-15.34l.85.6c-3.89,5.54-12.46,14.08-13.73,15.33v38.21c0,2.03-2.24,4.53-4,5.08Z" style="fill:#8d288f;"/><path d="m377.39,142.93l-.46-1.49c1.28-.4,3.09-2.45,3.09-3.84v-38.76l.23-.23c.1-.09,9.61-9.43,13.73-15.3l1.28.9c-3.89,5.53-12.15,13.77-13.68,15.29v38.1c0,2.17-2.3,4.74-4.19,5.33Z" style="fill:#8d288f;"/><path d="m25.53,37.18c-3.04.96-6.09,1.93-9.06,2.82v21.52c0,2.97-.74,4.52-2.6,5.42-1.93.74-4.9.89-9.8.89-.22-1.33-.89-3.56-1.63-4.97,3.34.07,6.38.07,7.35.07,1.04,0,1.33-.37,1.33-1.41v-19.89c-3.49,1.11-6.75,2.15-9.72,3.04l-1.41-5.42c3.12-.81,6.98-1.86,11.13-3.04v-16.18H.89v-5.05h10.24V.15h5.34v14.84h8.24v5.05h-8.24v14.62l8.31-2.45.74,4.97h0Zm27.02,6.16c4.15,6.38,10.91,12.54,17.22,15.66-1.19.96-2.9,2.9-3.78,4.3-6.38-3.86-13.21-10.83-17.59-18.11v22.56h-5.2v-22.26c-4.97,7.49-12.47,14.32-19.67,17.88-.89-1.26-2.45-3.12-3.64-4.08,7.05-3.12,14.54-9.35,19.22-15.96h-12.32v-23.9h16.4v-6.61h-18.55v-4.82h18.55V.15h5.2v7.86h18.93v4.82h-18.93v6.61h17.14v23.9h-12.99Zm-21.15-4.52h12.1v-14.99h-12.1v14.99Zm5.79-12.84c1.56,3.12,3.12,7.12,3.78,9.43l-3.27,1.56c-.67-2.6-2.23-6.68-3.64-9.87l3.12-1.11h0Zm23.68-2.15h-12.77v14.99h12.77v-14.99Zm-10.39,11.95c1.41-2.75,3.34-7.2,4.23-10.09l3.71,1.41c-1.71,3.41-3.56,7.27-5.12,9.95l-2.82-1.26h0Z" style="fill:#8d288f;"/><path d="m127.06,21.15c5.34,12.54,14.69,24.27,24.93,30.05-1.41,1.19-3.34,3.19-4.23,4.67-10.98-6.9-20.56-20.26-26.13-34.73h-1.04v27.38h17.22v5.49h-17.22v13.8h-5.72v-13.8h-17.22v-5.49h17.22v-27.38h-1.19c-5.72,14.47-15.29,27.68-25.98,34.95-.89-1.33-2.67-3.34-3.93-4.38,9.8-6.01,18.93-18.03,24.34-30.58h-22.41v-5.49h29.17V.15h5.72v15.51h29.39v5.49h-22.94.01Z" style="fill:#8d288f;"/><path d="m193.86,20.93c-.22,8.31-1.33,18.33-6.24,28.13,3.71,3.27,7.12,6.38,9.35,8.98l-3.64,4.6c-2.08-2.53-5.12-5.57-8.54-8.76-3.27,4.97-7.79,9.8-13.8,14.17-.81-1.19-2.75-2.97-3.86-3.78,6.09-4.3,10.46-9.13,13.58-14.03-3.93-3.49-8.16-6.9-11.95-9.8,1.48-4.82,3.04-11.43,4.52-18.33l-5.87.3-.59-5.27c2.15-.07,4.67-.22,7.42-.3,1.04-5.64,1.86-11.5,2.38-16.55l5.42.3c-.59,4.97-1.48,10.54-2.45,16.03l9.06-.52v-5.42h5.2v5.12l4.3-.22-.07,5.05-4.23.3h0Zm-15.21.89c-1.19,6.01-2.6,11.95-3.86,16.77,2.82,2.15,5.79,4.45,8.61,6.9,4.08-8.46,5.05-17.07,5.2-24.27l-9.94.59h0Zm56.11,14.84h-16.33v24.64c0,3.27-.81,4.82-3.12,5.72-2.3.81-5.87.96-11.65.89-.3-1.56-1.19-3.71-2.01-5.27,4.38.15,8.46.15,9.58.07,1.19,0,1.63-.37,1.63-1.41v-24.64h-17.14v-5.27h17.14v-8.46c3.78-3.12,7.79-7.94,10.83-12.24h-24.71v-5.12h28.5l1.26-.3,3.78,2.75c-3.64,5.49-8.91,11.72-14.1,16.25v7.12h16.33v5.27h0Z" style="fill:#8d288f;"/><path d="m316.83,37.4v4.15h-65.61v-4.15h29.84v-4.38h-24.86v-3.71h24.86v-4.15h-22.71v-3.64h22.71v-4.3h-29.76v-4.15h29.76v-4.23h-21.97v-3.71h21.97V0h5.42v5.12h21.22v7.94h9.06v4.15h-9.06v7.94h-21.22v4.15h25.31v3.71h-25.31v4.38h30.35Zm-56.41,7.64h47.87v22.78h-5.42v-2.23h-37.11v2.38h-5.35v-22.93Zm5.35,3.86v4.52h33.03v3.64h-33.03v4.67h37.11v-12.84h-37.11Zm20.71-35.84h15.81v-4.23h-15.81v4.23Zm0,8.46h15.81v-4.3h-15.81v4.3Z" style="fill:#8d288f;"/><rect x="73.35" y="19.49" width=".52" height="23.73" style="fill:#8d288f;"/><rect x="70" y="19.49" width="1.04" height="23.73" style="fill:#8d288f;"/><rect x="66.65" y="19.49" width="1.56" height="23.73" style="fill:#8d288f;"/><rect x="74.96" y="8.07" width=".52" height="4.8" style="fill:#8d288f;"/><rect x="71.6" y="8.07" width="1.04" height="4.8" style="fill:#8d288f;"/><rect x="68.25" y="8.07" width="1.56" height="4.8" style="fill:#8d288f;"/><rect x="157.92" y="15.61" width=".52" height="5.61" style="fill:#8d288f;"/><rect x="154.57" y="15.61" width="1.04" height="5.61" style="fill:#8d288f;"/><rect x="151.22" y="15.61" width="1.56" height="5.61" style="fill:#8d288f;"/><rect x="242.91" y="31.15" width=".52" height="5.61" style="fill:#8d288f;"/><rect x="239.55" y="31.15" width="1.04" height="5.61" style="fill:#8d288f;"/><rect x="236.2" y="31.15" width="1.56" height="5.61" style="fill:#8d288f;"/><rect x="55.97" y=".15" width=".52" height="20.26" style="fill:#8d288f;"/><rect x="52.62" y=".15" width="1.04" height="20.26" style="fill:#8d288f;"/><rect x="49.26" y=".15" width="1.56" height="20.26" style="fill:#8d288f;"/><rect x="128.87" y=".15" width=".52" height="67.6" style="fill:#8d288f;"/><rect x="125.52" y=".15" width="1.04" height="67.6" style="fill:#8d288f;"/><rect x="122.17" y=".15" width="1.56" height="67.6" style="fill:#8d288f;"/><rect x="315.63" y="6.02" width=".52" height="7.03" style="fill:#8d288f;"/><rect x="312.28" y="6.02" width="1.04" height="7.03" style="fill:#8d288f;"/><rect x="308.93" y="6.02" width="1.56" height="7.03" style="fill:#8d288f;"/><rect x="315.63" y="17.26" width=".52" height="7.04" style="fill:#8d288f;"/><rect x="312.28" y="17.26" width="1.04" height="7.04" style="fill:#8d288f;"/><rect x="308.93" y="17.26" width="1.56" height="7.04" style="fill:#8d288f;"/><rect x="316.7" y="45.05" width=".52" height="22.93" style="fill:#8d288f;"/><rect x="313.35" y="45.05" width="1.04" height="22.93" style="fill:#8d288f;"/><rect x="310" y="45.05" width="1.56" height="22.93" style="fill:#8d288f;"/><rect x="274.22" y="45.05" width=".52" height="22.93" style="fill:#8d288f;"/><rect x="270.87" y="45.05" width="1.04" height="22.93" style="fill:#8d288f;"/><rect x="267.52" y="45.05" width="1.56" height="22.93" style="fill:#8d288f;"/><rect x="294.68" y="5.75" width=".52" height="32.76" style="fill:#8d288f;"/><rect x="291.33" y="5.75" width="1.04" height="32.76" style="fill:#8d288f;"/><rect x="287.97" y="5.75" width="1.56" height="32.76" style="fill:#8d288f;"/><rect x="324.36" y="13.06" width=".52" height="4.16" style="fill:#8d288f;"/><rect x="321.01" y="13.06" width="1.04" height="4.16" style="fill:#8d288f;"/><rect x="317.66" y="13.06" width="1.56" height="4.16" style="fill:#8d288f;"/><rect x="320.09" y="29.01" width=".52" height="4.16" style="fill:#8d288f;"/><rect x="316.74" y="29.01" width="1.04" height="4.16" style="fill:#8d288f;"/><rect x="313.39" y="29.01" width="1.56" height="4.16" style="fill:#8d288f;"/><rect x="324.85" y="37.4" width=".52" height="4.16" style="fill:#8d288f;"/><rect x="321.5" y="37.4" width="1.04" height="4.16" style="fill:#8d288f;"/><rect x="318.14" y="37.4" width="1.56" height="4.16" style="fill:#8d288f;"/><path d="m222.89,68.3l-.16-.5c1.48-.46,3.46-2.69,3.46-4.34V24.92l.08-.08c.1-.09,9.64-9.47,13.79-15.37l.43.3c-3.97,5.66-12.85,14.45-13.78,15.37v38.32c0,1.88-2.15,4.31-3.82,4.84Z" style="fill:#8d288f;"/><path d="m219.87,68.54l-.31-.99c1.37-.43,3.27-2.57,3.27-4.09V24.81l.16-.15c.1-.09,9.63-9.45,13.76-15.34l.85.6c-3.89,5.54-12.46,14.08-13.73,15.33v38.21c0,2.03-2.24,4.53-4,5.08Z" style="fill:#8d288f;"/><path d="m216.86,68.79l-.46-1.49c1.28-.4,3.09-2.45,3.09-3.84V24.7l.23-.23c.1-.09,9.61-9.43,13.73-15.3l1.28.9c-3.89,5.53-12.15,13.77-13.68,15.29v38.1c0,2.17-2.3,4.74-4.19,5.33Z" style="fill:#8d288f;"/><rect x="55.97" y="43.22" width=".52" height="24.61" style="fill:#8d288f;"/><rect x="52.62" y="43.22" width="1.04" height="24.61" style="fill:#8d288f;"/><rect x="49.26" y="43.22" width="1.56" height="24.61" style="fill:#8d288f;"/></g></svg>