<?xml version="1.0" encoding="utf-8"?>
<!-- Generator: Adobe Illustrator 27.8.0, SVG Export Plug-In . SVG Version: 6.00 Build 0)  -->
<svg version="1.1" id="Layer_2_00000002363726256886573940000015741861240782096517_"
	 xmlns="http://www.w3.org/2000/svg" xmlns:xlink="http://www.w3.org/1999/xlink" x="0px" y="0px" viewBox="0 0 317.3 142.9"
	 style="enable-background:new 0 0 317.3 142.9;" xml:space="preserve">
<style type="text/css">
	.st0{fill:#8D288F;}
</style>
<g>
	<g>
		<path class="st0" d="M33.2,43.4c-2.4,0.9-7.2,2.3-12.8,2.3c-6.3,0-11.5-1.6-15.5-5.4c-3.6-3.4-5.7-9-5.7-15.3
			c0-12.5,8.6-21.5,22.4-21.5c4.7,0,8.6,1,10.3,1.9l-1.3,4.3c-2.1-1-5-1.7-9.2-1.7c-10,0-16.6,6.3-16.6,16.6
			c0,10.5,6.3,16.6,15.9,16.6c3.4,0,5.9-0.4,7.2-1.1V27.7h-8.5v-4.3H33v20.1H33.2z"/>
	</g>
	<g>
		<path class="st0" d="M68.3,30.2c0,11-7.6,15.8-14.8,15.8c-8,0-14.2-5.9-14.2-15.3c0-9.9,6.4-15.8,14.8-15.8
			C62.5,14.9,68.3,21.1,68.3,30.2z M44.8,30.5c0,6.4,3.7,11.5,9,11.5c5.2,0,9-4.9,9-11.5c0-5-2.6-11.5-8.9-11.5S44.8,24.8,44.8,30.5
			z"/>
	</g>
	<g>
		<path class="st0" d="M101.9,30.2c0,11-7.6,15.8-14.8,15.8c-8,0-14.2-5.9-14.2-15.3c0-9.9,6.4-15.8,14.8-15.8
			C96.2,14.9,101.9,21.1,101.9,30.2z M78.4,30.5c0,6.4,3.7,11.5,9,11.5c5.2,0,9-4.9,9-11.5c0-5-2.6-11.5-8.9-11.5
			S78.4,24.8,78.4,30.5z"/>
	</g>
	<g>
		<path class="st0" d="M134.5,1.7v35.8c0,2.6,0,5.6,0.3,7.7h-4.9l-0.3-5.2h-0.1c-1.7,3.3-5.3,5.9-10.2,5.9c-7.2,0-12.8-6-12.8-15
			c0-9.9,6-15.9,13.3-15.9c4.6,0,7.6,2.1,9,4.6h0.1V1.7H134.5z M129,27.7c0-0.7,0-1.6-0.3-2.3c-0.9-3.4-3.7-6.3-7.7-6.3
			c-5.6,0-8.9,4.9-8.9,11.5c0,6,3,11,8.7,11c3.6,0,6.9-2.4,7.9-6.4c0.1-0.7,0.3-1.4,0.3-2.3V27.7z"/>
	</g>
	<g>
		<path class="st0" d="M156.5,4.4c2.7-0.6,6.6-0.9,10.2-0.9c5.7,0,9.5,1,11.9,3.4c2.1,1.9,3.3,4.7,3.3,7.9c0,5.4-3.4,9-7.7,10.6v0.1
			c3.2,1.1,5.2,4,6,8.3c1.3,5.7,2.3,9.7,3.2,11.3h-5.6c-0.7-1.1-1.6-4.7-2.7-9.9c-1.3-5.7-3.4-7.9-8.3-8h-5v17.9h-5.3V4.4H156.5z
			 M161.8,23.4h5.4c5.7,0,9.3-3.2,9.3-7.9c0-5.3-3.9-7.7-9.5-7.7c-2.6,0-4.4,0.3-5.3,0.4C161.8,8.2,161.8,23.4,161.8,23.4z"/>
	</g>
	<g>
		<path class="st0" d="M192.6,31.4c0.1,7.3,4.7,10.3,10.2,10.3c3.9,0,6.2-0.7,8.2-1.6l0.9,3.9c-1.9,0.9-5.2,1.9-9.9,1.9
			c-9.2,0-14.6-6-14.6-14.9s5.3-16,13.9-16c9.7,0,12.3,8.6,12.3,14c0,1.1-0.1,2-0.1,2.6h-20.8V31.4z M208.4,27.5
			c0-3.4-1.4-8.7-7.5-8.7c-5.4,0-7.9,5-8.3,8.7H208.4z"/>
	</g>
	<g>
		<path class="st0" d="M236.8,45.3l-0.4-3.7h-0.1c-1.7,2.3-4.9,4.4-9,4.4c-6,0-9-4.3-9-8.6c0-7.2,6.4-11,17.9-11v-0.6
			c0-2.4-0.7-6.9-6.7-6.9c-2.7,0-5.6,0.9-7.7,2.1l-1.3-3.6c2.4-1.6,6-2.6,9.7-2.6c9,0,11.3,6.2,11.3,12.2v11c0,2.6,0.1,5.2,0.4,7.2
			H236.8z M235.9,30.1c-5.9-0.1-12.6,0.9-12.6,6.7c0,3.4,2.3,5.2,5.2,5.2c3.9,0,6.3-2.4,7.2-5c0.1-0.6,0.3-1.1,0.3-1.7V30.1z"/>
	</g>
	<g>
		<path class="st0" d="M275.6,1.7v35.8c0,2.6,0,5.6,0.3,7.7H271l-0.3-5.2h-0.1c-1.7,3.3-5.3,5.9-10.2,5.9c-7.2,0-12.8-6-12.8-15
			c0-9.9,6-15.9,13.3-15.9c4.6,0,7.6,2.1,9,4.6h0.1V1.7H275.6z M270.2,27.7c0-0.7,0-1.6-0.3-2.3c-0.9-3.4-3.7-6.3-7.7-6.3
			c-5.6,0-8.9,4.9-8.9,11.5c0,6,3,11,8.7,11c3.6,0,6.9-2.4,7.9-6.4c0.1-0.7,0.3-1.4,0.3-2.3V27.7L270.2,27.7z"/>
	</g>
	<g>
		<path class="st0" d="M283.8,39.7c1.6,1,4.4,2.1,7.2,2.1c3.9,0,5.7-2,5.7-4.4c0-2.6-1.6-4-5.6-5.4c-5.3-1.9-7.9-4.9-7.9-8.5
			c0-4.7,3.9-8.7,10.2-8.7c3,0,5.6,0.9,7.3,1.9l-1.3,3.9c-1.1-0.7-3.3-1.7-6-1.7c-3.2,0-5,1.9-5,4c0,2.4,1.7,3.6,5.6,5
			c5.2,2,7.7,4.6,7.7,9c0,5.2-4,8.9-11,8.9c-3.3,0-6.3-0.9-8.3-2L283.8,39.7z"/>
	</g>
	<g>
		<path class="st0" d="M19.8,70.1c-0.2-3.1-0.4-6.9-0.3-9.7h-0.2c-0.8,2.7-1.7,5.5-2.8,8.6l-4,10.9h-2.2L6.7,69.2
			c-1.1-3.2-1.9-6.1-2.6-8.7H4.1C4,63.2,3.8,67,3.6,70.4L3,80H0.2l1.6-22.5h3.7l3.8,10.9c0.9,2.8,1.7,5.2,2.3,7.6h0.1
			c0.5-2.3,1.4-4.8,2.3-7.6l4-10.9h3.7L23.1,80h-2.8L19.8,70.1z"/>
	</g>
	<g>
		<path class="st0" d="M36.7,80l-0.2-2h-0.1c-0.9,1.2-2.7,2.4-4.9,2.4c-3.3,0-4.9-2.3-4.9-4.7c0-3.9,3.5-6,9.7-6v-0.3
			c0-1.3-0.4-3.7-3.7-3.7c-1.5,0-3,0.5-4.2,1.2l-0.7-1.9c1.3-0.9,3.3-1.4,5.3-1.4c4.9,0,6.2,3.4,6.2,6.6v6c0,1.4,0.1,2.8,0.2,3.9
			H36.7z M36.3,71.7c-3.2-0.1-6.9,0.5-6.9,3.7c0,1.9,1.2,2.8,2.8,2.8c2.1,0,3.4-1.3,3.9-2.7c0.1-0.3,0.2-0.6,0.2-0.9L36.3,71.7
			L36.3,71.7z"/>
	</g>
	<g>
		<path class="st0" d="M46.8,71.3L46.8,71.3c0.5-0.5,1-1.2,1.5-1.9l4.8-5.5h3.5l-6.2,6.6l7.1,9.5h-3.6l-5.5-7.7l-1.5,1.6V80h-2.9
			V56.3h2.9V71.3z"/>
	</g>
	<g>
		<path class="st0" d="M61.1,72.4c0.1,4,2.6,5.6,5.5,5.6c2.1,0,3.4-0.4,4.4-0.9l0.5,2.1c-1,0.5-2.8,1-5.4,1c-5,0-8-3.3-8-8.1
			c0-4.8,2.9-8.7,7.6-8.7c5.3,0,6.7,4.7,6.7,7.6c0,0.6-0.1,1.1-0.1,1.4L61.1,72.4L61.1,72.4z M69.8,70.3c0-1.9-0.8-4.8-4.1-4.8
			c-3,0-4.3,2.7-4.5,4.8H69.8z"/>
	</g>
	<g>
		<g>
			<path class="st0" d="M87.1,58.8v4.5h4v2.1h-4v8.4c0,2,0.6,3,2.1,3c0.7,0,1.3-0.1,1.6-0.2l0.2,2.1c-0.6,0.2-1.4,0.4-2.5,0.4
				c-1.3,0-2.4-0.4-3-1.2c-0.8-0.8-1.1-2.2-1.1-4v-8.5h-2.5v-2.1h2.4v-3.8L87.1,58.8z"/>
		</g>
		<g>
			<path class="st0" d="M94.4,56h2.9v9.7h0.1c0.4-0.8,1.1-1.5,2-2c0.8-0.5,1.8-0.8,2.9-0.8c2,0,5.4,1.3,5.4,6.6v9.3h-2.9v-8.9
				c0-2.5-0.9-4.6-3.6-4.6c-1.8,0-3.3,1.3-3.8,2.9c-0.2,0.4-0.2,0.8-0.2,1.3v9.4h-2.9V56z"/>
		</g>
		<g>
			<path class="st0" d="M113.8,71.6c0.1,3.9,2.5,5.4,5.3,5.4c2,0,3.3-0.3,4.3-0.8l0.5,2c-1,0.4-2.7,1-5.2,1c-4.8,0-7.6-3.1-7.6-7.9
				c0-4.8,2.8-8.4,7.3-8.4c5.1,0,6.4,4.5,6.4,7.3c0,0.6-0.1,1.1-0.1,1.3C124.8,71.6,113.8,71.6,113.8,71.6z M122.1,69.5
				c0-1.8-0.7-4.6-3.9-4.6c-2.9,0-4.1,2.6-4.3,4.6H122.1z"/>
		</g>
		<g>
			<path class="st0" d="M135.2,57.5c1.7-0.2,3.8-0.4,6-0.4c4,0,6.9,0.9,8.8,2.7c2,1.8,3,4.3,3,7.8c0,3.5-1.1,6.4-3.1,8.4
				c-2,2-5.4,3.1-9.6,3.1c-2,0-3.7-0.1-5.1-0.2V57.5z M138,76.6c0.7,0.2,1.7,0.2,2.9,0.2c6,0,9.3-3.4,9.3-9.2c0-5.1-2.9-8.4-8.8-8.4
				c-1.5,0-2.5,0.2-3.3,0.3L138,76.6L138,76.6z"/>
		</g>
		<g>
			<path class="st0" d="M156.5,68.1c0-1.8,0-3.4-0.2-4.8h2.5l0.1,3h0.2c0.7-2,2.4-3.4,4.3-3.4c0.3,0,0.6,0,0.8,0.1v2.7
				c-0.3-0.1-0.6-0.1-1-0.1c-2,0-3.4,1.5-3.8,3.6c-0.1,0.4-0.2,0.8-0.2,1.3v8.3h-2.8L156.5,68.1L156.5,68.1z"/>
		</g>
		<g>
			<path class="st0" d="M168.3,71.6c0.1,3.9,2.5,5.4,5.3,5.4c2,0,3.3-0.3,4.3-0.8l0.5,2c-1,0.4-2.7,1-5.2,1c-4.8,0-7.6-3.1-7.6-7.9
				c0-4.8,2.8-8.4,7.3-8.4c5.1,0,6.4,4.5,6.4,7.3c0,0.6-0.1,1.1-0.1,1.3C179.3,71.6,168.3,71.6,168.3,71.6z M176.6,69.5
				c0-1.8-0.7-4.6-3.9-4.6c-2.9,0-4.1,2.6-4.3,4.6H176.6z"/>
		</g>
		<g>
			<path class="st0" d="M191.4,78.9l-0.2-2h-0.1c-0.9,1.2-2.5,2.3-4.8,2.3c-3.1,0-4.8-2.2-4.8-4.5c0-3.8,3.4-5.8,9.3-5.8v-0.3
				c0-1.3-0.3-3.6-3.5-3.6c-1.5,0-3,0.4-4,1.1l-0.7-1.9c1.3-0.8,3.1-1.4,5.1-1.4c4.8,0,5.9,3.3,5.9,6.4V75c0,1.3,0.1,2.7,0.2,3.8
				L191.4,78.9L191.4,78.9z M191,70.9c-3.1-0.1-6.6,0.5-6.6,3.5c0,1.8,1.2,2.7,2.7,2.7c2,0,3.3-1.3,3.8-2.6c0.1-0.3,0.2-0.6,0.2-0.9
				L191,70.9L191,70.9z"/>
		</g>
		<g>
			<path class="st0" d="M198.3,67.5c0-1.6,0-3-0.2-4.2h2.5l0.2,2.5h0.1c0.9-1.5,2.3-2.9,4.9-2.9c2.1,0,3.8,1.3,4.4,3.1h0.1
				c0.5-0.9,1.1-1.6,1.7-2c0.9-0.7,2-1.1,3.4-1.1c2,0,5.1,1.3,5.1,6.7v9.2h-2.8V70c0-3-1.1-4.8-3.4-4.8c-1.6,0-2.9,1.2-3.4,2.5
				c-0.2,0.4-0.2,0.9-0.2,1.4v9.6H208v-9.3c0-2.5-1.1-4.3-3.3-4.3c-1.8,0-3,1.4-3.5,2.9c-0.2,0.4-0.2,0.9-0.2,1.4V79h-2.8V67.5
				H198.3z"/>
		</g>
		<g>
			<path class="st0" d="M224.8,75.9c0.8,0.6,2.3,1.1,3.8,1.1c2,0,3-1.1,3-2.3c0-1.3-0.8-2-2.9-2.9c-2.8-1-4.1-2.5-4.1-4.4
				c0-2.5,2-4.6,5.4-4.6c1.6,0,3,0.4,3.9,1l-0.7,2c-0.6-0.4-1.7-0.9-3.2-0.9c-1.6,0-2.6,1-2.6,2.1c0,1.3,0.9,1.9,3,2.6
				c2.7,1.1,4.1,2.4,4.1,4.7c0,2.7-2.1,4.7-5.8,4.7c-1.7,0-3.3-0.4-4.3-1.1L224.8,75.9z"/>
		</g>
	</g>
	<g>
		<g>
			<path class="st0" d="M35.9,134.8c-2.2,1.1-6.5,2.2-12.2,2.2c-13.1,0-22.8-8.3-22.8-23.4C0.8,99.2,10.7,89.4,25,89.4
				c5.7,0,9.4,1.3,11,2.1l-1.5,4.8c-2.3-1.1-5.5-2-9.3-2c-10.8,0-18,6.9-18,19c0,11.4,6.5,18.6,17.8,18.6c3.7,0,7.3-0.8,9.8-2
				L35.9,134.8z"/>
		</g>
		<g>
			<path class="st0" d="M72.5,119.6c0,12.3-8.5,17.7-16.5,17.7c-9,0-16-6.5-16-17.1c0-11.1,7.2-17.7,16.4-17.7
				C66,102.5,72.5,109.3,72.5,119.6z M46.1,119.9c0,7.2,4.1,12.7,10.1,12.7c5.7,0,10.1-5.4,10.1-12.9c0-5.6-2.9-12.7-10-12.7
				S46.1,113.6,46.1,119.9z"/>
		</g>
		<g>
			<path class="st0" d="M80.1,112.2c0-3.4-0.1-6.2-0.2-9h5.3l0.2,5.4h0.2c1.8-3.1,4.9-6.1,10.4-6.1c4.5,0,7.9,2.8,9.4,6.7h0.1
				c1-1.8,2.3-3.3,3.7-4.4c2-1.5,4.1-2.3,7.3-2.3c4.4,0,10.9,2.9,10.9,14.5v19.5h-5.9v-18.8c0-6.4-2.3-10.2-7.2-10.2
				c-3.4,0-6.1,2.5-7.1,5.5c-0.2,0.8-0.5,2-0.5,3v20.4H101v-19.9c0-5.3-2.3-9.2-6.9-9.2c-3.8,0-6.5,3-7.5,6.1c-0.3,0.9-0.5,2-0.5,3
				v20h-5.9v-24.2H80.1z"/>
		</g>
		<g>
			<path class="st0" d="M140.7,120.9c0.1,8.1,5.4,11.5,11.4,11.5c4.4,0,6.9-0.8,9.2-1.7l1,4.4c-2.2,0.9-5.7,2.1-11,2.1
				c-10.2,0-16.3-6.8-16.3-16.8s5.9-17.9,15.6-17.9c10.8,0,13.8,9.5,13.8,15.6c0,1.3-0.1,2.2-0.2,2.9
				C164.1,120.9,140.7,120.9,140.7,120.9z M158.4,116.6c0.1-3.8-1.6-9.8-8.4-9.8c-6.1,0-8.8,5.6-9.3,9.8H158.4z"/>
		</g>
		<g>
			<path class="st0" d="M192.4,95.2h-14.1v-5h34.2v5h-14.1v41.2h-6.1V95.2H192.4z"/>
		</g>
		<g>
			<path class="st0" d="M214.4,113.6c0-3.9-0.1-7.2-0.2-10.3h5.3l0.2,6.5h0.2c1.5-4.5,5.2-7.2,9.2-7.2c0.7,0,1.1,0.1,1.7,0.2v5.7
				c-0.6-0.1-1.3-0.2-2.1-0.2c-4.2,0-7.2,3.2-8.1,7.8c-0.1,0.8-0.2,1.8-0.2,2.9v17.4h-6V113.6z"/>
		</g>
		<g>
			<path class="st0" d="M264.6,127.4c0,3.4,0.1,6.4,0.2,9.1h-5.4l-0.3-5.4H259c-1.6,2.6-5,6.2-11,6.2c-5.2,0-11.5-2.9-11.5-14.6
				v-19.5h6.1v18.4c0,6.3,2,10.6,7.5,10.6c4,0,6.9-2.9,7.9-5.5c0.3-0.9,0.6-2,0.6-3.1v-20.3h6.1V127.4L264.6,127.4z"/>
		</g>
		<g>
			<path class="st0" d="M278.1,120.9c0.1,8.1,5.4,11.5,11.4,11.5c4.4,0,6.9-0.8,9.2-1.7l1,4.4c-2.2,0.9-5.7,2.1-11,2.1
				c-10.2,0-16.3-6.8-16.3-16.8s5.9-17.9,15.6-17.9c10.8,0,13.8,9.5,13.8,15.6c0,1.3-0.1,2.2-0.2,2.9
				C301.5,120.9,278.1,120.9,278.1,120.9z M295.7,116.6c0.1-3.8-1.6-9.8-8.4-9.8c-6.1,0-8.8,5.6-9.3,9.8H295.7z"/>
		</g>
	</g>
	<g>
		<path class="st0" d="M54.4,43.4c-0.1,0-8.3-3.7-8.3-12.6s8.2-12.5,8.3-12.6l0.3,0.7c-0.1,0-7.7,3.6-7.7,11.9s7.7,11.8,7.7,11.9
			L54.4,43.4z"/>
	</g>
	<g>
		<path class="st0" d="M57.1,43.1c-0.1,0-8.7-3.4-8.7-12.2s9-12.5,9-12.6l0.3,0.7c-0.1,0-8.6,3.6-8.6,11.9s8,11.5,8.2,11.5
			L57.1,43.1z"/>
	</g>
	<g>
		<path class="st0" d="M263,43.4c-0.1,0-8.3-3.7-8.3-12.6s8.2-12.5,8.3-12.6l0.3,0.7c-0.1,0-7.7,3.6-7.7,11.9s7.7,11.8,7.7,11.9
			L263,43.4z"/>
	</g>
	<g>
		<path class="st0" d="M265.7,43.1c-0.1,0-8.7-3.4-8.7-12.2s9-12.5,9-12.6l0.3,0.7c-0.1,0-8.6,3.6-8.6,11.9s8,11.5,8.2,11.5
			L265.7,43.1z"/>
	</g>
	<g>
		<path class="st0" d="M66.4,79c-0.1,0-4.5-2-4.5-6.9s4.4-6.8,4.5-6.9l0.2,0.4c-0.1,0-4.2,1.9-4.2,6.5s4.2,6.4,4.2,6.5L66.4,79z"/>
	</g>
	<g>
		<path class="st0" d="M67.9,78.8c-0.1,0-4.8-1.9-4.8-6.6c0-4.8,4.9-6.8,4.9-6.9l0.2,0.4c-0.1,0-4.7,1.9-4.7,6.5
			c0,4.5,4.4,6.2,4.4,6.2L67.9,78.8z"/>
	</g>
	<g>
		<path class="st0" d="M88,43.4c-0.1,0-8.3-3.7-8.3-12.6s8.2-12.5,8.3-12.6l0.3,0.7c-0.1,0-7.7,3.6-7.7,11.9s7.7,11.8,7.7,11.9
			L88,43.4z"/>
	</g>
	<g>
		<path class="st0" d="M90.8,43.1c-0.1,0-8.7-3.4-8.7-12.2s9-12.5,9-12.6l0.3,0.7c-0.1,0-8.6,3.6-8.6,11.9s8,11.5,8.2,11.5
			L90.8,43.1z"/>
	</g>
	<g>
		<path class="st0" d="M57.3,134.9c-0.1,0-9.5-4.4-9.5-14.6s9.5-14.5,9.5-14.6l0.3,0.8c-0.1,0-9.1,4.1-9.1,13.7s9,13.7,9.1,13.7
			L57.3,134.9z"/>
	</g>
	<g>
		<path class="st0" d="M60.4,134.5c-0.1,0-10.1-3.9-10.1-14.1s10.3-14.5,10.4-14.6l0.3,0.8c-0.1,0-9.9,4.1-9.9,13.7
			s9.4,13.2,9.4,13.2L60.4,134.5z"/>
	</g>
	<g>
		<path class="st0" d="M289.6,134.9c-0.1,0-9.5-4.4-9.5-14.6s9.5-14.5,9.5-14.6l0.3,0.8c-0.1,0-9.1,4.1-9.1,13.7s9,13.7,9.1,13.7
			L289.6,134.9z"/>
	</g>
	<g>
		<path class="st0" d="M292.7,134.5c-0.1,0-10.1-3.9-10.1-14.1s10.3-14.5,10.4-14.6l0.3,0.8c-0.1,0-9.9,4.1-9.9,13.7
			s9.4,13.2,9.4,13.2L292.7,134.5z"/>
	</g>
	<g>
		<path class="st0" d="M121.3,43.4c-0.1,0-8.3-3.7-8.3-12.6s8.2-12.5,8.3-12.6l0.3,0.7c-0.1,0-7.7,3.6-7.7,11.9s7.7,11.8,7.7,11.9
			L121.3,43.4z"/>
	</g>
	<g>
		<path class="st0" d="M123.9,43.1c-0.1,0-8.7-3.4-8.7-12.2s9-12.5,9-12.6l0.3,0.7c-0.1,0-8.6,3.6-8.6,11.9s8,11.5,8.2,11.5
			L123.9,43.1z"/>
	</g>
	<g>
		<path class="st0" d="M230.9,44c0,0-5.9-2.3-5.9-7.5s5.7-7.5,5.9-7.5l0.1,0.4c0,0-5.4,2.1-5.4,7s5.4,6.9,5.4,7L230.9,44z"/>
	</g>
	<g>
		<path class="st0" d="M232.8,43.7c0,0-6.2-2-6.2-7.2s6.3-7.5,6.4-7.5l0.1,0.4c0,0-6,2.1-6,6.9c0,4.9,5.7,6.7,5.7,6.7L232.8,43.7z"
			/>
	</g>
	<g>
		<rect x="33.7" y="23.8" class="st0" width="0.9" height="19.2"/>
	</g>
	<g>
		<rect x="87.7" y="59" class="st0" width="0.5" height="18.8"/>
	</g>
	<g>
		<rect x="97.7" y="56.6" class="st0" width="0.5" height="22.3"/>
	</g>
	<g>
		<rect x="139" y="58.4" class="st0" width="0.4" height="20.5"/>
	</g>
	<g>
		<rect x="140" y="58.4" class="st0" width="0.4" height="20.5"/>
	</g>
	<g>
		<rect x="87.4" y="107.7" class="st0" width="0.6" height="28.7"/>
	</g>
	<g>
		<rect x="88.9" y="107.7" class="st0" width="0.6" height="28.7"/>
	</g>
	<g>
		<rect x="107.9" y="107.7" class="st0" width="0.6" height="28.7"/>
	</g>
	<g>
		<rect x="109.4" y="107.7" class="st0" width="0.6" height="28.7"/>
	</g>
	<g>
		<rect x="244.1" y="103" class="st0" width="0.7" height="31"/>
	</g>
	<g>
		<rect x="245.6" y="103" class="st0" width="0.7" height="31"/>
	</g>
	<g>
		<rect x="265.7" y="103" class="st0" width="0.7" height="31"/>
	</g>
	<g>
		<rect x="267.3" y="103" class="st0" width="0.7" height="31"/>
	</g>
	<g>
		<rect x="201.7" y="64.8" class="st0" width="0.3" height="14.1"/>
	</g>
	<g>
		<rect x="202.7" y="64.8" class="st0" width="0.3" height="14.1"/>
	</g>
	<g>
		<rect x="211.5" y="64.8" class="st0" width="0.3" height="14.1"/>
	</g>
	<g>
		<rect x="212.6" y="64.8" class="st0" width="0.3" height="14.1"/>
	</g>
	<g>
		<rect x="108.1" y="68.4" class="st0" width="0.5" height="10.5"/>
	</g>
</g>
</svg>
