<?xml version="1.0" encoding="utf-8"?>
<!-- Generator: Adobe Illustrator 27.8.0, SVG Export Plug-In . SVG Version: 6.00 Build 0)  -->
<svg version="1.1" id="Layer_2_00000002363726256886573940000015741861240782096517_"
	 xmlns="http://www.w3.org/2000/svg" xmlns:xlink="http://www.w3.org/1999/xlink" x="0px" y="0px" viewBox="0 0 317.3 142.9"
	 style="enable-background:new 0 0 317.3 142.9;" xml:space="preserve">
<style type="text/css">
	.st0{fill:#8D288F;}
</style>
<g id="Layer_1-2_00000042004341371638929290000003512628344959543724_">
	<path class="st0" d="M134.6,76.8v64.4h-5.4v-3.4H78.4v3.4h-5.3V76.8H134.6L134.6,76.8L134.6,76.8z M129.2,132.9v-51H78.4v51
		L129.2,132.9L129.2,132.9z M110.5,121.9c5.2,1.9,11.1,4.4,14.5,6.7l-4.4,2.1c-3-2.1-8.4-4.7-13.6-6.6l3.2-2.2h-14l4,1.3
		c-3.7,2.8-9.6,5.7-14.4,7.4c-0.7-0.8-2.4-2.4-3.3-3.1c4.9-1.5,10.2-3.4,13.4-5.6h-9.8V99.1h35.3v22.7L110.5,121.9L110.5,121.9
		L110.5,121.9z M118.5,96.4H89.3V86h29.2V96.4z M90.8,105.7h25.7v-3.4H90.8V105.7z M90.8,112.1h25.7v-3.4H90.8V112.1z M90.8,118.7
		h25.7v-3.6H90.8V118.7z M113.6,89.1H93.9v4.2h19.8V89.1z"/>
	<path class="st0" d="M186.6,94.2c-0.2,8.3-1.3,18.3-6.2,28.1c3.7,3.3,7.1,6.4,9.3,9l-3.6,4.6c-2.1-2.5-5.1-5.6-8.5-8.7
		c-3.3,5-7.8,9.8-13.8,14.1c-0.8-1.2-2.7-3-3.9-3.8c6.1-4.3,10.4-9.1,13.6-14c-3.9-3.5-8.1-6.9-11.9-9.8c1.5-4.8,3-11.4,4.5-18.3
		l-5.9,0.3l-0.6-5.3c2.2-0.1,4.7-0.2,7.4-0.3c1-5.6,1.9-11.5,2.4-16.5l5.4,0.3c-0.6,5-1.5,10.5-2.4,16l9-0.5V84h5.2v5.1l4.3-0.2
		l-0.1,5L186.6,94.2L186.6,94.2L186.6,94.2z M171.4,95.1c-1.2,6-2.6,11.9-3.9,16.7c2.8,2.2,5.8,4.4,8.6,6.9c4.1-8.4,5-17,5.2-24.2
		L171.4,95.1L171.4,95.1L171.4,95.1z M227.4,109.9h-16.3v24.6c0,3.3-0.8,4.8-3.1,5.7c-2.3,0.8-5.9,1-11.6,0.9
		c-0.3-1.6-1.2-3.7-2-5.3c4.4,0.2,8.4,0.2,9.6,0.1c1.2,0,1.6-0.4,1.6-1.4v-24.6h-17.1v-5.3h17.1v-8.4c3.8-3.1,7.8-7.9,10.8-12.2
		h-24.7v-5.1h28.4l1.3-0.3l3.8,2.7c-3.6,5.5-8.9,11.7-14.1,16.2v7.1h16.3L227.4,109.9L227.4,109.9L227.4,109.9z"/>
	<path class="st0" d="M265.5,83h-21.3v-4.8h21.3v-4.7h5.4v13.5h-5.4V83L265.5,83L265.5,83z M244.8,107.5h63.7v12.3h-5.4V112H250v7.8
		h-5.2L244.8,107.5L244.8,107.5z M294,116l3.4,2.2c-8.7,14-29.3,20.1-48.9,22.4c-0.4-1.3-1.5-3.6-2.4-4.8c8.7-0.7,17.8-2.4,25.8-5.2
		c-2.7-2.4-6.6-5.3-10.2-7.3c-1.9,1-4.1,1.9-6.4,2.6c-0.7-1.2-2.2-3-3.3-3.8c8.6-2.5,14.5-6.2,17.6-10.1l5.5,1.2
		c-0.9,1.1-1.8,2.1-2.7,3h20.6L294,116L294,116L294,116z M250.9,88.5h52.4v15.4h-52.4V88.5z M255.9,100h10.7v-7.6h-10.7V100z
		 M265.9,121.1c3.9,2.2,8.2,5.3,10.8,7.7c5-2.3,9.4-5,12.6-8.4h-22.2L265.9,121.1L265.9,121.1z M271.3,100h11v-7.6h-11V100z
		 M308.8,78.2v4.7h-21v4h-5.4V73.5h5.4v4.7L308.8,78.2L308.8,78.2L308.8,78.2z M287.1,100h11.1v-7.6h-11.1V100z"/>
	<rect x="142.6" y="77.7" class="st0" width="0.5" height="63.5"/>
	<rect x="139.3" y="77.7" class="st0" width="1" height="63.5"/>
	<rect x="136" y="77.7" class="st0" width="1.6" height="63.5"/>
	<rect x="316.6" y="107.2" class="st0" width="0.5" height="12.6"/>
	<rect x="313.3" y="107.2" class="st0" width="1" height="12.6"/>
	<rect x="309.9" y="107.2" class="st0" width="1.6" height="12.6"/>
	<rect x="311.9" y="88.5" class="st0" width="0.5" height="15.4"/>
	<rect x="308.6" y="88.5" class="st0" width="1" height="15.4"/>
	<rect x="305.3" y="88.5" class="st0" width="1.6" height="15.4"/>
	<rect x="317.1" y="77.9" class="st0" width="0.5" height="5"/>
	<rect x="313.7" y="77.9" class="st0" width="1" height="5"/>
	<rect x="310.4" y="77.9" class="st0" width="1.6" height="5"/>
	<rect x="295.7" y="73.5" class="st0" width="0.5" height="13.5"/>
	<rect x="292.3" y="73.5" class="st0" width="1" height="13.5"/>
	<rect x="289" y="73.5" class="st0" width="1.6" height="13.5"/>
	<rect x="278.9" y="73.5" class="st0" width="0.5" height="13.5"/>
	<rect x="275.5" y="73.5" class="st0" width="1" height="13.5"/>
	<rect x="272.2" y="73.5" class="st0" width="1.6" height="13.5"/>
	<rect x="263.5" y="89.5" class="st0" width="0.5" height="13.5"/>
	<rect x="260.1" y="89.5" class="st0" width="1" height="13.5"/>
	<rect x="256.8" y="89.5" class="st0" width="1.6" height="13.5"/>
	<rect x="258.2" y="108.7" class="st0" width="0.5" height="11.1"/>
	<rect x="254.8" y="108.7" class="st0" width="1" height="11.1"/>
	<rect x="251.5" y="108.7" class="st0" width="1.6" height="11.1"/>
	<rect x="87.1" y="77.7" class="st0" width="0.5" height="63.5"/>
	<rect x="83.7" y="77.7" class="st0" width="1" height="63.5"/>
	<rect x="80.4" y="77.7" class="st0" width="1.6" height="63.5"/>
	<path class="st0" d="M215.3,141.5l-0.2-0.5c1.5-0.5,3.4-2.7,3.4-4.3V98.2l0.1-0.1c0.1-0.1,9.6-9.4,13.8-15.3l0.4,0.3
		c-4,5.6-12.8,14.4-13.7,15.3v38.2C219.1,138.5,217,140.9,215.3,141.5L215.3,141.5z"/>
	<path class="st0" d="M212.3,141.7l-0.3-1c1.4-0.4,3.3-2.6,3.3-4.1V98.1l0.2-0.2c0.1-0.1,9.6-9.4,13.7-15.3l0.9,0.6
		c-3.9,5.5-12.4,14-13.7,15.3v38.1C216.3,138.7,214.1,141.2,212.3,141.7L212.3,141.7z"/>
	<path class="st0" d="M209.3,142l-0.5-1.5c1.3-0.4,3.1-2.4,3.1-3.8V98l0.2-0.2c0.1-0.1,9.6-9.4,13.7-15.3l1.3,0.9
		c-3.9,5.5-12.1,13.7-13.7,15.3v38C213.5,138.8,211.2,141.4,209.3,142L209.3,142z"/>
	<path class="st0" d="M102.3,20.2c-0.2,8.3-1.3,18.3-6.2,28.1c3.7,3.3,7.1,6.4,9.3,9l-3.6,4.6c-2.1-2.5-5.1-5.6-8.5-8.7
		c-3.3,5-7.8,9.8-13.8,14.1c-0.8-1.2-2.7-3-3.9-3.8c6.1-4.3,10.4-9.1,13.6-14c-3.9-3.5-8.1-6.9-11.9-9.8c1.5-4.8,3-11.4,4.5-18.3
		L76,21.7l-0.6-5.3c2.2-0.1,4.7-0.2,7.4-0.3c1-5.6,1.9-11.5,2.4-16.5l5.4,0.3c-0.6,5-1.5,10.5-2.4,16l9-0.5V10h5.2v5.1l4.3-0.2
		l-0.1,5L102.3,20.2L102.3,20.2L102.3,20.2z M87.2,21.1c-1.2,6-2.6,11.9-3.9,16.7c2.8,2.2,5.8,4.4,8.6,6.9c4.1-8.4,5-17,5.2-24.2
		L87.2,21.1L87.2,21.1L87.2,21.1z M143.2,35.9h-16.3v24.6c0,3.3-0.8,4.8-3.1,5.7c-2.3,0.8-5.9,1-11.6,0.9c-0.3-1.6-1.2-3.7-2-5.3
		c4.4,0.2,8.4,0.2,9.6,0.1c1.2,0,1.6-0.4,1.6-1.4V35.9h-17.1v-5.3h17.1v-8.4c3.8-3.1,7.8-7.9,10.8-12.2h-24.7V4.9h28.4l1.3-0.3
		l3.8,2.7c-3.6,5.5-8.9,11.7-14.1,16.2v7.1h16.3L143.2,35.9L143.2,35.9L143.2,35.9z"/>
	<path class="st0" d="M225.1,36.6v4.1h-65.5v-4.1h29.8v-4.4h-24.8v-3.7h24.8v-4.1h-22.7v-3.6h22.7v-4.3h-29.7v-4.1h29.7V8.1h-21.9
		V4.4h21.9v-5.1h5.4v5.1H216v7.9h9v4.1h-9v7.9h-21.2v4.1H220v3.7h-25.3v4.4L225.1,36.6L225.1,36.6z M168.8,44.3h47.8V67h-5.4v-2.2
		h-37v2.4h-5.3L168.8,44.3L168.8,44.3z M174.1,48.1v4.5h33v3.6h-33v4.7h37V48.1L174.1,48.1L174.1,48.1z M194.8,12.3h15.8V8.1h-15.8
		V12.3z M194.8,20.8h15.8v-4.3h-15.8V20.8z"/>
	<rect x="69.6" y="0.1" class="st0" width="0.5" height="65.5"/>
	<rect x="66.2" y="0.1" class="st0" width="1" height="65.5"/>
	<rect x="62.9" y="0.1" class="st0" width="1.6" height="65.5"/>
	<rect x="28.5" y="39.9" class="st0" width="0.5" height="6.6"/>
	<rect x="25.2" y="39.9" class="st0" width="1" height="6.6"/>
	<rect x="21.8" y="39.9" class="st0" width="1.6" height="6.6"/>
	<rect x="46.2" y="2.9" class="st0" width="0.5" height="17.6"/>
	<rect x="42.9" y="2.9" class="st0" width="1" height="17.6"/>
	<rect x="39.5" y="2.9" class="st0" width="1.6" height="17.6"/>
	<rect x="12.9" y="2.9" class="st0" width="0.5" height="63.4"/>
	<rect x="9.5" y="2.9" class="st0" width="1" height="63.4"/>
	<rect x="6.2" y="2.9" class="st0" width="1.6" height="63.4"/>
	<rect x="151.3" y="30.4" class="st0" width="0.5" height="5.6"/>
	<rect x="147.9" y="30.4" class="st0" width="1" height="5.6"/>
	<rect x="144.6" y="30.4" class="st0" width="1.6" height="5.6"/>
	<rect x="223.9" y="5.3" class="st0" width="0.5" height="7"/>
	<rect x="220.5" y="5.3" class="st0" width="1" height="7"/>
	<rect x="217.2" y="5.3" class="st0" width="1.6" height="7"/>
	<rect x="223.9" y="16.5" class="st0" width="0.5" height="7"/>
	<rect x="220.5" y="16.5" class="st0" width="1" height="7"/>
	<rect x="217.2" y="16.5" class="st0" width="1.6" height="7"/>
	<rect x="224.9" y="44.3" class="st0" width="0.5" height="22.9"/>
	<rect x="221.6" y="44.3" class="st0" width="1" height="22.9"/>
	<rect x="218.2" y="44.3" class="st0" width="1.6" height="22.9"/>
	<rect x="182.5" y="44.3" class="st0" width="0.5" height="22.9"/>
	<rect x="179.2" y="44.3" class="st0" width="1" height="22.9"/>
	<rect x="175.9" y="44.3" class="st0" width="1.6" height="22.9"/>
	<rect x="203" y="5.1" class="st0" width="0.5" height="32.7"/>
	<rect x="199.6" y="5.1" class="st0" width="1" height="32.7"/>
	<rect x="196.3" y="5.1" class="st0" width="1.6" height="32.7"/>
	<rect x="232.6" y="12.4" class="st0" width="0.5" height="4.2"/>
	<rect x="229.2" y="12.4" class="st0" width="1" height="4.2"/>
	<rect x="225.9" y="12.4" class="st0" width="1.6" height="4.2"/>
	<rect x="228.3" y="28.3" class="st0" width="0.5" height="4.2"/>
	<rect x="225" y="28.3" class="st0" width="1" height="4.2"/>
	<rect x="221.6" y="28.3" class="st0" width="1.6" height="4.2"/>
	<rect x="233.1" y="36.6" class="st0" width="0.5" height="4.2"/>
	<rect x="229.7" y="36.6" class="st0" width="1" height="4.2"/>
	<rect x="226.4" y="36.6" class="st0" width="1.6" height="4.2"/>
	<path class="st0" d="M131.3,67.5l-0.2-0.5c1.5-0.5,3.5-2.7,3.5-4.3V24.2l0.1-0.1c0.1-0.1,9.6-9.4,13.8-15.3l0.4,0.3
		c-4,5.6-12.8,14.4-13.7,15.3v38.2C135.1,64.5,133,67,131.3,67.5L131.3,67.5z"/>
	<path class="st0" d="M128.3,67.7l-0.3-1c1.4-0.4,3.3-2.6,3.3-4.1V24.1l0.2-0.2c0.1-0.1,9.6-9.4,13.7-15.3l0.9,0.6
		c-3.9,5.5-12.4,14-13.7,15.3v38.1C132.3,64.7,130.1,67.2,128.3,67.7L128.3,67.7z"/>
	<path class="st0" d="M125.3,68l-0.5-1.5c1.3-0.4,3.1-2.4,3.1-3.8V24l0.2-0.2c0.1-0.1,9.6-9.4,13.7-15.3l1.3,0.9
		c-3.9,5.5-12.1,13.7-13.7,15.3v38C129.5,64.8,127.2,67.4,125.3,68L125.3,68z"/>
</g>
<g>
	<path class="st0" d="M26.6,23.2H5v43.1H0V0.1h26.6V23.2z M21.8,3.9H5v5.8h16.8V3.9z M5,19.5h16.8v-6.1H5V19.5z M27.5,50.9
		c-0.1,0.5-0.5,0.8-1.3,0.9c-1.4,6.1-4.8,10.5-14.9,13c-0.5-1-1.7-2.8-2.6-3.5c9.1-1.8,12.3-5,13.3-10.9L27.5,50.9z M37.4,58.8
		c0,1.4,0.2,1.6,1.8,1.6h5.1c1.4,0,1.7-0.5,1.8-5.2c0.9,0.7,2.6,1.3,3.8,1.5c-0.5,6.1-1.7,7.6-5.1,7.6h-6.3c-4.5,0-5.6-1.1-5.6-5.4
		V50H16.4V39.1c-1.3,1.1-2.7,2.2-4.2,3.1c-0.8-0.8-2.1-2.1-3-2.8c4.5-2.6,8.6-7.1,10.3-11.3l5.4,1.3c-0.2,0.5-0.6,0.8-1.4,0.8
		c-1,2-2.6,4.2-4.5,6.3h22.7c-1.7-1.7-3.2-3.7-4.2-5.8H25.7v-3.8h14.5c2,5.1,6.8,9.5,11.5,11.7c-1.1,0.8-2.6,2.2-3.4,3.2
		c-1.3-0.8-2.5-1.6-3.7-2.6V50h-6.9l-0.4,0.1V58.8z M20.6,39.9v6.6h19.6v-6.6H20.6z M61.3,0.1V60c0,5.7-2.3,6.3-10.2,6.3
		c-0.2-1.4-0.8-3.8-1.5-5.2c1.3,0,2.5,0.1,3.5,0.1c2.9,0,3.2,0,3.2-1.2V23.2H33.8V0.1H61.3z M56.2,3.9H38.7v5.8h17.5V3.9z
		 M38.7,19.5h17.5v-6.1H38.7V19.5z"/>
</g>
</svg>
