<?xml version="1.0" encoding="UTF-8"?><svg xmlns="http://www.w3.org/2000/svg" xmlns:xlink="http://www.w3.org/1999/xlink" viewBox="0 0 2223.64 97.18"><defs><style>.cls-1{fill:url(#_Безымянный_градиент_172-3);}.cls-1,.cls-2,.cls-3,.cls-4,.cls-5,.cls-6,.cls-7,.cls-8,.cls-9,.cls-10,.cls-11,.cls-12{fill-rule:evenodd;}.cls-2{fill:url(#_Безымянный_градиент_172-8);}.cls-3{fill:url(#_Безымянный_градиент_172-9);}.cls-4{fill:url(#_Безымянный_градиент_172-4);}.cls-5{fill:url(#_Безымянный_градиент_172-6);}.cls-6{fill:url(#_Безымянный_градиент_172-2);}.cls-7{fill:url(#_Безымянный_градиент_172-7);}.cls-8{fill:url(#_Безымянный_градиент_172-5);}.cls-9{fill:url(#_Безымянный_градиент_255);opacity:.8;}.cls-9,.cls-13{mix-blend-mode:multiply;}.cls-10{fill:url(#_Безымянный_градиент_184);mix-blend-mode:screen;opacity:.5;}.cls-14{isolation:isolate;}.cls-14,.cls-13{fill:none;}.cls-13{opacity:.2;}.cls-11{fill:url(#_Безымянный_градиент_172);}.cls-12{fill:url(#_Безымянный_градиент_251);}</style><linearGradient id="_Безымянный_градиент_251" x1="1111.82" y1="97.18" x2="1111.82" y2=".25" gradientUnits="userSpaceOnUse"><stop offset="0" stop-color="#f47930"/><stop offset=".98" stop-color="#f8972d"/></linearGradient><linearGradient id="_Безымянный_градиент_172" x1="1088.95" y1="83.46" x2="1088.95" y2=".25" gradientUnits="userSpaceOnUse"><stop offset="0" stop-color="#bf218e"/><stop offset="1" stop-color="#f59091"/></linearGradient><linearGradient id="_Безымянный_градиент_172-2" x1="1099.98" y1="53.54" x2="1099.98" y2="0" xlink:href="#_Безымянный_градиент_172"/><linearGradient id="_Безымянный_градиент_172-3" x1="1754.24" y1="92.74" x2="1754.24" xlink:href="#_Безымянный_градиент_172"/><linearGradient id="_Безымянный_градиент_172-4" x1="1865.87" y1="92.49" x2="1865.87" y2="0" xlink:href="#_Безымянный_градиент_172"/><linearGradient id="_Безымянный_градиент_172-5" x1="1206.92" y1="41.11" x2="1206.92" y2="0" xlink:href="#_Безымянный_градиент_172"/><linearGradient id="_Безымянный_градиент_172-6" x1="625.08" y1="96.05" x2="625.08" y2="55.88" xlink:href="#_Безымянный_градиент_172"/><linearGradient id="_Безымянный_градиент_172-7" x1="349.13" y1="97.18" x2="349.13" y2="0" xlink:href="#_Безымянный_градиент_172"/><linearGradient id="_Безымянный_градиент_172-8" x1="182.32" y1="97.18" x2="182.32" y2="0" xlink:href="#_Безымянный_градиент_172"/><linearGradient id="_Безымянный_градиент_172-9" x1="118.92" y1="97.18" x2="118.92" y2="0" xlink:href="#_Безымянный_градиент_172"/><linearGradient id="_Безымянный_градиент_184" x1="1111.82" y1="18.41" x2="1111.82" y2=".25" gradientUnits="userSpaceOnUse"><stop offset="0" stop-color="#010101"/><stop offset=".16" stop-color="#221803"/><stop offset=".5" stop-color="#78550a"/><stop offset="1" stop-color="#fcb316"/></linearGradient><linearGradient id="_Безымянный_градиент_255" x1="1111.82" y1="97.18" x2="1111.82" y2="83.46" gradientUnits="userSpaceOnUse"><stop offset="0" stop-color="#bf218e"/><stop offset=".12" stop-color="#cb4ba3"/><stop offset=".29" stop-color="#da81bf"/><stop offset=".45" stop-color="#e7aed5"/><stop offset=".61" stop-color="#f1d1e7"/><stop offset=".76" stop-color="#f9eaf4"/><stop offset=".89" stop-color="#fdf9fc"/><stop offset="1" stop-color="#fff"/></linearGradient></defs><g class="cls-14"><g id="Layer_2"><g id="Layer_2-2"><polygon class="cls-12" points="0 .25 2223.64 .25 2223.64 91.56 0 97.18 0 .25"/><g class="cls-13"><path class="cls-11" d="m445.17.25s566.26,88.62,872.98,82.95C1624.87,77.52,1732.73.25,1732.73.25h-29.14s-169.2,77.65-480.61,68.65C911.56,59.89,514.27.25,514.27.25h-69.1Z"/><path class="cls-6" d="m596.01.25s727.48,119.9,1007.93,0l-11.1-.25s-243.49,110.39-972.41,0l-24.43.25Z"/><path class="cls-1" d="m1575.4,92.74s208.73-6.29,350.72-92.49h6.97s-94.23,74.84-307.81,92.49h-49.87Z"/><path class="cls-4" d="m1694.53,92.49s222.58-23.96,323.63-92.49l19.04.25s-58.72,58.9-254.63,92.24h-88.05Z"/><path class="cls-8" d="m1021.54,0h21.35s255.04,82.52,332.56.25l16.85-.25s-73.31,92.49-370.76,0Z"/><path class="cls-5" d="m445.17,96.05s87.63-25.85,176.95-38.2c89.32-12.35,182.87,37.29,182.87,37.29l-47.2.08s-95.78-52.52-275.54.28l-37.08.55Z"/><path class="cls-7" d="m321.59.25s154.77,28.92,164.88,48.46c10.11,19.54-221.05,48.46-221.05,48.46h-53.93s181.59-25.97,194.37-50.68C418.63,21.78,282.26,0,282.26,0l39.32.25Z"/><path class="cls-2" d="m81.15,0s216.84,9.19,222.46,41.11c5.62,31.92-201.11,56.07-201.11,56.07h-21.35s199.71-22.74,204.76-55.32C290.97,9.27,60.93.25,60.93.25l20.22-.25Z"/><path class="cls-3" d="m55.03,96.05s160.27-21.27,172.74-47.34C240.25,22.64,33.12,0,33.12,0H9.53s203.81,29.24,201.95,48.03c-1.86,18.79-188.47,49.15-188.47,49.15l32.02-1.12Z"/></g><path class="cls-10" d="m2223.64.25H0S1402.04,41.11,2223.64.25Z"/><polygon class="cls-9" points="0 83.46 2223.64 83.46 2223.64 91.61 0 97.18 0 83.46"/></g></g></g></svg>