<?xml version="1.0" encoding="utf-8"?>
<!-- Generator: Adobe Illustrator 27.8.0, SVG Export Plug-In . SVG Version: 6.00 Build 0)  -->
<svg version="1.1" id="Layer_2_00000152249435195685492720000008050872028776498077_"
	 xmlns="http://www.w3.org/2000/svg" xmlns:xlink="http://www.w3.org/1999/xlink" x="0px" y="0px" viewBox="0 0 610.3 274.5"
	 style="enable-background:new 0 0 610.3 274.5;" xml:space="preserve">
<style type="text/css">
	.st0{fill:#FFFFFF;}
</style>
<g>
	<g>
		<path class="st0" d="M56.9,75.9c-3,1.1-9,2.9-16.1,2.9c-7.9,0-14.4-2-19.6-6.9c-4.5-4.4-7.3-11.3-7.3-19.5
			c0.1-15.6,10.8-27,28.4-27c6.1,0,10.8,1.3,13.1,2.4l-1.6,5.5C50.9,32,47.4,31,42.1,31C29.4,31,21,39,21,52.1
			c0,13.3,8,21.1,20.2,21.1c4.4,0,7.5-0.6,9-1.4V56.2H39.6v-5.4h17.2V75.9z"/>
	</g>
	<g>
		<path class="st0" d="M101.4,59.2c0,13.9-9.6,20-18.7,20c-10.2,0-18-7.5-18-19.3c0-12.6,8.2-20,18.6-20
			C94.1,39.8,101.4,47.7,101.4,59.2z M71.5,59.5C71.5,67.8,76.3,74,83,74c6.5,0,11.4-6.1,11.4-14.6c0-6.4-3.2-14.4-11.3-14.4
			S71.5,52.4,71.5,59.5z"/>
	</g>
	<g>
		<path class="st0" d="M144,59.2c0,13.9-9.6,20-18.7,20c-10.2,0-18-7.5-18-19.3c0-12.6,8.2-20,18.6-20C136.7,39.8,144,47.7,144,59.2
			z M114.2,59.5c0,8.2,4.7,14.4,11.4,14.4c6.5,0,11.4-6.1,11.4-14.6c0-6.4-3.2-14.4-11.3-14.4S114.2,52.4,114.2,59.5z"/>
	</g>
	<g>
		<path class="st0" d="M185.1,23.1v45.4c0,3.3,0.1,7.1,0.3,9.7h-6.1l-0.3-6.5h-0.2c-2.1,4.2-6.7,7.4-12.8,7.4
			c-9.1,0-16.1-7.7-16.1-19.1c-0.1-12.5,7.7-20.2,16.9-20.2c5.7,0,9.6,2.7,11.3,5.7h0.2V23.1H185.1z M178.3,56c0-0.9-0.1-2-0.3-2.9
			c-1-4.4-4.7-7.9-9.9-7.9c-7.1,0-11.3,6.2-11.3,14.5c0,7.6,3.7,13.9,11.1,13.9c4.6,0,8.8-3,10-8.2c0.2-0.9,0.3-1.9,0.3-3V56z"/>
	</g>
	<g>
		<path class="st0" d="M213.1,26.6c3.4-0.7,8.3-1.1,13-1.1c7.2,0,11.9,1.3,15.1,4.3c2.6,2.3,4.1,5.9,4.1,9.9
			c0,6.9-4.4,11.5-9.9,13.4v0.2c4,1.4,6.4,5.1,7.7,10.6c1.7,7.3,3,12.4,4,14.4h-7c-0.9-1.5-2-6-3.5-12.5c-1.6-7.2-4.4-9.9-10.5-10.2
			h-6.4v22.7h-6.8V26.6z M219.9,50.5h6.9c7.2,0,11.8-4,11.8-9.9c0-6.8-4.9-9.7-12-9.8c-3.3,0-5.6,0.3-6.7,0.6V50.5z"/>
	</g>
	<g>
		<path class="st0" d="M258.8,60.7c0.2,9.2,6.1,13.1,12.9,13.1c4.9,0,7.8-0.9,10.4-1.9l1.2,4.9c-2.4,1.1-6.5,2.3-12.5,2.3
			c-11.6,0-18.5-7.6-18.5-19s6.7-20.3,17.6-20.3c12.3,0,15.5,10.8,15.5,17.7c0,1.4-0.2,2.5-0.2,3.2H258.8z M278.9,55.8
			c0.1-4.4-1.8-11.1-9.5-11.1c-6.9,0-9.9,6.4-10.5,11.1H278.9z"/>
	</g>
	<g>
		<path class="st0" d="M314.7,78.3l-0.5-4.7H314c-2.1,3-6.1,5.6-11.5,5.6c-7.6,0-11.5-5.4-11.5-10.8c0-9.1,8.1-14.1,22.6-14v-0.8
			c0-3.1-0.9-8.7-8.5-8.7c-3.5,0-7.1,1.1-9.8,2.8l-1.6-4.5c3.1-2,7.6-3.3,12.4-3.3c11.5,0,14.3,7.8,14.3,15.4v14.1
			c0,3.3,0.2,6.4,0.6,9H314.7z M313.7,59.1c-7.5-0.2-15.9,1.2-15.9,8.5c0,4.4,3,6.5,6.4,6.5c4.9,0,8-3.1,9.1-6.3
			c0.2-0.7,0.4-1.5,0.4-2.2V59.1z"/>
	</g>
	<g>
		<path class="st0" d="M363.8,23.1v45.4c0,3.3,0.1,7.1,0.3,9.7H358l-0.3-6.5h-0.2c-2.1,4.2-6.7,7.4-12.8,7.4
			c-9.1,0-16.1-7.7-16.1-19.1c-0.1-12.5,7.7-20.2,16.9-20.2c5.7,0,9.6,2.7,11.3,5.7h0.2V23.1H363.8z M357,56c0-0.9-0.1-2-0.3-2.9
			c-1-4.4-4.7-7.9-9.9-7.9c-7.1,0-11.3,6.2-11.3,14.5c0,7.6,3.7,13.9,11.1,13.9c4.6,0,8.8-3,10-8.2c0.2-0.9,0.3-1.9,0.3-3V56z"/>
	</g>
	<g>
		<path class="st0" d="M374.2,71.3c2,1.3,5.6,2.7,9,2.7c5,0,7.3-2.5,7.3-5.6c0-3.3-1.9-5-7-6.9c-6.8-2.4-9.9-6.1-9.9-10.6
			c0-6.1,4.9-11,13-11c3.8,0,7.1,1.1,9.2,2.3l-1.7,5c-1.5-0.9-4.2-2.2-7.7-2.2c-4,0-6.3,2.3-6.3,5.1c0,3.1,2.3,4.5,7.1,6.4
			c6.5,2.5,9.9,5.7,9.9,11.3c0,6.6-5.1,11.3-14.1,11.3c-4.1,0-7.9-1-10.6-2.6L374.2,71.3z"/>
	</g>
	<g>
		<path class="st0" d="M466.8,55.3c-0.4-7.3-0.9-16.1-0.8-22.6h-0.2c-1.8,6.1-4,12.7-6.6,19.9L449.9,78h-5.1L436.3,53
			c-2.5-7.4-4.6-14.1-6.1-20.4h-0.2c-0.2,6.5-0.5,15.3-1,23.1l-1.4,22.5h-6.4l3.7-52.4h8.6l8.9,25.3c2.2,6.4,4,12.2,5.3,17.6h0.2
			c1.3-5.3,3.2-11,5.5-17.6l9.3-25.3h8.6l3.3,52.4h-6.6L466.8,55.3z"/>
	</g>
	<g>
		<path class="st0" d="M506.1,78.3l-0.5-4.7h-0.2c-2.1,3-6.1,5.6-11.5,5.6c-7.6,0-11.5-5.4-11.5-10.8c0-9.1,8.1-14.1,22.6-14v-0.8
			c0-3.1-0.9-8.7-8.5-8.7c-3.5,0-7.1,1.1-9.8,2.8l-1.6-4.5c3.1-2,7.6-3.3,12.4-3.3c11.5,0,14.3,7.8,14.3,15.4v14.1
			c0,3.3,0.2,6.4,0.6,9H506.1z M505.1,59.1c-7.5-0.2-15.9,1.2-15.9,8.5c0,4.4,3,6.5,6.4,6.5c4.9,0,8-3.1,9.1-6.3
			c0.2-0.7,0.4-1.5,0.4-2.2V59.1z"/>
	</g>
	<g>
		<path class="st0" d="M529.5,57.9h0.2c0.9-1.3,2.3-3,3.3-4.3l11-13h8.2l-14.5,15.5l16.5,22.1H546l-13-18l-3.5,3.9v14.1h-6.8V23.1
			h6.8V57.9z"/>
	</g>
	<g>
		<path class="st0" d="M563,60.7c0.2,9.2,6.1,13.1,12.9,13.1c4.9,0,7.8-0.9,10.4-1.9l1.2,4.9c-2.4,1.1-6.5,2.3-12.5,2.3
			c-11.6,0-18.5-7.6-18.5-19s6.7-20.3,17.6-20.3c12.3,0,15.5,10.8,15.5,17.7c0,1.4-0.2,2.5-0.2,3.2H563z M583,55.8
			c0.1-4.4-1.8-11.1-9.5-11.1c-6.9,0-9.9,6.4-10.5,11.1H583z"/>
	</g>
</g>
<g>
	<g>
		<path class="st0" d="M26.8,102.4v9.9h9v4.8h-9v18.6c0,4.3,1.2,6.7,4.7,6.7c1.6,0,2.8-0.2,3.6-0.4l0.3,4.7
			c-1.2,0.5-3.1,0.9-5.6,0.9c-2.9,0-5.3-0.9-6.8-2.6c-1.8-1.9-2.4-4.9-2.4-9v-18.8h-5.3v-4.8h5.3v-8.3L26.8,102.4z"/>
	</g>
	<g>
		<path class="st0" d="M42.9,96.2h6.3v21.5h0.1c1-1.8,2.6-3.3,4.5-4.4c1.9-1.1,4.1-1.8,6.4-1.8c4.6,0,12,2.8,12,14.7v20.5h-6.3V127
			c0-5.6-2.1-10.3-8-10.3c-4.1,0-7.3,2.8-8.4,6.3c-0.4,0.9-0.4,1.8-0.4,3v20.8h-6.3V96.2z"/>
	</g>
	<g>
		<path class="st0" d="M85.8,130.7c0.1,8.5,5.6,12,11.8,12c4.5,0,7.2-0.8,9.5-1.8l1.1,4.5c-2.2,1-6,2.1-11.5,2.1
			c-10.6,0-16.9-7-16.9-17.4S86,111.5,96,111.5c11.2,0,14.2,9.9,14.2,16.2c0,1.3-0.1,2.3-0.2,2.9H85.8z M104.2,126.2
			c0.1-4-1.6-10.2-8.7-10.2c-6.3,0-9.1,5.8-9.6,10.2H104.2z"/>
	</g>
	<g>
		<path class="st0" d="M133.3,99.4c3.8-0.6,8.3-1,13.2-1c8.9,0,15.2,2.1,19.4,6c4.3,3.9,6.8,9.5,6.8,17.2c0,7.8-2.4,14.2-6.9,18.6
			c-4.5,4.5-11.9,6.9-21.2,6.9c-4.4,0-8.1-0.2-11.2-0.6V99.4z M139.5,141.9c1.6,0.3,3.8,0.4,6.3,0.4c13.2,0,20.4-7.4,20.4-20.4
			c0.1-11.3-6.3-18.5-19.4-18.5c-3.2,0-5.6,0.3-7.3,0.6V141.9z"/>
	</g>
	<g>
		<path class="st0" d="M180.5,123.1c0-4.1-0.1-7.5-0.3-10.7h5.5l0.2,6.8h0.3c1.6-4.6,5.3-7.5,9.5-7.5c0.7,0,1.2,0.1,1.8,0.2v5.9
			c-0.6-0.1-1.3-0.2-2.1-0.2c-4.4,0-7.5,3.3-8.4,8c-0.1,0.9-0.3,1.9-0.3,2.9v18.4h-6.2V123.1z"/>
	</g>
	<g>
		<path class="st0" d="M206.6,130.7c0.1,8.5,5.6,12,11.8,12c4.5,0,7.2-0.8,9.5-1.8l1.1,4.5c-2.2,1-6,2.1-11.5,2.1
			c-10.6,0-16.9-7-16.9-17.4s6.1-18.6,16.2-18.6c11.2,0,14.2,9.9,14.2,16.2c0,1.3-0.1,2.3-0.2,2.9H206.6z M224.9,126.2
			c0.1-4-1.6-10.2-8.7-10.2c-6.3,0-9.1,5.8-9.6,10.2H224.9z"/>
	</g>
	<g>
		<path class="st0" d="M257.8,146.8l-0.5-4.3h-0.2c-1.9,2.7-5.6,5.1-10.5,5.1c-7,0-10.5-4.9-10.5-9.9c0-8.3,7.4-12.9,20.7-12.8v-0.7
			c0-2.8-0.8-8-7.8-8c-3.2,0-6.5,1-9,2.6l-1.4-4.1c2.8-1.9,7-3.1,11.3-3.1c10.5,0,13.1,7.2,13.1,14.1v12.9c0,3,0.1,5.9,0.6,8.3
			H257.8z M256.9,129.2c-6.8-0.1-14.6,1.1-14.6,7.8c0,4.1,2.7,6,5.9,6c4.5,0,7.3-2.8,8.3-5.8c0.2-0.6,0.4-1.4,0.4-2V129.2z"/>
	</g>
	<g>
		<path class="st0" d="M273.1,121.6c0-3.6-0.1-6.5-0.3-9.3h5.5l0.3,5.6h0.2c1.9-3.3,5.1-6.3,10.8-6.3c4.7,0,8.3,2.8,9.8,6.9h0.1
			c1.1-1.9,2.4-3.4,3.8-4.5c2.1-1.6,4.3-2.4,7.6-2.4c4.6,0,11.3,3,11.3,14.9v20.3h-6.1v-19.5c0-6.6-2.4-10.6-7.5-10.6
			c-3.6,0-6.3,2.6-7.4,5.7c-0.3,0.9-0.5,2-0.5,3.1v21.3h-6.1v-20.6c0-5.5-2.4-9.5-7.2-9.5c-3.9,0-6.8,3.1-7.8,6.3
			c-0.4,0.9-0.5,2-0.5,3.1v20.8h-6.1V121.6z"/>
	</g>
	<g>
		<path class="st0" d="M331.6,140.4c1.9,1.2,5.1,2.5,8.3,2.5c4.6,0,6.7-2.3,6.7-5.1c0-3-1.8-4.6-6.4-6.3c-6.2-2.2-9.1-5.6-9.1-9.8
			c0-5.6,4.5-10.1,11.9-10.1c3.5,0,6.5,1,8.5,2.1l-1.6,4.6c-1.4-0.9-3.8-2-7-2c-3.7,0-5.8,2.1-5.8,4.7c0,2.8,2.1,4.1,6.5,5.8
			c6,2.3,9,5.3,9,10.4c0,6.1-4.7,10.3-12.9,10.3c-3.8,0-7.3-0.9-9.7-2.3L331.6,140.4z"/>
	</g>
</g>
<g>
	<g>
		<path class="st0" d="M71.9,234.8c-3.5,1.7-10.4,3.5-19.3,3.5c-20.6,0-36.1-13-36.1-37c0-22.9,15.5-38.4,38.2-38.4
			c9.1,0,14.9,2,17.4,3.3l-2.3,7.7c-3.6-1.7-8.7-3-14.8-3c-17.1,0-28.5,11-28.5,30.2c0,17.9,10.3,29.4,28.1,29.4
			c5.7,0,11.6-1.2,15.4-3L71.9,234.8z"/>
	</g>
	<g>
		<path class="st0" d="M129.8,210.5c0,19.4-13.5,27.9-26.1,27.9c-14.2,0-25.2-10.4-25.2-27c0-17.6,11.5-27.9,26-27.9
			C119.6,183.5,129.8,194.4,129.8,210.5z M88.1,211c0,11.5,6.6,20.2,15.9,20.2c9.1,0,15.9-8.6,15.9-20.4c0-8.9-4.4-20.2-15.7-20.2
			S88.1,201,88.1,211z"/>
	</g>
	<g>
		<path class="st0" d="M141.8,198.9c0-5.4-0.1-9.9-0.4-14.2h8.4l0.4,8.5h0.3c2.9-5,7.8-9.7,16.5-9.7c7.2,0,12.6,4.3,14.9,10.5h0.2
			c1.6-2.9,3.7-5.2,5.9-6.8c3.1-2.4,6.6-3.7,11.6-3.7c6.9,0,17.2,4.6,17.2,22.8v30.9h-9.3v-29.7c0-10.1-3.7-16.2-11.4-16.2
			c-5.4,0-9.7,4-11.3,8.7c-0.4,1.3-0.8,3-0.8,4.8v32.4h-9.3v-31.5c0-8.4-3.7-14.4-11-14.4c-6,0-10.3,4.8-11.8,9.5
			c-0.5,1.4-0.8,3-0.8,4.7v31.7h-9.3V198.9z"/>
	</g>
	<g>
		<path class="st0" d="M237.6,212.6c0.2,12.9,8.5,18.2,18,18.2c6.8,0,11-1.2,14.5-2.7l1.6,6.8c-3.4,1.5-9.1,3.3-17.5,3.3
			c-16.2,0-25.8-10.6-25.8-26.5c0-15.8,9.3-28.3,24.6-28.3c17.1,0,21.7,15.1,21.7,24.7c0,2-0.2,3.5-0.3,4.4H237.6z M265.6,205.8
			c0.1-6.1-2.5-15.5-13.2-15.5c-9.7,0-13.9,8.9-14.6,15.5H265.6z"/>
	</g>
	<g>
		<path class="st0" d="M319.4,172.1h-22.2v-8h54.1v8h-22.3v65.1h-9.5V172.1z"/>
	</g>
	<g>
		<path class="st0" d="M354.2,201c0-6.2-0.1-11.5-0.4-16.4h8.4l0.3,10.3h0.4c2.4-7.1,8.1-11.5,14.5-11.5c1.1,0,1.8,0.1,2.7,0.3v9
			c-1-0.2-2-0.3-3.3-0.3c-6.7,0-11.5,5.1-12.8,12.3c-0.2,1.3-0.4,2.8-0.4,4.4v28h-9.4V201z"/>
	</g>
	<g>
		<path class="st0" d="M433.6,222.8c0,5.4,0.1,10.2,0.4,14.3h-8.5l-0.5-8.6h-0.2c-2.5,4.2-8,9.8-17.4,9.8c-8.2,0-18.1-4.6-18.1-23
			v-30.7h9.5v29.1c0,10,3,16.7,11.7,16.7c6.4,0,10.8-4.4,12.6-8.7c0.5-1.4,0.9-3.1,0.9-4.9v-32.2h9.5V222.8z"/>
	</g>
	<g>
		<path class="st0" d="M454.8,212.6c0.2,12.9,8.5,18.2,18,18.2c6.8,0,11-1.2,14.5-2.7l1.6,6.8c-3.4,1.5-9.1,3.3-17.5,3.3
			c-16.2,0-25.8-10.6-25.8-26.5c0-15.8,9.3-28.3,24.6-28.3c17.1,0,21.7,15.1,21.7,24.7c0,2-0.2,3.5-0.3,4.4H454.8z M482.7,205.8
			c0.1-6.1-2.5-15.5-13.2-15.5c-9.7,0-13.9,8.9-14.6,15.5H482.7z"/>
	</g>
</g>
<g>
	<path class="st0" d="M83.7,75.9c-0.1,0-10.5-4.8-10.5-15.9s10.4-15.8,10.5-15.9l0.4,0.9c-0.1,0-9.9,4.5-9.9,15s9.8,14.9,9.9,15
		L83.7,75.9z"/>
</g>
<g>
	<path class="st0" d="M87.2,75.5c-0.1,0-11-4.3-11-15.4c0-11.1,11.4-15.9,11.5-15.9l0.4,0.9c-0.1,0-10.8,4.5-10.8,15
		c0,10.4,10.2,14.4,10.3,14.5L87.2,75.5z"/>
</g>
<g>
	<path class="st0" d="M348,75.9c-0.1,0-10.5-4.8-10.5-15.9s10.4-15.8,10.5-15.9l0.4,0.9c-0.1,0-9.9,4.5-9.9,15s9.8,14.9,9.9,15
		L348,75.9z"/>
</g>
<g>
	<path class="st0" d="M351.4,75.5c-0.1,0-11-4.3-11-15.4c0-11.1,11.4-15.9,11.5-15.9l0.4,0.9c-0.1,0-10.8,4.5-10.8,15
		c0,10.4,10.2,14.4,10.3,14.5L351.4,75.5z"/>
</g>
<g>
	<path class="st0" d="M575.2,75.9c-0.1,0-10.5-4.8-10.5-15.9s10.4-15.8,10.5-15.9l0.4,0.9c-0.1,0-9.9,4.5-9.9,15s9.8,14.9,9.9,15
		L575.2,75.9z"/>
</g>
<g>
	<path class="st0" d="M578.6,75.5c-0.1,0-11-4.3-11-15.4c0-11.1,11.4-15.9,11.5-15.9l0.4,0.9c-0.1,0-10.8,4.5-10.8,15
		c0,10.4,10.2,14.4,10.3,14.5L578.6,75.5z"/>
</g>
<g>
	<path class="st0" d="M126.4,75.9c-0.1,0-10.5-4.8-10.5-15.9s10.4-15.8,10.5-15.9l0.4,0.9c-0.1,0-9.9,4.5-9.9,15s9.8,14.9,9.9,15
		L126.4,75.9z"/>
</g>
<g>
	<path class="st0" d="M129.8,75.5c-0.1,0-11-4.3-11-15.4c0-11.1,11.4-15.9,11.5-15.9l0.4,0.9c-0.1,0-10.8,4.5-10.8,15
		c0,10.4,10.2,14.4,10.3,14.5L129.8,75.5z"/>
</g>
<g>
	<path class="st0" d="M105.7,234.9c-0.2-0.1-15.1-6.9-15.1-23s15-22.9,15.1-23l0.6,1.3c-0.1,0.1-14.3,6.5-14.3,21.7
		c0,15.1,14.1,21.6,14.3,21.7L105.7,234.9z"/>
</g>
<g>
	<path class="st0" d="M110.7,234.2c-0.2-0.1-15.9-6.2-15.9-22.3c0-16.1,16.4-22.9,16.6-23l0.5,1.3c-0.2,0.1-15.7,6.5-15.7,21.6
		c0,15.1,14.8,20.9,14.9,20.9L110.7,234.2z"/>
</g>
<g>
	<path class="st0" d="M473.1,234.9c-0.2-0.1-15.1-6.9-15.1-23s15-22.9,15.1-23l0.6,1.3c-0.1,0.1-14.3,6.5-14.3,21.7
		s14.1,21.6,14.3,21.7L473.1,234.9z"/>
</g>
<g>
	<path class="st0" d="M478.1,234.2c-0.2-0.1-15.9-6.2-15.9-22.3c0-16.1,16.4-22.9,16.6-23l0.5,1.3c-0.2,0.1-15.7,6.5-15.7,21.6
		c0,15.1,14.8,20.9,14.9,20.9L478.1,234.2z"/>
</g>
<g>
	<path class="st0" d="M168.4,75.9c-0.1,0-10.5-4.8-10.5-15.9s10.4-15.8,10.5-15.9l0.4,0.9c-0.1,0-9.9,4.5-9.9,15
		c0,10.5,9.8,14.9,9.9,15L168.4,75.9z"/>
</g>
<g>
	<path class="st0" d="M171.8,75.5c-0.1,0-11-4.3-11-15.4c0-11.1,11.4-15.9,11.5-15.9l0.4,0.9c-0.1,0-10.8,4.5-10.8,15
		c0,10.4,10.2,14.4,10.3,14.5L171.8,75.5z"/>
</g>
<g>
	<path class="st0" d="M307.3,76.6c-0.1,0-7.4-2.8-7.4-9.4s7.3-9.4,7.4-9.4l0.2,0.6c-0.1,0-7,2.7-7,8.8s6.9,8.8,7,8.8L307.3,76.6z"/>
</g>
<g>
	<path class="st0" d="M309.7,76.3c-0.1,0-7.8-2.5-7.8-9.1c0-6.6,8-9.4,8.1-9.4l0.2,0.6c-0.1,0-7.7,2.7-7.7,8.8
		c0,6.1,7.2,8.5,7.3,8.5L309.7,76.3z"/>
</g>
<g>
	<rect x="57.7" y="51.1" class="st0" width="1" height="24.4"/>
</g>
<g>
	<rect x="28" y="102.8" class="st0" width="1" height="41.6"/>
</g>
<g>
	<rect x="50.1" y="97.5" class="st0" width="1" height="49.3"/>
</g>
<g>
	<rect x="141.6" y="101.5" class="st0" width="1" height="45.3"/>
</g>
<g>
	<rect x="144" y="101.5" class="st0" width="1" height="45.3"/>
</g>
<g>
	<rect x="153.4" y="191.8" class="st0" width="1" height="45.3"/>
</g>
<g>
	<rect x="155.8" y="191.8" class="st0" width="1" height="45.3"/>
</g>
<g>
	<rect x="185.7" y="191.8" class="st0" width="1" height="45.3"/>
</g>
<g>
	<rect x="188.1" y="191.8" class="st0" width="1" height="45.3"/>
</g>
<g>
	<rect x="401.1" y="184.5" class="st0" width="1" height="49"/>
</g>
<g>
	<rect x="403.5" y="184.5" class="st0" width="1" height="49"/>
</g>
<g>
	<rect x="435.3" y="184.5" class="st0" width="1" height="49"/>
</g>
<g>
	<rect x="437.7" y="184.5" class="st0" width="1" height="49"/>
</g>
<g>
	<rect x="280.4" y="115.6" class="st0" width="0.8" height="31.2"/>
</g>
<g>
	<rect x="282.8" y="115.6" class="st0" width="0.8" height="31.2"/>
</g>
<g>
	<rect x="302.2" y="115.6" class="st0" width="0.8" height="31.2"/>
</g>
<g>
	<rect x="304.6" y="115.6" class="st0" width="0.8" height="31.2"/>
</g>
<g>
	<rect x="73.3" y="123.6" class="st0" width="1" height="23.2"/>
</g>
</svg>
