<?xml version="1.0" encoding="UTF-8"?><svg id="Layer_2" xmlns="http://www.w3.org/2000/svg" viewBox="0 0 95.22 390.37"><defs><style>.cls-1{fill:#f8e5c1;}.cls-2{fill:#fcf6e3;}.cls-3{fill:#e25c2a;}</style></defs><g id="Layer_2-2"><path class="cls-2" d="m86.24,5.89C79.26-.02,6.46,5.11,5.05,8.89c-1.42,3.78,3.71,378.16,3.71,378.16,0,0,78.47-1.42,80.84-4.25,2.36-2.84,2.13-372.25-3.36-376.9Z"/><path class="cls-3" d="m91.02,1.16s-13.21-2.61-14.71,0c-1.5,2.61,5.2,385.89,5.2,385.89,0,0,13.71,2.02,13.71,0S91.02,1.16,91.02,1.16Z"/><path class="cls-3" d="m0,3.6s13.18-2.76,14.71-.17c1.53,2.59-.62,385.92-.62,385.92,0,0-13.68,2.18-13.71.16C.36,387.49,0,3.6,0,3.6Z"/><path class="cls-1" d="m60.71,5.41s7.88,375.36,5.83,375.83c-2.05.47-5.83-375.83-5.83-375.83Z"/><path class="cls-1" d="m45.58,5.41c-.47,12.76,6.07,376.78,2.33,375.83-3.75-.95-2.33-375.83-2.33-375.83Z"/><path class="cls-1" d="m32.82,381.24c-.47-6.15-5.68-370.16-5.68-370.16h5.67s0,370.16,0,370.16Z"/></g></svg>