<?xml version="1.0" encoding="UTF-8"?><svg id="Layer_2" xmlns="http://www.w3.org/2000/svg" viewBox="0 0 74.57 398.67"><defs><style>.cls-1{fill:#f18a66;}.cls-2{fill:#e25c2a;}.cls-3{fill:#2e4874;}</style></defs><g id="Layer_2-2"><path class="cls-3" d="m69.65,4.15C65.76-3.41,4.26,1.09,1.31,4.15c-2.95,3.06,0,391.46,0,391.46,0,0,73.26,6.88,73.26,0S71.62,7.97,69.65,4.15Z"/><path class="cls-1" d="m41.11,100.65h-3.22s.36,215.68.64,215.96c.27.28,3.1,0,3.1,0l-.52-215.96Z"/><path class="cls-2" d="m56.45,56.28s-39.09-1.31-39.09,0-1.47,13.11,0,13.11,40.19,1.47,39.09,0c-1.11-1.48,0-13.11,0-13.11Z"/><path class="cls-2" d="m72.6,342.56s-69.16-1.09-69.9,1.07c-.74,2.17-.31,6.99-.31,6.99l69.86-.24.34-7.82Z"/><path class="cls-1" d="m71.75,370.31s-69.16-1.09-69.9,1.07c-.74,2.17-.31,6.99-.31,6.99l69.86-.24.34-7.82Z"/><path class="cls-2" d="m72.67,330.76s-69.16-1.1-69.9,1.07c-.74,2.17-.31,6.99-.31,6.99l69.86-.24.34-7.82Z"/><path class="cls-1" d="m36.59,13.34c13.15,0,23.48,18.45,15.73,26.93-7.74,8.48-25.07,8.11-29.87-5.04-3.2-8.78,2.58-21.89,14.13-21.89Z"/></g></svg>