<?xml version="1.0" encoding="UTF-8"?><svg id="Layer_2" xmlns="http://www.w3.org/2000/svg" viewBox="0 0 76.16 332.89"><defs><style>.cls-1{fill:#f1d784;}.cls-2{fill:#e25c2a;}</style></defs><g id="Layer_2-2"><path class="cls-2" d="m73.85,8.89C62.71-9.4,1.36,5.67.15,8.89c-1.21,3.22,5.24,320.72,5.24,320.72,0,0,67.17,5.04,69.18,2.62,2.01-2.42,2.48-318.1-.72-323.34Z"/><path class="cls-1" d="m70.93,20.59s-65.28-1.28-65.96.5-.25,5.73-.25,5.73l65.93.18.28-6.41Z"/><path class="cls-1" d="m73.65,293.37s-65.28-1.28-65.96.5-.25,5.73-.25,5.73l65.93.18.28-6.41Z"/><path class="cls-1" d="m73.65,283.7s-65.28-1.28-65.96.5c-.68,1.77-.25,5.73-.25,5.73l65.93.18.28-6.41Z"/></g></svg>