<?xml version="1.0" encoding="UTF-8"?><svg id="Layer_2" xmlns="http://www.w3.org/2000/svg" viewBox="0 0 67.37 332.06"><defs><style>.cls-1{fill:#f8e5c1;}.cls-2{fill:#fcf6e3;}.cls-3{fill:#f18a66;}</style></defs><g id="Layer_2-2"><path class="cls-1" d="m59.86,6.93C56.67.73,6.27,4.42,3.85,6.93c-2.42,2.51,0,320.81,0,320.81,0,0,60.03,5.64,60.03,0S61.47,10.07,59.86,6.93Z"/><path class="cls-3" d="m63.48.51c-2.51-.28-8.25-.98-8.86,0-.6.98,4.45,331.56,4.45,331.56h8.29L63.48.51Z"/><path class="cls-3" d="m3.89,331.56c2.51.28,8.25.97,8.86,0,.6-.97-4.45-328.03-4.45-328.03H0l3.89,328.03Z"/><path class="cls-2" d="m37.61,7.64s6.72,314.76,4.97,315.15c-1.75.4-4.97-315.15-4.97-315.15Z"/><path class="cls-2" d="m30.7,9.31s6.72,314.76,4.97,315.15c-1.75.4-4.97-315.15-4.97-315.15Z"/><path class="cls-2" d="m24.72,7.64c-.4,10.7,5.18,315.95,1.98,315.15-3.19-.79-1.98-315.15-1.98-315.15Z"/><path class="cls-2" d="m52.34,322.8c.4-10.7-5.18-315.95-1.98-315.15,3.19.79,1.98,315.15,1.98,315.15Z"/></g></svg>