<?xml version="1.0" encoding="UTF-8"?><svg id="Layer_2" xmlns="http://www.w3.org/2000/svg" viewBox="0 0 61.11 326.72"><defs><style>.cls-1{fill:#f1d784;}.cls-2{fill:#f18a66;}.cls-3{fill:#e25c2a;}</style></defs><g id="Layer_2-2"><path class="cls-1" d="m57.08,3.4C53.89-2.8,3.49.89,1.07,3.4c-2.42,2.51,0,320.81,0,320.81,0,0,60.03,5.64,60.03,0S58.69,6.53,57.08,3.4Z"/><path class="cls-2" d="m33.69,82.48h-2.64s.3,176.75.52,176.98c.22.23,2.54,0,2.54,0l-.43-176.98Z"/><path class="cls-3" d="m46.26,46.12s-32.03-1.07-32.03,0-1.21,10.74,0,10.74,32.94,1.21,32.03,0,0-10.74,0-10.74Z"/><path class="cls-3" d="m59.49,280.73s-56.68-.9-57.28.88c-.6,1.78-.25,5.73-.25,5.73l57.25-.2.28-6.41Z"/><path class="cls-2" d="m58.8,303.48s-56.68-.9-57.28.88c-.6,1.78-.25,5.73-.25,5.73l57.25-.2.28-6.41Z"/><path class="cls-3" d="m59.55,271.06s-56.68-.9-57.28.88c-.6,1.78-.25,5.73-.25,5.73l57.25-.2.28-6.41Z"/><path class="cls-2" d="m29.98,10.94c10.78,0,19.24,15.12,12.89,22.07-6.35,6.95-20.55,6.65-24.48-4.13-2.62-7.19,2.12-17.94,11.58-17.94Z"/></g></svg>