<?xml version="1.0" encoding="UTF-8"?><svg id="Layer_2" xmlns="http://www.w3.org/2000/svg" viewBox="0 0 302.49 304.22"><defs><style>.cls-1{fill:#f8e5c1;}.cls-2{fill:#f1d784;}.cls-3{fill:#fff;}.cls-4{fill:#fcf6e3;}.cls-5{fill:#f18a66;}.cls-6{fill:#e25c2a;}.cls-7{fill:#2e4874;}.cls-8{fill:#6fc8b7;}.cls-9{fill:#77a3d7;}</style></defs><g id="Layer_2-2"><path class="cls-4" d="m269.16,26.55c2.92-.29,29.12-2.55,30.21,0,1.09,2.55-.73,273-1.82,273h-32.4s1.48-272.76,4-273Z"/><path class="cls-7" d="m265.16,24.27c2.27-.24,7.46-.82,8,0,.55.82-4.02,276.83-4.02,276.83h-7.49l3.51-276.83Z"/><path class="cls-7" d="m298.98,300.67c-2.27.24-7.46.82-8,0-.55-.82,4.02-276.83,4.02-276.83h7.49l-3.51,276.83Z"/><path class="cls-1" d="m274.39,27.55c.36,9.02-4.68,266.39-1.79,265.72,2.88-.67,1.79-265.72,1.79-265.72Z"/><path class="cls-1" d="m284.21,293.27c.36-4.35,4.37-261.71,4.37-261.71h-4.37v261.71Z"/><path class="cls-1" d="m3.86,6.68c2.83-5.63,48.39-2.75,50.59-.5,2.21,2.24,2.88,289.81,2.88,289.81,0,0-54.18,5.64-54.23.54-.05-5.1-.67-287.01.76-289.85Z"/><path class="cls-7" d="m.53.9c2.27-.28,7.45-.96,8-.08.55.88-1.04,299.57-1.04,299.57l-7.49.07L.53.9Z"/><path class="cls-7" d="m57.35,299.44c-2.27.28-7.45.95-8,.08S50.42,3.14,50.42,3.14l7.49-.07-.56,296.37Z"/><path class="cls-4" d="m23.97,7.11s-3.24,284.41-1.66,284.75c1.58.34,1.66-284.75,1.66-284.75Z"/><path class="cls-4" d="m30.22,8.56s-3.24,284.41-1.66,284.75c1.58.34,1.66-284.75,1.66-284.75Z"/><path class="cls-4" d="m35.61,7c.46,9.67-1.84,285.47,1.04,284.73,2.88-.75-1.04-284.73-1.04-284.73Z"/><path class="cls-4" d="m13.5,291.95c-.46-9.67,1.84-285.47-1.04-284.73-2.88.75,1.04,284.73,1.04,284.73Z"/><path class="cls-6" d="m100.74,23.37c2.93.13,29.19,1.62,29.9,4.3s-39.59,270.12-40.67,269.96-32.07-4.61-32.07-4.61c0,0,40.3-269.77,42.83-269.65Z"/><path class="cls-3" d="m108.92,33.65c.89.13,9.54,1.37,9.54,1.37,0,0-31.28,209.81-32.13,209.96-.85.15-9.19-1.32-9.19-1.32l31.78-210.01Z"/><path class="cls-3" d="m75.77,250.91c.89.13,9.54,1.37,9.54,1.37,0,0-2.08,17.72-2.89,17.62s-9.19-1.32-9.19-1.32l2.54-17.67Z"/><path class="cls-9" d="m143.7,4.76c12.79-14.52,65,8.53,65.57,11.59.57,3.06-55.1,284.5-55.1,284.5,0,0-60.55-6.08-61.96-8.55-1.41-2.47,47.82-283.38,51.49-287.54Z"/><path class="cls-8" d="m155.75,69.53c.44.08,4.75.84,4.75.84,0,0-32.15,178.71-32.59,178.87-.44.16-4.57-.81-4.57-.81l32.41-178.9Z"/><path class="cls-8" d="m165.68,70.64c.44.08,4.75.84,4.75.84,0,0-32.15,178.71-32.59,178.87-.44.16-4.57-.81-4.57-.81l32.41-178.9Z"/><path class="cls-2" d="m144.46,15.62s58.28,9.13,58.6,10.82c.33,1.69-.68,5.13-.68,5.13l-58.68-10.21.76-5.74Z"/><path class="cls-2" d="m138.56,52.35s58.28,9.13,58.6,10.82-.68,5.13-.68,5.13l-58.68-10.21.76-5.74Z"/><path class="cls-2" d="m99.14,257.87s58.28,9.13,58.6,10.82c.33,1.69-.68,5.13-.68,5.13l-58.68-10.21.76-5.74Z"/><path class="cls-2" d="m100.66,249.27s58.28,9.13,58.6,10.82c.33,1.69-.68,5.13-.68,5.13l-58.68-10.21.76-5.74Z"/><path class="cls-8" d="m149.76,25.24c-.56,2.12-5.41,25.38-4.51,25.54.89.16,10.57,1.87,10.57,1.87,0,0,5.42-25.93,4.51-25.54-.9.39-10.57-1.87-10.57-1.87Z"/><path class="cls-8" d="m166.95,28.28c-.56,2.12-5.41,25.38-4.51,25.54.89.16,10.57,1.87,10.57,1.87,0,0,5.42-25.93,4.51-25.54s-10.57-1.87-10.57-1.87Z"/><path class="cls-8" d="m184.15,31.31c-.56,2.12-5.41,25.38-4.51,25.54.89.16,10.57,1.87,10.57,1.87,0,0,5.42-25.93,4.51-25.54-.9.4-10.57-1.87-10.57-1.87Z"/><path class="cls-5" d="m210.08,13.39c2.88-5.6,48.41-2.27,50.6,0,2.18,2.27,0,289.83,0,289.83,0,0-46.34,2.26-54.24,0-4.9-1.4,2.18-287,3.64-289.83Z"/><path class="cls-6" d="m219.86,51.98s28.94-.97,28.94,0,1.09,9.71,0,9.71-29.76,1.09-28.94,0c.82-1.09,0-9.71,0-9.71Z"/><path class="cls-6" d="m207.9,263.94s51.21-.81,51.75.8c.55,1.61.23,5.17.23,5.17l-51.72-.18-.25-5.79Z"/><path class="cls-6" d="m208.52,284.49s51.21-.81,51.75.8c.55,1.61.23,5.17.23,5.17l-51.72-.18-.25-5.79Z"/><path class="cls-6" d="m207.85,255.2s51.21-.81,51.75.8.23,5.17.23,5.17l-51.72-.18-.25-5.79Z"/><path class="cls-6" d="m234.56,20.19c-9.74,0-17.38,13.66-11.65,19.94,5.73,6.28,18.56,6.01,22.11-3.73,2.37-6.5-1.91-16.21-10.47-16.21Z"/></g></svg>