<?xml version="1.0" encoding="UTF-8"?><svg id="Layer_2" xmlns="http://www.w3.org/2000/svg" viewBox="0 0 220.77 410.06"><defs><style>.cls-1{fill:#f8e5c1;}.cls-2{fill:#f1d784;}.cls-3{fill:#fcf6e3;}.cls-4{fill:#f18a66;}.cls-5{fill:#e25c2a;}.cls-6{fill:#77a3d7;}</style></defs><g id="Layer_2-2"><path class="cls-1" d="m213.26,84.93c-3.19-6.2-53.59-2.51-56,0-2.42,2.51,0,320.81,0,320.81,0,0,60.03,5.64,60.03,0s-2.42-317.68-4.03-320.81Z"/><path class="cls-4" d="m216.89,78.5c-2.51-.28-8.25-.98-8.86,0-.6.98,4.45,331.56,4.45,331.56h8.29l-3.89-331.56Z"/><path class="cls-4" d="m157.29,409.56c2.51.28,8.25.97,8.86,0,.6-.97-4.45-328.03-4.45-328.03h-8.29l3.89,328.03Z"/><path class="cls-3" d="m191.02,85.63s6.72,314.76,4.97,315.15c-1.75.4-4.97-315.15-4.97-315.15Z"/><path class="cls-3" d="m184.11,87.31s6.72,314.76,4.97,315.15c-1.75.4-4.97-315.15-4.97-315.15Z"/><path class="cls-3" d="m178.12,85.63c-.4,10.7,5.18,315.95,1.98,315.15-3.19-.79-1.98-315.15-1.98-315.15Z"/><path class="cls-3" d="m205.74,400.79c.4-10.7-5.18-315.95-1.98-315.15,3.19.79,1.98,315.15,1.98,315.15Z"/><path class="cls-3" d="m148.8,7.68c-4.24-.75-42.31-6.98-44.19-3.38-1.88,3.6-29.44,399.37-27.84,399.49,1.6.12,47.38,3.62,47.38,3.62,0,0,28.31-399.09,24.65-399.73Z"/><path class="cls-6" d="m154.92,4.79c-3.29-.6-10.81-2.03-11.7-.89-.89,1.14-25.05,405.33-25.05,405.33l10.95.84L154.92,4.79Z"/><path class="cls-6" d="m74.56,405.27c3.29.6,10.81,2.03,11.7.89S111.31.84,111.31.84l-10.95-.84-25.8,405.27Z"/><path class="cls-1" d="m141.05,8.55c-1.54,13.16-22.92,390.14-27.07,388.84-4.14-1.3,27.07-388.84,27.07-388.84Z"/><path class="cls-1" d="m96.99,396.09c-.05-6.4,22.85-383.26,22.85-383.26l6.39.49-29.24,382.77Z"/><path class="cls-5" d="m73.85,86.06c-11.15-18.29-72.49-3.22-73.7,0-1.21,3.22,5.24,320.72,5.24,320.72,0,0,67.17,5.04,69.18,2.62,2.01-2.42,2.48-318.1-.72-323.34Z"/><path class="cls-2" d="m70.93,97.76s-65.28-1.28-65.96.5-.25,5.73-.25,5.73l65.93.18.28-6.41Z"/><path class="cls-2" d="m73.65,370.54s-65.28-1.28-65.96.5-.25,5.73-.25,5.73l65.93.18.28-6.41Z"/><path class="cls-2" d="m73.65,360.87s-65.28-1.28-65.96.5c-.68,1.77-.25,5.73-.25,5.73l65.93.18.28-6.41Z"/></g></svg>