<?xml version="1.0" encoding="UTF-8"?><svg id="Layer_2" xmlns="http://www.w3.org/2000/svg" viewBox="0 0 390.67 398.67"><defs><style>.cls-1{fill:#f8e5c1;}.cls-2{fill:#f1d784;}.cls-3{fill:#fcf6e3;}.cls-4{fill:#f18a66;}.cls-5{fill:#e25c2a;}.cls-6{fill:#2e4874;}</style></defs><g id="Layer_2-2"><path class="cls-4" d="m68.34,394.6c-3.82,7.42-64.16,3-67.05,0C-1.61,391.6,1.29,10.52,1.29,10.52c0,0,61.41-3,71.87,0,6.49,1.86-2.89,380.33-4.82,384.08Z"/><path class="cls-5" d="m55.38,343.46s-38.35,1.29-38.35,0-1.45-12.86,0-12.86,39.43-1.45,38.35,0,0,12.86,0,12.86Z"/><path class="cls-5" d="m71.23,62.57s-67.86,1.07-68.58-1.05-.3-6.86-.3-6.86l68.54.24.34,7.67Z"/><path class="cls-5" d="m70.4,35.34S2.54,36.42,1.82,34.29c-.72-2.13-.3-6.86-.3-6.86l68.54.24.34,7.67Z"/><path class="cls-5" d="m71.29,74.15s-67.86,1.07-68.58-1.05c-.72-2.13-.3-6.86-.3-6.86l68.54.24.34,7.67Z"/><path class="cls-5" d="m35.9,385.58c12.9,0,23.03-18.1,15.44-26.42-7.6-8.32-24.6-7.96-29.3,4.94-3.14,8.61,2.53,21.48,13.87,21.48Z"/><path class="cls-1" d="m255.19,73.54c3.19-6.2,53.59-2.51,56,0,2.42,2.51,0,320.81,0,320.81,0,0-60.03,5.64-60.03,0s2.42-317.68,4.03-320.81Z"/><path class="cls-4" d="m251.56,67.11c2.51-.28,8.25-.98,8.86,0,.6.98-4.45,331.56-4.45,331.56h-8.29l3.89-331.56Z"/><path class="cls-4" d="m311.16,398.17c-2.51.28-8.25.97-8.86,0-.6-.97,4.45-328.03,4.45-328.03h8.29l-3.89,328.03Z"/><path class="cls-3" d="m277.43,74.25s-6.72,314.76-4.97,315.15c1.75.4,4.97-315.15,4.97-315.15Z"/><path class="cls-3" d="m284.34,75.92s-6.72,314.76-4.97,315.15c1.75.4,4.97-315.15,4.97-315.15Z"/><path class="cls-3" d="m290.33,74.25c.4,10.7-5.18,315.95-1.98,315.15,3.19-.79,1.98-315.15,1.98-315.15Z"/><path class="cls-3" d="m262.71,389.4c-.4-10.7,5.18-315.95,1.98-315.15-3.19.79-1.98,315.15-1.98,315.15Z"/><path class="cls-3" d="m81.02,94.59c3.24-.29,32.25-2.57,33.44.26,1.19,2.83-3.14,302.17-4.35,302.16-1.21,0-35.86-.28-35.86-.28,0,0,3.97-301.89,6.77-302.14Z"/><path class="cls-5" d="m76.61,92.02c2.51-.24,8.26-.84,8.86.07s-6.82,306.37-6.82,306.37l-8.29-.06,6.26-306.37Z"/><path class="cls-5" d="m111.68,398.25c-2.51.24-8.26.84-8.86-.07s6.82-306.37,6.82-306.37l8.29.06-6.26,306.37Z"/><path class="cls-1" d="m86.79,95.73c.33,9.99-7.46,294.82-4.26,294.1,3.2-.72,4.26-294.1,4.26-294.1Z"/><path class="cls-1" d="m95.39,389.93c.44-4.81,7.08-289.64,7.08-289.64l-4.83-.04-2.24,289.68Z"/><path class="cls-6" d="m321.02,4.15c3.89-7.56,65.39-3.06,68.34,0,2.95,3.06,0,391.46,0,391.46,0,0-73.26,6.88-73.26,0s2.95-387.64,4.92-391.46Z"/><path class="cls-5" d="m334.22,56.28s39.09-1.31,39.09,0,1.47,13.11,0,13.11-40.19,1.47-39.09,0c1.11-1.48,0-13.11,0-13.11Z"/><path class="cls-5" d="m318.07,342.56s69.16-1.09,69.9,1.07c.74,2.17.31,6.99.31,6.99l-69.86-.24-.34-7.82Z"/><path class="cls-4" d="m318.92,370.31s69.16-1.09,69.9,1.07c.74,2.17.31,6.99.31,6.99l-69.86-.24-.34-7.82Z"/><path class="cls-5" d="m318,330.76s69.16-1.1,69.9,1.07c.74,2.17.31,6.99.31,6.99l-69.86-.24-.34-7.82Z"/><path class="cls-4" d="m354.08,13.34c-13.15,0-23.48,18.45-15.73,26.93,7.74,8.48,25.07,8.11,29.87-5.04,3.2-8.78-2.58-21.89-14.13-21.89Z"/><path class="cls-5" d="m178.78,74.68c11.15-18.29,72.49-3.22,73.7,0,1.21,3.22-5.24,320.72-5.24,320.72,0,0-67.17,5.04-69.18,2.62-2.01-2.42-2.48-318.1.72-323.34Z"/><path class="cls-6" d="m204.39,142.95h5.33s-.6,200.98-1.06,201.24c-.45.26-5.14,0-5.14,0l.86-201.24Z"/><path class="cls-6" d="m215.43,142.26h5.33s-.6,200.98-1.06,201.24c-.45.26-5.14,0-5.14,0l.86-201.24Z"/><path class="cls-2" d="m181.7,86.38s65.28-1.28,65.96.5c.68,1.77.25,5.73.25,5.73l-65.93.18-.28-6.41Z"/><path class="cls-2" d="m182.35,127.54s65.28-1.28,65.96.5c.68,1.77.25,5.73.25,5.73l-65.93.18-.28-6.41Z"/><path class="cls-2" d="m178.97,359.15s65.28-1.28,65.96.5c.68,1.77.25,5.73.25,5.73l-65.93.18-.28-6.41Z"/><path class="cls-2" d="m178.97,349.48s65.28-1.28,65.96.5c.68,1.77.25,5.73.25,5.73l-65.93.18-.28-6.41Z"/><path class="cls-2" d="m118.49,75.36c3.19-6.2,53.59-2.51,56,0,2.42,2.51,0,320.81,0,320.81,0,0-60.03,5.64-60.03,0s2.42-317.68,4.03-320.81Z"/><path class="cls-4" d="m141.87,154.44h2.64s-.3,176.75-.52,176.98c-.22.23-2.54,0-2.54,0l.43-176.98Z"/><path class="cls-5" d="m129.31,118.07s32.03-1.07,32.03,0,1.21,10.74,0,10.74-32.94,1.21-32.03,0c.91-1.21,0-10.74,0-10.74Z"/><path class="cls-5" d="m116.07,352.69s56.68-.9,57.28.88c.6,1.78.25,5.73.25,5.73l-57.25-.2-.28-6.41Z"/><path class="cls-4" d="m116.77,375.43s56.68-.9,57.28.88c.6,1.78.25,5.73.25,5.73l-57.25-.2-.28-6.41Z"/><path class="cls-5" d="m116.02,343.02s56.68-.9,57.28.88c.6,1.78.25,5.73.25,5.73l-57.25-.2-.28-6.41Z"/><path class="cls-4" d="m145.58,82.89c-10.78,0-19.24,15.12-12.89,22.07,6.35,6.95,20.55,6.65,24.48-4.13,2.62-7.19-2.12-17.94-11.58-17.94Z"/></g></svg>