<?xml version="1.0" encoding="UTF-8"?><svg id="Layer_2" xmlns="http://www.w3.org/2000/svg" viewBox="0 0 514.98 410.06"><defs><style>.cls-1{fill:#f8e5c1;}.cls-2{fill:#f1d784;}.cls-3{fill:#fff;}.cls-4{fill:#fcf6e3;}.cls-5{fill:#f18a66;}.cls-6{fill:#e25c2a;}.cls-7{fill:#2e4874;}.cls-8{fill:#6fc8b7;}.cls-9{fill:#77a3d7;}</style></defs><g id="Layer_2-2"><path class="cls-2" d="m53.83,86.74c3.19-6.2,53.59-2.51,56,0,2.42,2.51,0,320.81,0,320.81,0,0-60.03,5.64-60.03,0s2.42-317.68,4.03-320.81Z"/><path class="cls-5" d="m77.21,165.82h2.64s-.3,176.75-.52,176.98c-.22.23-2.54,0-2.54,0l.43-176.98Z"/><path class="cls-6" d="m64.65,129.46s32.03-1.07,32.03,0,1.21,10.74,0,10.74-32.94,1.21-32.03,0c.91-1.21,0-10.74,0-10.74Z"/><path class="cls-6" d="m51.41,364.07s56.68-.9,57.28.88c.6,1.78.25,5.73.25,5.73l-57.25-.2-.28-6.41Z"/><path class="cls-5" d="m52.1,386.82s56.68-.9,57.28.88c.6,1.78.25,5.73.25,5.73l-57.25-.2-.28-6.41Z"/><path class="cls-6" d="m51.36,354.4s56.68-.9,57.28.88c.6,1.78.25,5.73.25,5.73l-57.25-.2-.28-6.41Z"/><path class="cls-5" d="m80.92,94.28c-10.78,0-19.24,15.12-12.89,22.07,6.35,6.95,20.55,6.65,24.48-4.13,2.62-7.19-2.12-17.94-11.58-17.94Z"/><path class="cls-4" d="m470.81,46.24c3.87-.38,38.59-3.38,40.04,0,1.45,3.38-.96,361.78-2.41,361.78h-42.93s1.96-361.45,5.31-361.78Z"/><path class="cls-7" d="m465.51,43.21c3.01-.31,9.88-1.08,10.6,0s-5.33,366.84-5.33,366.84h-9.92l4.65-366.84Z"/><path class="cls-7" d="m510.33,409.5c-3.01.31-9.88,1.08-10.6,0s5.33-366.84,5.33-366.84h9.92l-4.65,366.84Z"/><path class="cls-1" d="m477.74,47.55c.48,11.96-6.2,353.02-2.37,352.13,3.82-.89,2.37-352.13,2.37-352.13Z"/><path class="cls-1" d="m490.76,399.68c.48-5.76,5.79-346.82,5.79-346.82h-5.79v346.82Z"/><path class="cls-1" d="m203.53,20.73c3.74-7.46,64.12-3.64,67.05-.67,2.92,2.97,3.82,384.06,3.82,384.06,0,0-71.8,7.47-71.87.71-.07-6.75-.89-380.34,1-384.11Z"/><path class="cls-7" d="m199.11,13.08c3-.37,9.87-1.27,10.6-.11.73,1.17-1.38,396.98-1.38,396.98l-9.92.1.7-396.97Z"/><path class="cls-7" d="m274.4,408.7c-3,.36-9.87,1.26-10.6.11-.73-1.15,1.43-392.76,1.43-392.76l9.92-.1-.74,392.75Z"/><path class="cls-4" d="m230.17,21.31s-4.29,376.9-2.2,377.35,2.2-377.35,2.2-377.35Z"/><path class="cls-4" d="m238.46,23.24s-4.29,376.9-2.2,377.35,2.2-377.35,2.2-377.35Z"/><path class="cls-4" d="m245.6,21.16c.61,12.81-2.43,378.3,1.38,377.31,3.81-.99-1.38-377.31-1.38-377.31Z"/><path class="cls-4" d="m216.3,398.78c-.61-12.81,2.43-378.3-1.38-377.31-3.81.99,1.38,377.31,1.38,377.31Z"/><path class="cls-6" d="m331.91,46.6c3.89.18,38.68,2.15,39.63,5.7.95,3.55-52.46,357.96-53.89,357.75-1.43-.21-42.49-6.11-42.49-6.11,0,0,53.4-357.49,56.76-357.34Z"/><path class="cls-3" d="m342.75,60.23c1.18.17,12.64,1.82,12.64,1.82,0,0-41.45,278.03-42.58,278.24-1.13.2-12.18-1.75-12.18-1.75l42.11-278.3Z"/><path class="cls-3" d="m298.81,348.14c1.18.17,12.64,1.82,12.64,1.82,0,0-2.76,23.48-3.84,23.35-1.08-.12-12.18-1.75-12.18-1.75l3.37-23.42Z"/><path class="cls-9" d="m388.84,17.68c16.95-19.24,86.14,11.31,86.89,15.36.75,4.05-73.02,377.01-73.02,377.01,0,0-80.23-8.06-82.11-11.33-1.87-3.27,63.38-375.53,68.23-381.04Z"/><path class="cls-8" d="m404.81,103.51c.59.1,6.29,1.11,6.29,1.11,0,0-42.6,236.82-43.19,237.03-.59.21-6.06-1.07-6.06-1.07l42.96-237.07Z"/><path class="cls-8" d="m417.97,104.99c.59.1,6.29,1.11,6.29,1.11,0,0-42.6,236.82-43.19,237.03-.59.21-6.06-1.07-6.06-1.07l42.96-237.07Z"/><path class="cls-2" d="m389.85,32.08s77.23,12.1,77.66,14.33c.44,2.23-.9,6.8-.9,6.8l-77.77-13.53,1-7.61Z"/><path class="cls-2" d="m382.03,80.75s77.23,12.1,77.66,14.33c.44,2.23-.9,6.8-.9,6.8l-77.77-13.53,1-7.61Z"/><path class="cls-2" d="m329.79,353.1s77.23,12.1,77.66,14.33c.44,2.23-.9,6.8-.9,6.8l-77.77-13.53,1-7.61Z"/><path class="cls-2" d="m331.8,341.7s77.23,12.1,77.66,14.33c.44,2.23-.9,6.8-.9,6.8l-77.77-13.53,1-7.61Z"/><path class="cls-8" d="m396.87,44.82c-.75,2.81-7.16,33.64-5.98,33.84,1.18.21,14.01,2.48,14.01,2.48,0,0,7.18-34.37,5.98-33.84-1.19.52-14.01-2.48-14.01-2.48Z"/><path class="cls-8" d="m419.65,48.85c-.75,2.81-7.16,33.64-5.98,33.84,1.18.21,14.01,2.48,14.01,2.48,0,0,7.18-34.37,5.98-33.84-1.19.52-14.01-2.48-14.01-2.48Z"/><path class="cls-8" d="m442.44,52.87c-.75,2.81-7.16,33.64-5.98,33.84,1.18.21,14.01,2.48,14.01,2.48,0,0,7.18-34.37,5.98-33.84-1.19.52-14.01-2.48-14.01-2.48Z"/><path class="cls-4" d="m112.17,25.58c6.98-5.91,79.77-.78,81.19,3,1.42,3.78-3.71,378.16-3.71,378.16,0,0-78.47-1.42-80.84-4.25-2.36-2.84-2.13-372.25,3.36-376.9Z"/><path class="cls-6" d="m107.39,20.85s13.21-2.61,14.71,0c1.5,2.61-5.2,385.89-5.2,385.89,0,0-13.71,2.02-13.71,0s4.2-385.89,4.2-385.89Z"/><path class="cls-6" d="m198.41,23.29s-13.18-2.76-14.71-.17c-1.53,2.59.62,385.92.62,385.92,0,0,13.68,2.18,13.71.16.02-2.02.38-385.91.38-385.91Z"/><path class="cls-1" d="m137.7,25.1s-7.88,375.36-5.83,375.83c2.05.47,5.83-375.83,5.83-375.83Z"/><path class="cls-1" d="m152.83,25.1c.47,12.76-6.07,376.78-2.33,375.83,3.75-.95,2.33-375.83,2.33-375.83Z"/><path class="cls-1" d="m165.59,400.93c.47-6.15,5.68-370.16,5.68-370.16h-5.67s0,370.16,0,370.16Z"/><path class="cls-4" d="m6.11,7.68c4.24-.75,42.31-6.98,44.19-3.38,1.88,3.6,29.44,399.37,27.84,399.49-1.6.12-47.38,3.62-47.38,3.62C30.76,407.41,2.44,8.33,6.11,7.68Z"/><path class="cls-9" d="m0,4.79c3.29-.6,10.81-2.03,11.7-.89.89,1.14,25.05,405.33,25.05,405.33l-10.95.84L0,4.79Z"/><path class="cls-9" d="m80.35,405.27c-3.29.6-10.81,2.03-11.7.89C67.76,405.03,43.6.84,43.6.84l10.95-.84,25.8,405.27Z"/><path class="cls-1" d="m13.86,8.55c1.54,13.16,22.92,390.14,27.07,388.84C45.08,396.08,13.86,8.55,13.86,8.55Z"/><path class="cls-1" d="m57.93,396.09c.05-6.4-22.85-383.26-22.85-383.26l-6.39.49,29.24,382.77Z"/></g></svg>