<?xml version="1.0" encoding="UTF-8"?><svg id="Layer_2" xmlns="http://www.w3.org/2000/svg" viewBox="0 0 302.49 304.22"><defs><style>.cls-1{fill:#f8e5c1;}.cls-2{fill:#f1d784;}.cls-3{fill:#fff;}.cls-4{fill:#fcf6e3;}.cls-5{fill:#f18a66;}.cls-6{fill:#e25c2a;}.cls-7{fill:#2e4874;}.cls-8{fill:#6fc8b7;}.cls-9{fill:#77a3d7;}</style></defs><g id="Layer_2-2"><path class="cls-4" d="m33.33,26.55c-2.92-.29-29.12-2.55-30.21,0-1.09,2.55.73,273,1.82,273h32.4s-1.48-272.76-4-273Z"/><path class="cls-7" d="m37.33,24.27c-2.27-.24-7.46-.82-8,0-.55.82,4.02,276.83,4.02,276.83h7.49l-3.51-276.83Z"/><path class="cls-7" d="m3.51,300.67c2.27.24,7.46.82,8,0,.55-.82-4.02-276.83-4.02-276.83H0l3.51,276.83Z"/><path class="cls-1" d="m28.11,27.55c-.36,9.02,4.68,266.39,1.79,265.72-2.88-.67-1.79-265.72-1.79-265.72Z"/><path class="cls-1" d="m18.28,293.27c-.36-4.35-4.37-261.71-4.37-261.71h4.37v261.71Z"/><path class="cls-1" d="m298.63,6.68c-2.83-5.63-48.39-2.75-50.59-.5-2.21,2.24-2.88,289.81-2.88,289.81,0,0,54.18,5.64,54.23.54.05-5.1.67-287.01-.76-289.85Z"/><path class="cls-7" d="m301.96.9c-2.27-.28-7.45-.96-8-.08-.55.88,1.04,299.57,1.04,299.57l7.49.07-.53-299.56Z"/><path class="cls-7" d="m245.14,299.44c2.27.28,7.45.95,8,.08.55-.87-1.08-296.38-1.08-296.38l-7.49-.07.56,296.37Z"/><path class="cls-4" d="m278.53,7.11s3.24,284.41,1.66,284.75c-1.58.34-1.66-284.75-1.66-284.75Z"/><path class="cls-4" d="m272.27,8.56s3.24,284.41,1.66,284.75c-1.58.34-1.66-284.75-1.66-284.75Z"/><path class="cls-4" d="m266.88,7c-.46,9.67,1.84,285.47-1.04,284.73-2.88-.75,1.04-284.73,1.04-284.73Z"/><path class="cls-4" d="m288.99,291.95c.46-9.67-1.84-285.47,1.04-284.73,2.88.75-1.04,284.73-1.04,284.73Z"/><path class="cls-6" d="m201.75,23.37c-2.93.13-29.19,1.62-29.9,4.3-.72,2.68,39.59,270.12,40.67,269.96s32.07-4.61,32.07-4.61c0,0-40.3-269.77-42.83-269.65Z"/><path class="cls-3" d="m193.57,33.65c-.89.13-9.54,1.37-9.54,1.37,0,0,31.28,209.81,32.13,209.96.85.15,9.19-1.32,9.19-1.32l-31.78-210.01Z"/><path class="cls-3" d="m226.72,250.91c-.89.13-9.54,1.37-9.54,1.37,0,0,2.08,17.72,2.89,17.62s9.19-1.32,9.19-1.32l-2.54-17.67Z"/><path class="cls-9" d="m158.79,4.76c-12.79-14.52-65,8.53-65.57,11.59-.57,3.06,55.1,284.5,55.1,284.5,0,0,60.55-6.08,61.96-8.55,1.41-2.47-47.82-283.38-51.49-287.54Z"/><path class="cls-8" d="m146.74,69.53c-.44.08-4.75.84-4.75.84,0,0,32.15,178.71,32.59,178.87.44.16,4.57-.81,4.57-.81l-32.41-178.9Z"/><path class="cls-8" d="m136.81,70.64c-.44.08-4.75.84-4.75.84,0,0,32.15,178.71,32.59,178.87.44.16,4.57-.81,4.57-.81l-32.41-178.9Z"/><path class="cls-2" d="m158.03,15.62s-58.28,9.13-58.6,10.82c-.33,1.69.68,5.13.68,5.13l58.68-10.21-.76-5.74Z"/><path class="cls-2" d="m163.93,52.35s-58.28,9.13-58.6,10.82c-.33,1.69.68,5.13.68,5.13l58.68-10.21-.76-5.74Z"/><path class="cls-2" d="m203.35,257.87s-58.28,9.13-58.6,10.82c-.33,1.69.68,5.13.68,5.13l58.68-10.21-.76-5.74Z"/><path class="cls-2" d="m201.83,249.27s-58.28,9.13-58.6,10.82c-.33,1.69.68,5.13.68,5.13l58.68-10.21-.76-5.74Z"/><path class="cls-8" d="m152.73,25.24c.56,2.12,5.41,25.38,4.51,25.54-.89.16-10.57,1.87-10.57,1.87,0,0-5.42-25.93-4.51-25.54.9.39,10.57-1.87,10.57-1.87Z"/><path class="cls-8" d="m135.54,28.28c.56,2.12,5.41,25.38,4.51,25.54s-10.57,1.87-10.57,1.87c0,0-5.42-25.93-4.51-25.54.9.4,10.57-1.87,10.57-1.87Z"/><path class="cls-8" d="m118.34,31.31c.56,2.12,5.41,25.38,4.51,25.54s-10.57,1.87-10.57,1.87c0,0-5.42-25.93-4.51-25.54.9.4,10.57-1.87,10.57-1.87Z"/><path class="cls-5" d="m92.41,13.39c-2.88-5.6-48.41-2.27-50.6,0-2.18,2.27,0,289.83,0,289.83,0,0,46.34,2.26,54.24,0,4.9-1.4-2.18-287-3.64-289.83Z"/><path class="cls-6" d="m82.63,51.98s-28.94-.97-28.94,0-1.09,9.71,0,9.71,29.76,1.09,28.94,0c-.82-1.09,0-9.71,0-9.71Z"/><path class="cls-6" d="m94.59,263.94s-51.21-.81-51.75.8c-.55,1.61-.23,5.17-.23,5.17l51.72-.18.25-5.79Z"/><path class="cls-6" d="m93.97,284.49s-51.21-.81-51.75.8-.23,5.17-.23,5.17l51.72-.18.25-5.79Z"/><path class="cls-6" d="m94.64,255.2s-51.21-.81-51.75.8-.23,5.17-.23,5.17l51.72-.18.25-5.79Z"/><path class="cls-6" d="m67.93,20.19c9.74,0,17.38,13.66,11.65,19.94-5.73,6.28-18.56,6.01-22.11-3.73-2.37-6.5,1.91-16.21,10.47-16.21Z"/></g></svg>