<?xml version="1.0" encoding="utf-8"?>
<!-- Generator: Adobe Illustrator 27.8.0, SVG Export Plug-In . SVG Version: 6.00 Build 0)  -->
<svg version="1.1" id="Layer_2_00000056425369442979453200000012196249215082465457_"
	 xmlns="http://www.w3.org/2000/svg" xmlns:xlink="http://www.w3.org/1999/xlink" x="0px" y="0px" viewBox="0 0 390.3 99.4"
	 style="enable-background:new 0 0 390.3 99.4;" xml:space="preserve">
<style type="text/css">
	.st0{fill:#FCF6E3;}
	.st1{fill:#E25C2A;}
	.st2{fill:#F8E5C1;}
</style>
<g id="Layer_2-2">
	<path class="st0" d="M5.9,9c-5.9,7-0.8,79.8,3,81.2c3.8,1.4,378.2-3.7,378.2-3.7S385.6,8,382.8,5.6C380,3.3,10.6,3.5,5.9,9L5.9,9z"
		/>
	<path class="st1" d="M1.2,4.2c0,0-2.6,13.2,0,14.7s385.9-5.2,385.9-5.2s2-13.7,0-13.7S1.2,4.2,1.2,4.2z"/>
	<path class="st1" d="M3.6,95.2c0,0-2.8-13.2-0.2-14.7s385.9,0.6,385.9,0.6s2.2,13.7,0.2,13.7C387.5,94.9,3.6,95.2,3.6,95.2z"/>
	<path class="st2" d="M5.4,34.5c0,0,375.4-7.9,375.8-5.8C381.7,30.7,5.4,34.5,5.4,34.5z"/>
	<path class="st2" d="M5.4,49.6c12.8,0.5,376.8-6.1,375.8-2.3C380.3,51.1,5.4,49.6,5.4,49.6z"/>
	<path class="st2" d="M381.2,62.4c-6.1,0.5-370.2,5.7-370.2,5.7v-5.7L381.2,62.4L381.2,62.4z"/>
</g>
</svg>
