<?xml version="1.0" encoding="utf-8"?>
<!-- Generator: Adobe Illustrator 27.8.0, SVG Export Plug-In . SVG Version: 6.00 Build 0)  -->
<svg version="1.1" id="Layer_2_00000093898096776029544070000002947263353920115852_"
	 xmlns="http://www.w3.org/2000/svg" xmlns:xlink="http://www.w3.org/1999/xlink" x="0px" y="0px" viewBox="0 0 395.6 74.6"
	 style="enable-background:new 0 0 395.6 74.6;" xml:space="preserve">
<style type="text/css">
	.st0{fill:#2E4874;}
	.st1{fill:#F18A66;}
	.st2{fill:#E25C2A;}
</style>
<g id="Layer_2-2">
	<path class="st0" d="M4.1,4.9c-7.6,3.9-3.1,65.4,0,68.3c3.1,2.9,391.5,0,391.5,0s6.9-73.3,0-73.3C388.7,0,8,2.9,4.1,4.9z"/>
	<path class="st1" d="M100.6,33.5v3.2c0,0,215.7-0.4,216-0.6c0.3-0.3,0-3.1,0-3.1S100.6,33.5,100.6,33.5z"/>
	<path class="st2" d="M56.3,18.1c0,0-1.3,39.1,0,39.1s13.1,1.5,13.1,0s1.5-40.2,0-39.1C67.9,19.2,56.3,18.1,56.3,18.1z"/>
	<path class="st2" d="M342.6,2c0,0-1.1,69.2,1.1,69.9c2.2,0.7,7,0.3,7,0.3l-0.2-69.9L342.6,2L342.6,2z"/>
	<path class="st1" d="M370.3,2.8c0,0-1.1,69.2,1.1,69.9c2.2,0.7,7,0.3,7,0.3l-0.2-69.9L370.3,2.8L370.3,2.8z"/>
	<path class="st2" d="M330.8,1.9c0,0-1.1,69.2,1.1,69.9s7,0.3,7,0.3l-0.2-69.9L330.8,1.9L330.8,1.9z"/>
	<path class="st1" d="M13.3,38c0-13.1,18.5-23.5,26.9-15.7c8.5,7.7,8.1,25.1-5,29.9C26.4,55.3,13.3,49.5,13.3,38L13.3,38z"/>
</g>
</svg>
