<?xml version="1.0" encoding="utf-8"?>
<!-- Generator: Adobe Illustrator 27.8.0, SVG Export Plug-In . SVG Version: 6.00 Build 0)  -->
<svg version="1.1" id="Layer_2_00000034811159306635707670000008269231929218784143_"
	 xmlns="http://www.w3.org/2000/svg" xmlns:xlink="http://www.w3.org/1999/xlink" x="0px" y="0px" viewBox="0 0 332.2 74.6"
	 style="enable-background:new 0 0 332.2 74.6;" xml:space="preserve">
<style type="text/css">
	.st0{fill:#E25C2A;}
	.st1{fill:#F1D784;}
</style>
<g id="Layer_2-2">
	<path class="st0" d="M8.9,0.7c-18.3,11.1-3.2,72.5,0,73.7s320.7-5.2,320.7-5.2s5-67.2,2.6-69.2S14.1-2.5,8.9,0.7L8.9,0.7z"/>
	<path class="st1" d="M20.6,3.6c0,0-1.3,65.3,0.5,66s5.7,0.2,5.7,0.2L27,3.9L20.6,3.6z"/>
	<path class="st1" d="M293.4,0.9c0,0-1.3,65.3,0.5,66s5.7,0.2,5.7,0.2l0.2-65.9L293.4,0.9z"/>
	<path class="st1" d="M283.7,0.9c0,0-1.3,65.3,0.5,66c1.8,0.7,5.7,0.2,5.7,0.2l0.2-65.9L283.7,0.9z"/>
</g>
</svg>
